# This file uses centimeters as units for non-parametric coordinates.

mtllib SM_Bridge_Floor.mtl
g default
v -100.000000 0.000000 125.000000
v 100.000000 0.000000 125.000000
v -100.000000 50.000000 125.000000
v 100.000000 50.000000 125.000000
v -100.000000 50.000000 -125.000000
v 100.000000 50.000000 -125.000000
v -100.000000 0.000000 -125.000000
v 100.000000 0.000000 -125.000000
vt 0.990070 0.762304
vt 0.740060 0.012307
vt 0.740069 0.699807
vt 0.990069 0.699804
vt 0.740065 0.387307
vt 0.990065 0.387304
vt 0.740064 0.324807
vt 0.990064 0.324804
vt 0.990060 0.012304
vt 0.740070 0.762307
vn 0.000000 0.000000 1.000000
vn 0.000000 0.000000 1.000000
vn 0.000000 0.000000 1.000000
vn 0.000000 0.000000 1.000000
vn 0.000000 1.000000 0.000000
vn 0.000000 1.000000 0.000000
vn 0.000000 1.000000 0.000000
vn 0.000000 1.000000 0.000000
vn 0.000000 0.000000 -1.000000
vn 0.000000 0.000000 -1.000000
vn 0.000000 0.000000 -1.000000
vn 0.000000 0.000000 -1.000000
vn 0.000000 -1.000000 0.000000
vn 0.000000 -1.000000 0.000000
vn 0.000000 -1.000000 0.000000
vn 0.000000 -1.000000 0.000000
s off
g BridgeFloor
usemtl initialShadingGroup
f 1/1/1 2/10/2 4/3/3 3/4/4
f 3/4/5 4/3/6 6/5/7 5/6/8
f 5/6/9 6/5/10 8/7/11 7/8/12
f 7/8/13 8/7/14 2/2/15 1/9/16
