# This file uses centimeters as units for non-parametric coordinates.

mtllib SM_Bridge_Railing.mtl
g default
v 90.074764 9.113557 5.000000
v 100.074764 9.113557 5.000000
v 90.074764 224.805429 5.000000
v 100.074764 224.805429 5.000000
v 90.074764 224.805429 -5.000000
v 100.074764 224.805429 -5.000000
v 90.074764 9.113557 -5.000000
v 100.074764 9.113557 -5.000000
v -100.074764 9.113557 5.000000
v -90.074764 9.113557 5.000000
v -100.074764 224.805429 5.000000
v -90.074764 224.805429 5.000000
v -100.074764 224.805429 -5.000000
v -90.074764 224.805429 -5.000000
v -100.074764 9.113557 -5.000000
v -90.074764 9.113557 -5.000000
v 90.074772 19.179185 5.000000
v 90.074764 19.179239 -5.000000
v 90.074764 214.739801 5.000000
v 90.074764 214.739801 -5.000000
v -90.074764 19.179239 -5.000000
v -90.074764 19.179185 5.000000
v -90.074757 214.739801 -5.000000
v -90.074764 214.739801 5.000000
v 0.000004 121.992319 5.000000
v 0.000000 111.926706 5.000000
v 0.000004 111.926706 -5.000000
v 0.000000 121.992349 -5.000000
v -4.413663 116.964548 5.000000
v -4.413659 116.964548 -5.000000
v 4.410063 116.955759 5.000000
v 4.410059 116.955789 -5.000000
v 100.074764 234.333108 11.000000
v -100.074764 234.333108 11.000000
v 100.074764 224.805429 11.000000
v -100.074764 224.805429 11.000000
v 100.074764 224.805429 -11.000000
v 100.074764 234.333108 -11.000000
v -100.074764 224.805429 -11.000000
v -100.074764 234.333108 -11.000000
v 100.074764 0.000001 11.000000
v -100.074764 0.000001 11.000000
v 100.074764 9.113557 11.000000
v -100.074764 9.113557 11.000000
v 100.074764 9.113557 -11.000000
v 100.074764 0.000001 -11.000000
v -100.074764 9.113557 -11.000000
v -100.074764 0.000001 -11.000000
vt 0.561197 0.945905
vt 0.548697 0.945907
vt 0.462007 0.239360
vt 0.470306 0.229903
vt 0.548695 0.933407
vt 0.561195 0.933405
vt 0.798883 0.945871
vt 0.786384 0.945873
vt 0.557605 0.201413
vt 0.798882 0.933371
vt 0.557549 0.209774
vt 0.786382 0.933373
vt 0.482806 0.229913
vt 0.545105 0.201330
vt 0.397338 0.024223
vt 0.389821 0.036121
vt 0.377321 0.036103
vt 0.369838 0.024182
vt 0.397321 0.036132
vt 0.408864 0.286336
vt 0.565836 0.210931
vt 0.565897 0.202568
vt 0.396955 0.286319
vt 0.377303 0.048603
vt 0.473028 0.192125
vt 0.464700 0.201556
vt 0.536747 0.210737
vt 0.493782 0.201671
vt 0.536798 0.202375
vt 0.485528 0.192174
vt 0.491090 0.239383
vt 0.545049 0.209690
vt 0.389803 0.048621
vt 0.389473 0.273808
vt 0.376973 0.273789
vt 0.369821 0.036092
vt 0.369455 0.286279
vt 0.369437 0.298188
vt 0.389455 0.286308
vt 0.376955 0.286290
vt 0.810277 0.953369
vt 0.798879 0.914479
vt 0.548694 0.925907
vt 0.537302 0.925909
vt 0.798881 0.925871
vt 0.548700 0.964799
vt 0.548698 0.953407
vt 0.798885 0.953371
vt 0.525389 0.039796
vt 0.700412 0.532055
vt 0.675412 0.532047
vt 0.687912 0.532051
vt 0.609133 0.801939
vt 0.621633 0.801883
vt 0.596634 0.801996
vt 0.537889 0.039880
vt 0.810273 0.925869
vt 0.548692 0.914515
vt 0.662828 0.789076
vt 0.700328 0.789088
vt 0.535612 0.381596
vt 0.700324 0.801670
vt 0.712908 0.544641
vt 0.700408 0.544637
vt 0.662912 0.532043
vt 0.632974 0.544796
vt 0.645474 0.544740
vt 0.632917 0.532214
vt 0.523112 0.381512
vt 0.634076 0.789245
vt 0.596577 0.789414
vt 0.556466 0.372270
vt 0.662824 0.801658
vt 0.543966 0.372187
vt 0.687824 0.801666
vt 0.675324 0.801662
vt 0.546243 0.030471
vt 0.558742 0.030555
vt 0.595418 0.532384
vt 0.620417 0.532271
vt 0.607918 0.532327
vt 0.634133 0.801826
vt 0.357911 0.036075
vt 0.357545 0.286261
vt 0.436364 0.286376
vt 0.436730 0.036190
vt 0.798886 0.964763
vt 0.537306 0.953408
vt 0.396938 0.298228
vt 0.409231 0.036150
vt 0.712828 0.789092
vt 0.662908 0.544625
vt 0.595474 0.544965
vt 0.646576 0.789188
vt 0.470171 0.400765
vt 0.461882 0.401854
vt 0.482671 0.400775
vt 0.490959 0.401877
vt 0.506957 0.030860
vt 0.473670 0.029637
vt 0.494457 0.030810
vt 0.486170 0.029686
vt 0.564693 0.381789
vt 0.524247 0.210654
vt 0.465374 0.030696
vt 0.566970 0.040073
vt 0.524298 0.202291
vt 0.506282 0.201720
vt 0.503590 0.239393
vt 0.503460 0.401887
vn 0.000000 0.000000 1.000000
vn 0.000000 0.000000 1.000000
vn 0.000000 0.000000 1.000000
vn 0.000000 0.000000 -1.000000
vn 0.000000 0.000000 -1.000000
vn 0.000000 0.000000 -1.000000
vn 0.000000 0.000000 1.000000
vn 0.000000 0.000000 1.000000
vn 0.000000 0.000000 1.000000
vn 0.000000 0.000000 -1.000000
vn 0.000000 0.000000 -1.000000
vn 0.000000 0.000000 -1.000000
vn -1.000000 -0.000000 0.000000
vn -1.000000 -0.000000 0.000000
vn -1.000000 -0.000000 0.000000
vn -1.000000 -0.000000 0.000000
vn 0.000000 0.000000 -1.000000
vn 0.000000 0.000000 -1.000000
vn 0.000000 0.000000 -1.000000
vn 0.000000 0.000000 -1.000000
vn 1.000000 0.000000 0.000000
vn 1.000000 0.000000 0.000000
vn 1.000000 0.000000 0.000000
vn 1.000000 0.000000 0.000000
vn -0.000000 0.000000 1.000000
vn -0.000000 0.000000 1.000000
vn -0.000000 0.000000 1.000000
vn -0.000000 0.000000 1.000000
vn 0.000000 0.000000 -1.000000
vn 0.000000 0.000000 -1.000000
vn 0.000000 0.000000 -1.000000
vn 0.000000 0.000000 1.000000
vn 0.000000 0.000000 1.000000
vn 0.000000 0.000000 1.000000
vn -1.000000 0.000000 0.000000
vn -1.000000 0.000000 0.000000
vn -1.000000 0.000000 0.000000
vn -1.000000 0.000000 0.000000
vn 0.000000 0.000000 -1.000000
vn 0.000000 0.000000 -1.000000
vn 0.000000 0.000000 -1.000000
vn 0.000000 0.000000 -1.000000
vn 1.000000 0.000000 0.000000
vn 1.000000 0.000000 0.000000
vn 1.000000 0.000000 0.000000
vn 1.000000 0.000000 0.000000
vn 0.000000 0.000000 1.000000
vn 0.000000 0.000000 1.000000
vn 0.000000 0.000000 1.000000
vn 0.000000 0.000000 1.000000
vn 0.000000 0.000000 -1.000000
vn 0.000000 0.000000 -1.000000
vn 0.000000 0.000000 -1.000000
vn 0.000000 0.000000 1.000000
vn 0.000000 0.000000 1.000000
vn 0.000000 0.000000 1.000000
vn 0.000000 0.000000 -1.000000
vn 0.000000 0.000000 -1.000000
vn 0.000000 0.000000 -1.000000
vn 0.000000 0.000000 -1.000000
vn -0.752166 -0.658974 -0.000001
vn -0.752166 -0.658974 -0.000001
vn -0.752166 -0.658974 -0.000001
vn -0.752166 -0.658974 -0.000001
vn 0.000000 0.000000 -1.000000
vn 0.000000 0.000000 -1.000000
vn 0.000000 0.000000 -1.000000
vn 0.000000 0.000000 -1.000000
vn 0.752166 0.658974 0.000001
vn 0.752166 0.658974 0.000001
vn 0.752166 0.658974 0.000001
vn 0.752166 0.658974 0.000001
vn -0.752166 -0.658974 0.000000
vn -0.752166 -0.658974 0.000000
vn -0.752166 -0.658974 0.000000
vn -0.752166 -0.658974 0.000000
vn 0.752156 0.658985 0.000002
vn 0.752156 0.658985 0.000002
vn 0.752156 0.658985 0.000002
vn 0.752156 0.658985 0.000002
vn 0.000000 0.000000 1.000000
vn 0.000000 0.000000 1.000000
vn 0.000000 0.000000 1.000000
vn 0.000000 0.000000 1.000000
vn 0.000000 0.000000 1.000000
vn 0.000000 0.000000 1.000000
vn 0.000000 0.000000 1.000000
vn 0.000000 0.000000 1.000000
vn -0.752199 0.658936 0.000002
vn -0.752199 0.658935 0.000002
vn -0.752200 0.658936 0.000002
vn -0.752199 0.658936 0.000002
vn -0.752166 0.658974 0.000003
vn -0.752166 0.658974 0.000003
vn -0.752166 0.658974 0.000003
vn -0.752166 0.658974 0.000003
vn 0.752181 -0.658956 0.000000
vn 0.752181 -0.658956 0.000000
vn 0.752181 -0.658956 0.000000
vn 0.752181 -0.658956 0.000000
vn 0.752166 -0.658974 0.000001
vn 0.752166 -0.658974 0.000001
vn 0.752166 -0.658974 0.000001
vn 0.752166 -0.658974 0.000001
vn 0.000000 0.000000 1.000000
vn 0.000000 0.000000 1.000000
vn 0.000000 0.000000 1.000000
vn 0.000000 0.000000 1.000000
vn 0.000000 0.000000 -1.000000
vn 0.000000 0.000000 -1.000000
vn 0.000000 0.000000 -1.000000
vn 0.000000 0.000000 -1.000000
vn 0.000000 0.000000 -1.000000
vn 0.000000 0.000000 -1.000000
vn 0.000000 0.000000 -1.000000
vn 0.000000 0.000000 -1.000000
vn 0.000000 0.000000 -1.000000
vn 0.000000 0.000000 -1.000000
vn 0.000000 0.000000 -1.000000
vn 0.000000 0.000000 -1.000000
vn 0.000000 0.000000 1.000000
vn 0.000000 0.000000 1.000000
vn 0.000000 0.000000 1.000000
vn 0.000000 0.000000 1.000000
vn 0.000000 0.000000 1.000000
vn 0.000000 0.000000 1.000000
vn 0.000000 0.000000 1.000000
vn 0.000000 0.000000 1.000000
vn 1.000000 0.000000 0.000000
vn 1.000000 0.000000 0.000000
vn 1.000000 0.000000 0.000000
vn 1.000000 0.000000 0.000000
vn 0.000000 0.000000 1.000000
vn 0.000000 0.000000 1.000000
vn 0.000000 0.000000 1.000000
vn 0.000000 0.000000 1.000000
vn 0.000000 -1.000000 0.000000
vn 0.000000 -1.000000 0.000000
vn 0.000000 -1.000000 0.000000
vn 0.000000 -1.000000 0.000000
vn 0.000000 0.000000 -1.000000
vn 0.000000 0.000000 -1.000000
vn 0.000000 0.000000 -1.000000
vn 0.000000 0.000000 -1.000000
vn 0.000000 -1.000000 0.000000
vn 0.000000 -1.000000 0.000000
vn 0.000000 -1.000000 0.000000
vn 1.000000 0.000000 0.000000
vn 1.000000 0.000000 0.000000
vn 1.000000 0.000000 0.000000
vn 0.000000 -1.000000 0.000000
vn 0.000000 -1.000000 0.000000
vn 0.000000 -1.000000 0.000000
vn -1.000000 0.000000 0.000000
vn -1.000000 0.000000 0.000000
vn -1.000000 0.000000 0.000000
vn 0.000000 -1.000000 0.000002
vn 0.000000 -1.000000 0.000002
vn 0.000000 -1.000000 0.000002
vn 0.000000 -1.000000 0.000002
vn 0.000000 -1.000000 0.000000
vn 0.000000 -1.000000 0.000000
vn 0.000000 -1.000000 0.000000
vn 0.000000 -1.000000 0.000000
vn 0.000000 -1.000000 0.000000
vn 0.000000 -1.000000 0.000000
vn -1.000000 0.000000 0.000000
vn -1.000000 0.000000 0.000000
vn -1.000000 0.000000 0.000000
vn 0.000000 -1.000000 -0.000002
vn 0.000000 -1.000000 -0.000002
vn 0.000000 -1.000000 -0.000002
vn 0.000000 -1.000000 -0.000002
vn 0.000000 1.000000 0.000000
vn 0.000000 1.000000 0.000000
vn 0.000000 1.000000 0.000000
vn 0.000000 1.000000 0.000000
vn -1.000000 0.000000 0.000000
vn -1.000000 0.000000 0.000000
vn -1.000000 0.000000 0.000000
vn -1.000000 0.000000 0.000000
vn 0.000000 1.000000 0.000000
vn 0.000000 1.000000 0.000000
vn 0.000000 1.000000 0.000000
vn 0.000000 1.000000 0.000000
vn 0.000000 0.000000 -1.000000
vn 0.000000 0.000000 -1.000000
vn 0.000000 0.000000 -1.000000
vn 0.000000 0.000000 -1.000000
vn 0.000000 0.000000 1.000000
vn 0.000000 0.000000 1.000000
vn 0.000000 0.000000 1.000000
vn 0.000000 0.000000 1.000000
vn 0.000000 1.000000 0.000000
vn 0.000000 1.000000 0.000000
vn 0.000000 1.000000 0.000000
vn 1.000000 0.000000 0.000000
vn 1.000000 0.000000 0.000000
vn 1.000000 0.000000 0.000000
vn 0.000000 1.000000 0.000000
vn 0.000000 1.000000 0.000000
vn 0.000000 1.000000 0.000000
vn -1.000000 0.000000 0.000000
vn -1.000000 0.000000 0.000000
vn -1.000000 0.000000 0.000000
vn 0.000000 1.000000 0.000000
vn 0.000000 1.000000 0.000000
vn 0.000000 1.000000 0.000000
vn 0.000000 1.000000 0.000000
vn 0.000000 1.000000 0.000000
vn 0.000000 1.000000 0.000000
vn 0.000000 1.000000 0.000000
vn 1.000000 0.000000 0.000000
vn 1.000000 0.000000 0.000000
vn 1.000000 0.000000 0.000000
vn 0.000000 1.000000 0.000000
vn 0.000000 1.000000 0.000000
vn 0.000000 1.000000 0.000000
vn 0.000000 1.000000 0.000000
vn 0.000000 1.000000 0.000000
vn 0.000000 1.000000 0.000000
vn 0.000000 1.000000 0.000000
vn 1.000000 0.000000 0.000000
vn 1.000000 0.000000 0.000000
vn 1.000000 0.000000 0.000000
vn 1.000000 0.000000 0.000000
vn 1.000000 0.000000 0.000000
vn 1.000000 0.000000 0.000000
vn 1.000000 0.000000 0.000000
vn -1.000000 0.000000 0.000000
vn -1.000000 0.000000 0.000000
vn -1.000000 0.000000 0.000000
vn -1.000000 0.000000 0.000000
vn -1.000000 0.000000 0.000000
vn -1.000000 0.000000 0.000000
vn -1.000000 0.000000 0.000000
s off
g BridgeRailing
usemtl initialShadingGroup
f 1/82/1 2/54/2 17/70/3
f 18/71/4 8/53/5 7/55/6
f 9/52/7 10/50/8 22/64/9
f 15/51/10 21/92/11 16/65/12
f 18/94/13 17/70/14 19/66/15 20/67/16
f 20/93/17 6/81/18 8/53/19 18/71/20
f 2/54/21 8/53/22 6/81/23 4/80/24
f 17/70/25 2/54/26 4/80/27 19/66/28
f 5/79/29 6/81/30 20/93/31
f 19/66/32 4/80/33 3/68/34
f 15/51/35 9/52/36 11/75/37 13/76/38
f 13/76/39 23/59/40 21/92/41 15/51/42
f 22/64/43 21/63/44 23/91/45 24/60/46
f 9/52/47 22/64/48 24/60/49 11/75/50
f 13/76/51 14/73/52 23/59/53
f 11/75/54 24/60/55 12/62/56
f 18/3/57 7/4/58 27/95/59 32/96/60
f 7/4/61 1/13/62 26/97/63 27/95/64
f 28/105/65 30/100/66 23/25/67 14/26/68
f 25/101/69 28/99/70 14/108/71 12/28/72
f 30/100/73 29/102/74 24/30/75 23/25/76
f 17/31/77 18/109/78 32/110/79 31/98/80
f 29/102/81 25/101/82 12/28/83 24/30/84
f 1/13/85 17/31/86 31/98/87 26/97/88
f 21/49/89 22/56/90 29/29/91 30/107/92
f 3/61/93 5/69/94 28/104/95 25/27/96
f 20/72/97 19/74/98 31/32/99 32/11/100
f 10/77/101 16/78/102 27/9/103 26/14/104
f 25/27/105 29/29/106 26/14/107 31/32/108
f 30/22/109 28/21/110 32/11/111 27/9/112
f 5/103/113 20/72/114 32/11/115 28/21/116
f 16/78/117 21/106/118 30/22/119 27/9/120
f 19/74/121 3/61/122 25/27/123 31/32/124
f 22/56/125 10/77/126 26/14/127 29/29/128
f 33/15/129 4/16/130 6/17/131 38/18/132
f 35/19/133 33/90/134 34/20/135 36/23/136
f 5/24/137 3/33/138 12/34/139 14/35/140
f 38/83/141 37/36/142 39/37/143 40/84/144
f 3/33/145 4/16/146 35/19/147
f 4/16/148 33/15/149 35/19/150
f 11/39/151 12/34/152 36/23/153
f 34/89/154 11/39/155 36/23/156
f 12/34/157 3/33/158 35/19/159 36/23/160
f 6/17/161 5/24/162 37/36/163
f 14/35/164 13/40/165 39/37/166
f 13/40/167 40/38/168 39/37/169
f 5/24/170 14/35/171 39/37/172 37/36/173
f 34/20/174 33/90/175 38/86/176 40/85/177
f 42/41/178 9/7/179 15/10/180 48/57/181
f 1/1/182 7/6/183 16/12/184 10/8/185
f 45/43/186 46/58/187 48/42/188 47/45/189
f 41/46/190 43/47/191 44/48/192 42/87/193
f 2/2/194 1/1/195 43/47/196
f 41/88/197 2/2/198 43/47/199
f 10/8/200 9/7/201 44/48/202
f 9/7/203 42/41/204 44/48/205
f 1/1/206 10/8/207 44/48/208 43/47/209
f 7/6/210 8/5/211 45/43/212
f 8/5/213 46/44/214 45/43/215
f 15/10/216 16/12/217 47/45/218
f 16/12/219 7/6/220 45/43/221 47/45/222
f 41/88/223 46/44/224 8/5/225 2/2/226
f 38/18/227 6/17/228 37/36/229
f 34/89/230 40/38/231 13/40/232 11/39/233
f 48/57/234 15/10/235 47/45/236
