# This file uses centimeters as units for non-parametric coordinates.

mtllib SM_Bridge_PillarTop.mtl
g default
v -35.000000 0.000000 54.437579
v 35.000000 0.000000 54.437579
v -35.000000 300.000000 54.437579
v 35.000000 300.000000 54.437579
v -35.000000 300.000000 -53.702756
v 35.000000 300.000000 -53.702756
v -35.000000 0.000000 -53.702756
v 35.000000 0.000000 -53.702756
v -35.000000 125.242966 54.437579
v -35.000000 125.242981 -53.702756
v -233.886948 300.117371 -53.702756
v -233.886948 300.117371 54.437579
v -164.425049 300.117310 54.437579
v -164.425034 300.117310 -53.702756
v -79.664818 122.168350 -53.702756
v -52.529343 165.904465 -53.702756
v -52.529343 165.904449 54.437579
v -79.664818 122.168350 54.437579
v -115.421776 189.290131 -53.702756
v -81.222176 218.035248 -53.702756
v -81.222183 218.035233 54.437579
v -115.421776 189.290131 54.437579
v -160.824478 245.668228 -53.702756
v -122.823601 267.550995 -53.702756
v -122.823616 267.550995 54.437579
v -160.824478 245.668228 54.437579
vt 0.078191 0.638847
vt 0.017850 0.576103
vt 0.588961 0.231572
vt 0.281039 0.760364
vt 0.124539 0.847996
vt 0.125443 0.761259
vt 0.350322 0.384851
vt 0.723330 0.012628
vt 0.499274 0.848635
vt 0.498849 0.983965
vt 0.229175 0.576650
vt 0.279656 0.703255
vt 0.238646 0.513715
vt 0.724340 0.286422
vt 0.369922 0.667945
vt 0.724615 0.360803
vt 0.302177 0.485652
vt 0.318610 0.540298
vt 0.455547 0.633905
vt 0.724913 0.441643
vt 0.374061 0.460163
vt 0.404092 0.506073
vt 0.559303 0.589025
vt 0.519955 0.660899
vt 0.589982 0.508181
vt 0.513262 0.467263
vt 0.589738 0.442141
vt 0.433402 0.442147
vt 0.465054 0.687990
vt 0.725156 0.507682
vt 0.589440 0.361302
vt 0.395529 0.718939
vt 0.589166 0.286920
vt 0.329789 0.742450
vt 0.724136 0.231073
vt 0.191446 0.533929
vt 0.588156 0.013127
vt 0.499587 0.761088
vt 0.124012 0.983185
vt 0.290254 0.321239
vn 0.000000 0.000000 1.000000
vn 0.000000 0.000000 1.000000
vn 0.000000 0.000000 1.000000
vn -0.000000 0.000000 -1.000000
vn 0.000000 0.000000 -1.000000
vn -0.000000 0.000000 -1.000000
vn -1.000000 0.000000 0.000000
vn -1.000000 0.000000 0.000000
vn -1.000000 0.000000 0.000000
vn -1.000000 0.000000 0.000000
vn 0.000000 0.000000 -1.000000
vn 0.000000 0.000000 -1.000000
vn 1.000000 0.000000 0.000000
vn 1.000000 0.000000 0.000000
vn 1.000000 0.000000 0.000000
vn 1.000000 0.000000 0.000000
vn 0.000000 0.000000 1.000000
vn 0.000000 0.000000 1.000000
vn -0.939200 -0.343372 0.000000
vn -0.939200 -0.343372 0.000000
vn -0.920377 -0.391031 0.000000
vn -0.920377 -0.391031 0.000000
vn -0.000000 0.000000 1.000000
vn -0.000000 0.000000 1.000000
vn 0.918301 0.395883 0.000000
vn 0.918301 0.395883 0.000000
vn 0.895097 0.445871 0.000000
vn 0.895097 0.445871 0.000000
vn -0.000000 0.000000 -1.000000
vn 0.000000 0.000000 -1.000000
vn 0.000000 0.000000 -1.000000
vn 0.000000 0.000000 -1.000000
vn 0.822481 0.568792 0.000000
vn 0.822481 0.568792 0.000000
vn -0.000000 0.000000 1.000000
vn -0.000000 0.000000 1.000000
vn -0.835697 -0.549190 0.000000
vn -0.835697 -0.549190 0.000000
vn 0.000000 0.000000 -1.000000
vn 0.000000 0.000000 -1.000000
vn 0.702296 0.711885 0.000000
vn 0.702296 0.711885 0.000000
vn -0.000000 0.000000 1.000000
vn -0.000000 0.000000 1.000000
vn -0.683174 -0.730256 0.000000
vn -0.683174 -0.730256 0.000000
vn -0.000000 0.000000 -1.000000
vn -0.000000 0.000000 -1.000000
vn 0.616410 0.787425 0.000000
vn 0.616410 0.787425 0.000000
vn 0.000000 0.000000 1.000000
vn 0.000000 0.000000 1.000000
vn -0.597555 -0.801828 0.000000
vn -0.597555 -0.801828 0.000000
s 1
g BridgePillarTop
usemtl initialShadingGroup
f 1/1/1 2/2/2 9/36/3
s 2
f 10/4/4 8/5/5 7/6/6
s off
f 10/35/7 9/3/8 3/37/9 5/8/10
s 2
f 8/5/5 10/4/4 5/38/11 6/9/12
s off
f 2/39/13 8/5/14 6/9/15 4/10/16
s 1
f 3/7/17 9/36/3 2/2/2 4/40/18
s 3
f 7/6/19 1/1/20 18/11/21 15/12/22
s 1
f 1/1/1 9/36/3 17/13/23 18/11/24
s 4
f 9/3/25 10/35/26 16/14/27 17/33/28
s 2
f 10/4/4 7/6/6 15/12/29 16/34/30
f 16/34/30 15/12/29 19/15/31 20/32/32
s 4
f 17/33/28 16/14/27 20/16/33 21/31/34
s 1
f 18/11/24 17/13/23 21/17/35 22/18/36
s 3
f 15/12/22 18/11/21 22/18/37 19/15/38
s 2
f 20/32/32 19/15/31 23/19/39 24/29/40
s 4
f 21/31/34 20/16/33 24/20/41 25/27/42
s 1
f 22/18/36 21/17/35 25/21/43 26/22/44
s 3
f 19/15/38 22/18/37 26/22/45 23/19/46
s 2
f 24/29/40 23/19/39 11/23/47 14/24/48
s 4
f 25/27/42 24/20/41 14/30/49 13/25/50
s 1
f 26/22/44 25/21/43 13/28/51 12/26/52
s 3
f 23/19/46 26/22/45 12/26/53 11/23/54
