# This file uses centimeters as units for non-parametric coordinates.

mtllib SM_FencePole_Big.mtl
g default
v -5.000000 0.000000 5.000000
v 5.000000 0.000000 5.000000
v -5.000000 297.529358 41.512470
v 5.000000 297.529358 41.512470
v -5.000000 302.470642 32.818592
v 5.000000 302.470642 32.818592
v -5.000000 0.000000 -5.000000
v 5.000000 0.000000 -5.000000
v -5.000000 234.915665 5.000000
v -5.000000 239.999969 -5.000000
v 5.000000 239.999969 -5.000000
v 5.000000 234.915665 5.000000
vt 0.947726 0.555961
vt 0.948356 0.005231
vt 0.971790 0.005221
vt 0.971557 0.556046
vt 0.947505 0.729852
vt 0.970535 0.730015
vt 0.993513 0.730129
vt 0.924571 0.729853
vt 0.995227 0.005207
vt 0.924920 0.005215
vt 0.923498 0.563369
vt 0.899919 0.563462
vt 0.970550 0.753588
vt 0.901029 0.730489
vt 0.995763 0.563731
vt 0.901346 0.005163
vt 0.947159 0.753424
vn 0.000000 -0.121805 0.992554
vn 0.000000 0.000000 1.000000
vn 0.000000 0.000000 1.000000
vn 0.000000 -0.121805 0.992554
vn 0.000000 0.869388 0.494131
vn 0.000000 0.869388 0.494131
vn 0.000000 0.869388 0.494131
vn 0.000000 0.869388 0.494131
vn 0.000000 0.000000 -1.000000
vn 0.000000 0.000000 -1.000000
vn 0.000000 0.124066 -0.992274
vn 0.000000 0.124066 -0.992274
vn 1.000000 0.000000 0.000000
vn 1.000000 0.000000 0.000000
vn 1.000000 0.000000 0.000000
vn 1.000000 0.000000 0.000000
vn -1.000000 0.000000 0.000000
vn -1.000000 0.000000 0.000000
vn -1.000000 0.000000 0.000000
vn -1.000000 0.000000 0.000000
vn -1.000000 0.000000 0.000000
vn -1.000000 0.000000 0.000000
vn -1.000000 0.000000 0.000000
vn -1.000000 0.000000 0.000000
vn 0.000000 0.517877 -0.855455
vn 0.000000 0.517877 -0.855455
vn 0.000000 0.124066 -0.992274
vn 0.000000 0.124066 -0.992274
vn 1.000000 0.000000 0.000000
vn 1.000000 0.000000 0.000000
vn 1.000000 0.000000 0.000000
vn 1.000000 0.000000 0.000000
vn 0.000000 -0.121805 0.992554
vn 0.000000 -0.121805 0.992554
vn 0.000000 -0.503746 0.863852
vn 0.000000 -0.503746 0.863852
s off
g SM_BigFence_Pole_Placeholder:pCube5fenceL
usemtl Stone_LOW:standardSurface2SG
f 9/1/1 1/2/2 2/3/3 12/4/4
f 3/5/5 4/6/6 6/13/7 5/17/8
f 8/16/9 7/10/10 10/11/11 11/12/12
f 2/3/13 8/9/14 11/15/15 12/4/16
f 7/10/17 1/2/18 9/1/19 10/11/20
f 10/11/21 9/1/22 3/5/23 5/8/24
f 5/8/25 6/14/26 11/12/27 10/11/28
f 12/4/29 11/15/30 6/7/31 4/6/32
f 9/1/33 12/4/34 4/6/35 3/5/36
