# This file uses centimeters as units for non-parametric coordinates.

mtllib HouseDoor_SM.mtl
g default
v -41.851852 0.000000 5.000000
v 41.851852 0.000000 5.000000
v -41.851852 200.000000 5.000000
v 41.851852 200.000000 5.000000
v -49.385181 208.999985 5.000000
v 49.385181 208.999985 5.000000
v 49.385181 208.999985 -5.000000
v -49.385181 208.999985 -5.000000
v 49.385181 0.000000 -5.000000
v 49.385181 0.000000 5.000000
v -49.385181 0.000000 -5.000000
v -49.385181 0.000000 5.000000
v -41.851852 0.000000 0.000000
v 41.851852 0.000000 0.000000
v 41.851852 200.000000 0.000000
v -41.851852 200.000000 0.000000
vt 0.309736 0.580170
vt 0.006684 0.004869
vt 0.770264 0.691961
vt 0.309732 0.549887
vt 0.791325 0.610523
vt 0.342638 0.339714
vt 0.791164 0.640092
vt 0.364992 0.567417
vt 0.309416 0.661672
vt 0.309486 0.638625
vt 0.309578 0.632102
vt 0.309648 0.609055
vt 0.770636 0.593097
vt 0.321843 0.357012
vt 0.309363 0.679034
vt 0.309701 0.591693
vt 0.321256 0.549922
vt 0.770299 0.680438
vt 0.341945 0.567347
vt 0.791094 0.663139
vt 0.791255 0.633569
vt 0.365685 0.339784
vt 0.467031 0.199183
vt 0.770671 0.581574
vt 0.006096 0.197779
vt 0.467619 0.006273
vt 0.310320 0.356977
vt 0.309328 0.690557
vn 0.000000 0.000000 1.000000
vn 0.000000 0.000000 1.000000
vn 0.000000 0.000000 1.000000
vn 0.000000 0.000000 1.000000
vn 0.000000 1.000000 0.000000
vn 0.000000 1.000000 0.000000
vn 0.000000 1.000000 0.000000
vn 0.000000 1.000000 0.000000
vn 1.000000 0.000000 0.000000
vn 1.000000 0.000000 0.000000
vn 1.000000 0.000000 0.000000
vn 1.000000 0.000000 0.000000
vn -1.000000 0.000000 0.000000
vn -1.000000 0.000000 0.000000
vn -1.000000 0.000000 0.000000
vn -1.000000 0.000000 0.000000
vn 0.000000 0.000000 1.000000
vn 0.000000 0.000000 1.000000
vn 0.000000 0.000000 1.000000
vn 0.000000 0.000000 1.000000
vn 0.000000 0.000000 1.000000
vn 0.000000 0.000000 1.000000
vn 0.000000 0.000000 1.000000
vn 0.000000 0.000000 1.000000
vn 0.000000 0.000000 1.000000
vn 0.000000 0.000000 1.000000
vn 0.000000 0.000000 1.000000
vn 0.000000 0.000000 1.000000
vn -1.000000 0.000000 0.000000
vn -1.000000 0.000000 0.000000
vn -1.000000 0.000000 0.000000
vn -1.000000 0.000000 0.000000
vn 0.000000 -1.000000 0.000000
vn 0.000000 -1.000000 0.000000
vn 0.000000 -1.000000 0.000000
vn 0.000000 -1.000000 0.000000
vn 1.000000 0.000000 0.000000
vn 1.000000 0.000000 0.000000
vn 1.000000 0.000000 0.000000
vn 1.000000 0.000000 0.000000
s off
g SM_Door_Placeholder:pCube10
usemtl Stone_LOW:standardSurface2SG
f 13/25/1 14/2/2 15/26/3 16/23/4
f 5/19/5 6/6/6 7/22/7 8/8/8
f 10/9/9 9/10/10 7/7/11 6/20/12
f 11/11/13 12/12/14 5/5/15 8/21/16
f 3/17/17 4/14/18 6/6/19 5/19/20
f 4/18/21 2/15/22 10/9/23 6/20/24
f 1/16/25 3/13/26 5/5/27 12/12/28
f 2/15/29 4/18/30 15/3/31 14/28/32
f 4/14/33 3/17/34 16/4/35 15/27/36
f 3/13/37 1/16/38 13/1/39 16/24/40
