# This file uses centimeters as units for non-parametric coordinates.

mtllib HouseWall_SM.mtl
g default
v -50.000000 -50.480766 13.978624
v 50.000000 -50.480766 13.978624
v -50.000000 246.735901 13.978624
v 50.000000 246.735901 13.978624
v -50.000000 246.735901 -13.978624
v 50.000000 246.735901 -13.978624
v -50.000000 -50.480766 -13.978624
v 50.000000 -50.480766 -13.978624
vt 0.068395 0.308618
vt 0.298864 0.308618
vt 0.307944 0.700284
vt 0.068395 0.993609
vt 0.003962 0.993609
vt 0.307944 0.764717
vt 0.992935 0.764717
vt 0.992935 0.995186
vt 0.003962 0.308618
vt 0.307944 0.995186
vt 0.992935 0.700284
vt 0.298864 0.993609
vn 0.000000 0.000000 1.000000
vn 0.000000 0.000000 1.000000
vn 0.000000 0.000000 1.000000
vn 0.000000 0.000000 1.000000
vn 0.000000 0.000000 -1.000000
vn 0.000000 0.000000 -1.000000
vn 0.000000 0.000000 -1.000000
vn 0.000000 0.000000 -1.000000
vn 1.000000 0.000000 0.000000
vn 1.000000 0.000000 0.000000
vn 1.000000 0.000000 0.000000
vn 1.000000 0.000000 0.000000
vn -1.000000 0.000000 0.000000
vn -1.000000 0.000000 0.000000
vn -1.000000 0.000000 0.000000
vn -1.000000 0.000000 0.000000
s off
g SM_Wall_Placeholder:pCube8
usemtl SM_SmallFence_Pole_Placeholder:standardSurface1SG
f 1/1/1 2/2/2 4/12/3 3/4/4
f 5/10/5 6/6/6 8/7/7 7/8/8
f 2/11/9 8/7/10 6/6/11 4/3/12
f 7/9/13 1/1/14 3/4/15 5/5/16
