# This file uses centimeters as units for non-parametric coordinates.

mtllib Stone_L_SM.mtl
g default
v -31.044817 44.986702 32.706608
v -5.202793 73.642494 32.037979
v -7.421758 85.784973 6.748316
v -41.139709 60.639221 -20.423885
v -50.031986 36.002716 0.554124
v -0.409321 86.387848 3.316451
v -39.851894 59.689011 -25.264166
v -7.752258 69.865791 -33.699165
v -40.520046 30.257486 -44.600887
v -49.808899 24.051537 -7.737240
v -44.231224 15.838699 -45.386333
v -0.663040 50.975376 -50.142612
v 7.606855 64.702164 -44.512264
v -40.816910 15.052486 7.800081
v -27.924797 40.261421 36.600719
v -26.196753 17.538162 32.009918
v 22.620258 68.700562 44.937382
v 38.694759 76.840492 25.101294
v 28.738678 69.383736 42.742874
v 19.971876 80.637848 11.106333
v 39.560703 69.826035 -15.793186
v 42.789993 68.647942 -7.157070
v 43.836208 72.869194 19.382660
v 31.489582 62.515930 -40.858768
v 53.650875 43.355087 23.895208
v 30.777159 57.529053 46.350674
v 51.131702 31.489464 39.894505
v 47.019878 31.421951 44.499821
v 12.710069 1.287029 34.959908
v 32.212105 17.734131 42.287807
v 47.581696 16.232573 22.705858
v 42.519730 -3.051690 -1.796615
v 14.596733 -1.710454 26.547617
v 37.034702 -5.712617 -0.476609
v 49.225826 19.583481 5.693218
v 48.039021 5.602279 -15.915285
v 32.181316 41.565041 -45.745544
v 40.387802 22.442097 -32.395958
v 11.232668 35.571995 -51.400005
v -31.849346 7.847499 -48.357845
v 1.284756 20.470316 -51.743774
v -22.138365 1.836246 -9.601154
v -17.464527 -0.927971 -37.447826
v 11.714422 -3.719956 -30.254200
v 8.062965 10.208293 -42.296410
vt 0.806122 0.765279
vt 0.770894 0.636075
vt 0.693726 0.680210
vt 0.711837 0.727885
vt 0.849059 0.704038
vt 0.700942 0.737983
vt 0.808351 0.777483
vt 0.742237 0.807214
vt 0.851094 0.848762
vt 0.877630 0.866754
vt 0.427099 0.179896
vt 0.877360 0.724453
vt 0.747310 0.862459
vt 0.474230 0.178892
vt 0.540047 0.193232
vt 0.720846 0.837394
vt 0.866383 0.649984
vt 0.794942 0.573742
vt 0.763692 0.622497
vt 0.622063 0.663978
vt 0.655660 0.734015
vt 0.619392 0.789324
vt 0.632977 0.801142
vt 0.613454 0.721931
vt 0.602966 0.738304
vt 0.610348 0.670303
vt 0.707389 0.063530
vt 0.672908 0.843606
vt 0.665118 0.098807
vt 0.606335 0.118616
vt 0.538071 0.764373
vt 0.590562 0.652213
vt 0.593724 0.101419
vt 0.581672 0.019408
vt 0.500652 0.739890
vt 0.568166 0.579508
vt 0.620393 0.551112
vt 0.687622 0.517031
vt 0.494671 0.829724
vt 0.537254 0.858360
vt 0.541941 0.941325
vt 0.577510 0.922247
vt 0.474242 0.111676
vt 0.631335 0.907860
vt 0.674964 0.879549
vt 0.489381 0.019554
vt 0.723261 0.895024
vt 0.847737 0.918131
vt 0.431440 0.061011
vt 0.386621 0.076429
vt 0.370668 0.107854
vt 0.591100 0.008185
vt 0.657814 0.040818
vt 0.749898 0.926342
vt 0.548370 0.958024
vt 0.685816 0.992859
vt 0.719405 0.951466
vt 0.707808 0.077990
vt 0.798951 0.973867
vt 0.502607 0.720064
vn -0.709375 0.621851 0.331796
vn -0.709375 0.621851 0.331796
vn -0.709375 0.621851 0.331796
vn -0.709375 0.621851 0.331796
vn -0.780073 0.544307 0.308571
vn -0.780073 0.544307 0.308571
vn -0.780073 0.544307 0.308571
vn -0.332596 0.867393 -0.370147
vn -0.332596 0.867393 -0.370147
vn -0.332596 0.867393 -0.370147
vn -0.332596 0.867393 -0.370147
vn -0.361607 0.875965 -0.319257
vn -0.361607 0.875965 -0.319257
vn -0.361607 0.875965 -0.319257
vn -0.959701 0.162742 -0.229105
vn -0.959701 0.162742 -0.229105
vn -0.959701 0.162742 -0.229105
vn -0.959701 0.162742 -0.229105
vn -0.957827 0.198282 -0.207971
vn -0.957827 0.198282 -0.207971
vn -0.957827 0.198282 -0.207971
vn -0.957827 0.198282 -0.207971
vn -0.372499 0.519775 -0.768816
vn -0.372499 0.519775 -0.768816
vn -0.372499 0.519775 -0.768816
vn -0.372499 0.519775 -0.768816
vn -0.360749 0.531651 -0.766295
vn -0.360749 0.531651 -0.766295
vn -0.360749 0.531651 -0.766295
vn -0.842347 -0.197012 0.501636
vn -0.846991 -0.188465 0.497078
vn -0.893009 -0.267666 0.361786
vn -0.846991 -0.188465 0.497078
vn -0.832825 -0.165217 0.528304
vn -0.832829 -0.160543 0.529737
vn -0.832829 -0.160543 0.529737
vn -0.842347 -0.197012 0.501636
vn -0.832825 -0.165217 0.528304
vn -0.846991 -0.188465 0.497078
vn -0.355644 0.359976 0.862517
vn -0.355644 0.359976 0.862517
vn -0.355644 0.359976 0.862517
vn -0.355644 0.359976 0.862517
vn 0.051810 0.927962 0.369057
vn 0.041225 0.926321 0.374473
vn 0.103144 0.902674 0.417781
vn 0.103144 0.902674 0.417781
vn 0.013719 0.943265 0.331757
vn 0.041225 0.926321 0.374473
vn 0.051810 0.927962 0.369057
vn 0.353112 0.928363 -0.115996
vn 0.353112 0.928363 -0.115996
vn 0.353112 0.928363 -0.115996
vn 0.353112 0.928363 -0.115996
vn 0.361888 0.913468 -0.186048
vn 0.361888 0.913468 -0.186048
vn 0.361888 0.913468 -0.186048
vn 0.361888 0.913468 -0.186048
vn -0.074224 0.932891 0.352427
vn 0.041225 0.926321 0.374473
vn -0.029909 0.939095 0.342354
vn -0.029909 0.939095 0.342354
vn 0.041225 0.926321 0.374473
vn 0.013719 0.943265 0.331757
vn 0.147533 0.909858 -0.387805
vn 0.147533 0.909858 -0.387805
vn 0.147533 0.909858 -0.387805
vn 0.147533 0.909858 -0.387805
vn 0.134447 0.938818 -0.317088
vn 0.134447 0.938818 -0.317088
vn 0.134447 0.938818 -0.317088
vn 0.949273 0.302592 -0.085550
vn 0.949273 0.302592 -0.085550
vn 0.949273 0.302592 -0.085550
vn 0.771474 0.324871 0.547071
vn 0.771474 0.324871 0.547071
vn 0.771474 0.324871 0.547070
vn 0.771474 0.324871 0.547071
vn 0.755718 0.408078 0.512213
vn 0.755718 0.408078 0.512213
vn 0.755718 0.408078 0.512213
vn 0.755718 0.408078 0.512213
vn 0.686232 0.383109 0.618314
vn 0.686232 0.383109 0.618314
vn 0.686232 0.383109 0.618314
vn 0.287195 0.323744 0.901504
vn 0.287195 0.323744 0.901504
vn 0.287195 0.323744 0.901504
vn -0.125492 -0.128816 0.983696
vn -0.125492 -0.128816 0.983696
vn -0.125492 -0.128816 0.983696
vn -0.125492 -0.128816 0.983696
vn -0.137513 -0.154912 0.978311
vn -0.149945 -0.157329 0.976096
vn -0.143002 -0.128674 0.981322
vn -0.143002 -0.128674 0.981322
vn -0.149945 -0.157329 0.976096
vn -0.173047 -0.038631 0.984156
vn -0.173047 -0.038631 0.984156
vn -0.149945 -0.157329 0.976096
vn -0.167991 -0.228098 0.959036
vn 0.553363 -0.676589 0.485816
vn 0.553363 -0.676589 0.485816
vn 0.553363 -0.676589 0.485816
vn 0.553363 -0.676589 0.485816
vn 0.481634 -0.743867 0.463347
vn 0.481634 -0.743867 0.463347
vn 0.481634 -0.743867 0.463347
vn 0.481634 -0.743867 0.463347
vn 0.404242 -0.803899 0.436275
vn 0.404242 -0.803899 0.436275
vn 0.404242 -0.803899 0.436275
vn 0.404242 -0.803899 0.436275
vn 0.975425 -0.219233 0.021963
vn 0.975425 -0.219233 0.021962
vn 0.975425 -0.219233 0.021963
vn 0.975425 -0.219233 0.021962
vn 0.945066 -0.312124 0.097102
vn 0.945066 -0.312124 0.097102
vn 0.945066 -0.312124 0.097102
vn 0.945066 -0.312124 0.097102
vn 0.950349 0.043974 -0.308063
vn 0.950349 0.043974 -0.308063
vn 0.950349 0.043974 -0.308063
vn 0.950349 0.043974 -0.308063
vn 0.960237 0.127236 -0.248507
vn 0.960237 0.127236 -0.248507
vn 0.960237 0.127236 -0.248507
vn 0.960237 0.127236 -0.248507
vn 0.926917 0.131602 -0.351434
vn 0.943446 0.146704 -0.297300
vn 0.913485 0.120785 -0.388532
vn 0.926917 0.131602 -0.351434
vn 0.946340 0.149640 -0.286441
vn 0.943446 0.146704 -0.297300
vn 0.185605 0.247819 -0.950861
vn 0.185605 0.247819 -0.950861
vn 0.185605 0.247819 -0.950861
vn 0.185605 0.247819 -0.950861
vn 0.192794 0.226821 -0.954664
vn 0.192794 0.226821 -0.954664
vn 0.192794 0.226821 -0.954664
vn -0.152959 0.070311 -0.985728
vn -0.152982 0.070344 -0.985722
vn -0.172177 0.097711 -0.980208
vn -0.144128 0.067878 -0.987228
vn -0.146573 0.068302 -0.986839
vn -0.152982 0.070344 -0.985722
vn -0.152959 0.070311 -0.985728
vn -0.041051 0.049758 -0.997917
vn -0.146573 0.068302 -0.986839
vn -0.144128 0.067878 -0.987228
vn -0.632445 -0.774056 0.029158
vn -0.632445 -0.774056 0.029158
vn -0.632445 -0.774056 0.029158
vn -0.632445 -0.774056 0.029158
vn -0.552545 -0.833432 0.009180
vn -0.552545 -0.833432 0.009180
vn -0.552545 -0.833432 0.009180
vn -0.552545 -0.833432 0.009180
vn -0.371913 -0.882543 0.287749
vn -0.377679 -0.881146 0.284499
vn -0.377679 -0.881146 0.284499
vn -0.373412 -0.882184 0.286906
vn -0.371913 -0.882543 0.287749
vn -0.373412 -0.882184 0.286906
vn -0.347710 -0.887924 0.301145
vn -0.134756 -0.989328 0.055415
vn -0.134756 -0.989328 0.055415
vn -0.134756 -0.989328 0.055415
vn -0.134756 -0.989328 0.055415
vn -0.099675 -0.994854 0.018181
vn -0.099675 -0.994854 0.018181
vn -0.099675 -0.994854 0.018181
vn 0.360660 -0.856034 -0.370312
vn 0.360660 -0.856034 -0.370312
vn 0.360660 -0.856034 -0.370312
vn 0.360660 -0.856034 -0.370312
vn 0.399447 -0.343348 -0.850032
vn 0.399447 -0.343348 -0.850032
vn 0.399447 -0.343348 -0.850032
vn 0.399447 -0.343348 -0.850032
vn 0.424658 -0.522213 -0.739567
vn 0.422096 -0.505041 -0.752841
vn 0.413485 -0.453661 -0.789444
vn 0.425249 -0.526346 -0.736290
vn 0.425249 -0.526346 -0.736290
vn 0.422096 -0.505041 -0.752841
vn 0.424658 -0.522213 -0.739567
vn 0.152379 -0.637868 -0.754920
vn 0.152379 -0.637868 -0.754920
vn 0.152379 -0.637868 -0.754920
vn 0.152379 -0.637868 -0.754920
vn 0.128809 -0.629045 -0.766623
vn 0.128809 -0.629045 -0.766623
vn 0.128809 -0.629045 -0.766623
s off
g Stone_LOW:pCube3
usemtl standardSurface2SG
f 4/1/1 1/2/2 2/3/3 3/4/4
f 1/2/5 4/1/6 5/5/7
f 4/1/8 3/4/9 6/6/10 7/7/11
f 7/7/12 6/6/13 8/8/14
f 4/1/15 7/7/16 9/9/17 5/5/18
f 5/5/19 9/9/20 11/10/21 10/12/22
f 9/9/23 7/7/24 8/8/25 12/13/26
f 12/13/27 8/8/28 13/16/29
f 14/17/30 5/5/31 10/12/32
f 5/5/33 16/18/34 15/19/35 1/2/36
f 14/17/37 16/18/38 5/5/39
f 2/3/40 1/2/41 15/19/42 17/20/43
f 2/3/44 20/21/45 6/6/46 3/4/47
f 17/20/48 20/21/49 2/3/50
f 6/6/51 20/21/52 22/22/53 21/23/54
f 20/21/55 18/24/56 23/25/57 22/22/58
f 18/24/59 20/21/60 19/26/61
f 19/26/62 20/21/63 17/20/64
f 13/16/65 8/8/66 6/6/67 21/23/68
f 13/16/69 21/23/70 24/28/71
f 22/22/72 23/25/73 25/31/74
f 18/24/75 19/26/76 25/31/77 23/25/78
f 25/31/79 19/26/80 26/32/81 27/35/82
f 27/35/83 26/32/84 28/60/85
f 19/26/86 17/20/87 26/32/88
f 15/19/89 16/18/90 26/32/91 17/20/92
f 26/32/93 16/18/94 28/36/95
f 28/36/96 16/18/97 30/37/98
f 30/37/99 16/18/100 29/38/101
f 28/58/102 30/29/103 31/53/104 27/27/105
f 31/53/106 30/29/107 29/30/108 32/52/109
f 32/52/110 29/30/111 33/33/112 34/34/113
f 27/35/114 31/39/115 35/40/116 25/31/117
f 31/39/118 32/41/119 36/42/120 35/40/121
f 21/23/122 22/22/123 25/31/124 35/40/125
f 24/28/126 21/23/127 35/40/128 36/42/129
f 24/28/130 38/44/131 37/45/132
f 24/28/133 36/42/134 38/44/135
f 12/13/136 13/16/137 24/28/138 37/45/139
f 12/13/140 37/45/141 39/47/142
f 9/9/143 40/48/144 11/10/145
f 12/13/146 41/54/147 40/48/148 9/9/149
f 39/47/150 41/54/151 12/13/152
f 14/14/153 10/11/154 11/51/155 40/50/156
f 14/14/157 40/50/158 43/49/159 42/43/160
f 42/43/161 33/33/162 29/30/163 16/15/164
f 42/43/165 16/15/166 14/14/167
f 34/34/168 33/33/169 42/43/170 43/49/171
f 34/34/172 43/49/173 44/46/174
f 36/42/175 32/41/176 34/55/177 44/56/178
f 37/45/179 38/44/180 41/54/181 39/47/182
f 38/44/183 45/57/184 41/54/185
f 36/42/186 44/56/187 45/57/188 38/44/189
f 43/59/190 40/48/191 41/54/192 45/57/193
f 43/59/194 45/57/195 44/56/196
