# This file uses centimeters as units for non-parametric coordinates.

mtllib Stone_S_SM.mtl
g default
v 16.030645 23.012573 11.848145
v 11.605569 36.751877 7.213196
v 13.784369 26.726345 -21.665146
v 16.248978 19.533142 -20.331818
v 9.956511 25.554592 -27.681732
v 10.372724 19.533142 -29.496048
v 14.486668 4.411086 -14.854752
v 5.395249 5.523332 -30.362274
v 16.182432 14.706918 -17.885345
v 11.511121 36.597721 0.920410
v 16.139811 20.640717 -4.845428
v 15.557404 17.921778 15.201614
v 12.219422 -0.645833 -6.765152
v 6.905141 39.293724 10.586166
v 1.471517 41.869240 5.772064
v 4.513147 26.970579 -27.664337
v -2.282188 30.174772 -20.370255
v -14.136050 11.282495 -25.080399
v -12.356253 4.971163 -26.061295
v -3.095362 0.070830 -29.319962
v -3.946271 -1.050687 -26.517242
v 10.387890 -1.742272 -6.627487
v 7.505002 8.194168 12.623703
v 2.971439 0.959468 7.435883
v 13.756874 17.219944 16.907501
v 10.502942 13.277612 16.608475
v 8.743535 27.080488 15.255280
v 2.616445 39.508320 8.522827
v -3.976172 24.673382 10.231537
v -15.658731 29.032982 -3.492142
v -17.013813 23.521521 -15.847092
v -3.931119 16.047222 12.940018
v -6.778053 15.521388 11.693192
v -7.652257 2.786181 4.519058
v -10.937320 1.075623 -21.680359
v -11.066511 3.714733 0.000000
vt 0.813795 0.533118
vt 0.823335 0.493132
vt 0.858363 0.486700
vt 0.863086 0.502782
vt 0.807660 0.010828
vt 0.791971 0.016491
vt 0.852371 0.476794
vt 0.880881 0.441004
vt 0.841801 0.455240
vt 0.786283 0.502196
vt 0.799587 0.534413
vt 0.776075 0.491496
vt 0.822075 0.445497
vt 0.777670 0.145568
vt 0.786024 0.165006
vt 0.791111 0.030706
vt 0.785413 0.060391
vt 0.840082 0.055469
vt 0.876992 0.413765
vt 0.853644 0.051802
vt 0.821239 0.441293
vt 0.874301 0.038763
vt 0.874575 0.167094
vt 0.890287 0.145506
vt 0.770671 0.490398
vt 0.859891 0.180273
vt 0.821074 0.178725
vt 0.785612 0.153012
vt 0.825990 0.146435
vt 0.813360 0.107486
vt 0.820362 0.080330
vt 0.848515 0.148380
vt 0.849116 0.141706
vt 0.879708 0.120237
vt 0.870618 0.109371
vt 0.863608 0.058559
vt 0.786320 0.406338
vt 0.869539 0.410300
vt 0.785547 0.436458
vt 0.774153 0.518253
vt 0.850031 0.189003
vt 0.790910 0.547630
vt 0.768274 0.478140
vt 0.774375 0.460906
vt 0.866986 0.031431
vt 0.848244 0.011241
vt 0.874425 0.539119
vt 0.807063 0.562396
vt 0.885029 0.515927
vt 0.880658 0.503283
vt 0.884241 0.484041
vn 0.954393 0.297416 -0.026044
vn 0.954393 0.297416 -0.026044
vn 0.954393 0.297416 -0.026044
vn 0.954393 0.297416 -0.026044
vn 0.818851 0.198120 -0.538731
vn 0.818851 0.198120 -0.538731
vn 0.818851 0.198120 -0.538731
vn 0.818851 0.198120 -0.538731
vn 0.815220 -0.261651 -0.516677
vn 0.815220 -0.261651 -0.516677
vn 0.816462 -0.268613 -0.511114
vn 0.816500 -0.268837 -0.510934
vn 0.816500 -0.268837 -0.510934
vn 0.816462 -0.268613 -0.511114
vn 0.818684 -0.282072 -0.500192
vn 0.955721 0.292580 -0.031540
vn 0.954813 0.295908 -0.027760
vn 0.955272 0.294237 -0.029660
vn 0.955721 0.292580 -0.031540
vn 0.999921 -0.009858 0.007754
vn 0.999921 -0.009858 0.007754
vn 0.999921 -0.009858 0.007754
vn 0.987687 -0.152814 0.033506
vn 0.989747 -0.139253 0.031759
vn 0.995936 -0.086536 0.024943
vn 0.995936 -0.086536 0.024943
vn 0.989747 -0.139253 0.031759
vn 0.998115 -0.057600 0.021185
vn 0.998115 -0.057600 0.021185
vn 0.955321 -0.280821 0.092200
vn 0.955321 -0.280821 0.092200
vn 0.955321 -0.280821 0.092200
vn 0.454142 0.890357 -0.031931
vn 0.454142 0.890357 -0.031931
vn 0.454142 0.890357 -0.031931
vn 0.454142 0.890357 -0.031931
vn 0.292241 0.886713 -0.358239
vn 0.292241 0.886713 -0.358239
vn 0.292241 0.886713 -0.358239
vn 0.292241 0.886713 -0.358239
vn 0.107320 0.911743 -0.396494
vn 0.107320 0.911743 -0.396494
vn 0.107320 0.911743 -0.396494
vn 0.107320 0.911743 -0.396494
vn 0.073002 0.292350 -0.953521
vn 0.073002 0.292350 -0.953521
vn 0.073002 0.292350 -0.953521
vn -0.212992 0.113318 -0.970461
vn -0.212992 0.113318 -0.970461
vn -0.212992 0.113318 -0.970460
vn -0.212992 0.113318 -0.970461
vn -0.237294 0.130341 -0.962654
vn -0.237294 0.130341 -0.962654
vn -0.237294 0.130341 -0.962654
vn -0.237294 0.130341 -0.962654
vn 0.461699 -0.820168 -0.337873
vn 0.468308 -0.815027 -0.341201
vn 0.485610 -0.801106 -0.349875
vn 0.485610 -0.801106 -0.349875
vn 0.461699 -0.820168 -0.337873
vn 0.389647 -0.870367 -0.301060
vn 0.389647 -0.870367 -0.301060
vn 0.468308 -0.815027 -0.341201
vn 0.561251 -0.698202 0.444423
vn 0.561251 -0.698202 0.444423
vn 0.561251 -0.698202 0.444423
vn 0.561251 -0.698202 0.444423
vn 0.628926 -0.638263 0.443928
vn 0.640314 -0.639176 0.425972
vn 0.631178 -0.638464 0.440429
vn 0.631178 -0.638464 0.440429
vn 0.640314 -0.639176 0.425972
vn 0.684920 -0.639846 0.348541
vn 0.684920 -0.639846 0.348541
vn 0.641394 0.409774 0.648613
vn 0.641394 0.409774 0.648613
vn 0.641394 0.409774 0.648613
vn 0.641394 0.409774 0.648613
vn 0.516956 0.380109 0.766990
vn 0.516956 0.380109 0.766990
vn 0.516956 0.380109 0.766990
vn 0.516956 0.380109 0.766990
vn -0.299040 0.659037 0.690105
vn -0.299040 0.659037 0.690105
vn -0.299040 0.659037 0.690105
vn -0.399786 0.276345 0.873959
vn -0.399786 0.276345 0.873959
vn -0.399786 0.276345 0.873959
vn -0.399786 0.276345 0.873959
vn -0.649941 0.377029 0.659868
vn -0.649942 0.377029 0.659868
vn -0.649941 0.377029 0.659868
vn -0.649942 0.377029 0.659868
vn -0.462102 0.830871 -0.310025
vn -0.462102 0.830871 -0.310025
vn -0.462102 0.830871 -0.310025
vn -0.462102 0.830871 -0.310025
vn -0.479493 0.483447 -0.732370
vn -0.479493 0.483447 -0.732370
vn -0.479493 0.483447 -0.732370
vn -0.479493 0.483447 -0.732370
vn -0.222600 0.066977 0.972606
vn -0.222600 0.066977 0.972606
vn -0.222600 0.066977 0.972606
vn -0.222600 0.066977 0.972606
vn -0.403223 0.272214 0.873677
vn -0.403223 0.272214 0.873677
vn -0.403223 0.272214 0.873677
vn -0.403223 0.272214 0.873677
vn -0.671860 0.312909 0.671336
vn -0.671860 0.312909 0.671336
vn -0.671860 0.312909 0.671336
vn -0.297493 -0.466773 0.832839
vn -0.297493 -0.466773 0.832839
vn -0.297493 -0.466773 0.832839
vn -0.297493 -0.466773 0.832839
vn -0.294003 -0.444259 0.846284
vn -0.294003 -0.444259 0.846284
vn -0.294003 -0.444259 0.846284
vn -0.294003 -0.444259 0.846284
vn -0.186239 -0.977819 0.095836
vn -0.186239 -0.977819 0.095836
vn -0.186239 -0.977819 0.095836
vn -0.186239 -0.977819 0.095836
vn -0.277629 -0.955757 0.097212
vn -0.277629 -0.955757 0.097212
vn -0.277629 -0.955757 0.097212
vn -0.277629 -0.955757 0.097212
vn -0.881192 -0.130075 0.454512
vn -0.881192 -0.130075 0.454512
vn -0.881192 -0.130075 0.454512
vn -0.881192 -0.130075 0.454512
vn -0.971242 -0.221250 0.087966
vn -0.971242 -0.221250 0.087966
vn -0.971242 -0.221250 0.087966
vn -0.971242 -0.221250 0.087966
vn -0.534581 -0.712127 -0.455080
vn -0.534581 -0.712127 -0.455080
vn -0.534581 -0.712127 -0.455080
vn -0.534581 -0.712127 -0.455080
vn -0.958259 -0.277801 0.067568
vn -0.958259 -0.277801 0.067568
vn -0.958259 -0.277801 0.067568
vn -0.958259 -0.277801 0.067568
s off
g Stone_LOW:pCube2
usemtl standardSurface2SG
f 10/1/1 11/2/2 4/3/3 3/4/4
f 3/4/5 4/3/6 6/51/7 5/50/8
f 6/51/9 4/3/10 9/7/11 8/8/12
f 8/8/13 9/7/14 7/9/15
f 1/10/16 11/2/17 10/1/18 2/11/19
f 9/7/20 4/3/21 11/2/22
f 7/9/23 9/7/24 12/12/25
f 12/12/26 9/7/27 11/2/28 1/10/29
f 7/9/30 12/12/31 13/13/32
f 2/11/33 10/1/34 15/48/35 14/42/36
f 3/4/37 5/50/38 15/48/39 10/1/40
f 15/48/41 5/50/42 16/49/43 17/47/44
f 16/16/45 5/6/46 6/5/47
f 16/16/48 6/5/49 8/46/50 18/18/51
f 18/18/52 8/46/53 20/45/54 19/20/55
f 13/13/56 20/19/57 8/8/58 7/9/59
f 13/13/60 22/21/61 21/38/62 20/19/63
f 22/21/64 13/13/65 23/44/66 24/39/67
f 13/13/68 12/12/69 23/44/70
f 23/44/71 12/12/72 25/25/73 26/43/74
f 12/12/75 1/10/76 2/11/77 14/42/78
f 12/12/79 14/42/80 27/40/81 25/25/82
f 14/15/83 15/14/84 28/28/85
f 14/15/86 28/28/87 29/29/88 27/27/89
f 28/28/90 15/14/91 30/30/92 29/29/93
f 30/30/94 15/14/95 17/17/96 31/31/97
f 16/16/98 18/18/99 31/31/100 17/17/101
f 26/26/102 25/41/103 27/27/104 32/32/105
f 27/27/106 29/29/107 33/33/108 32/32/109
f 33/33/110 29/29/111 30/30/112
f 23/23/113 26/26/114 32/32/115 33/33/116
f 23/23/117 33/33/118 34/34/119 24/24/120
f 21/38/121 22/21/122 24/39/123 34/37/124
f 21/22/125 34/34/126 36/35/127 35/36/128
f 33/33/129 30/30/130 36/35/131 34/34/132
f 30/30/133 31/31/134 35/36/135 36/35/136
f 19/20/137 20/45/138 21/22/139 35/36/140
f 18/18/141 19/20/142 35/36/143 31/31/144
