# Blender 4.0.2
# www.blender.org
mtllib car.mtl
g Cube.010_Cube.007
v 0.893689 0.231185 2.129585
v 0.893689 0.421568 -2.114305
v 0.732006 1.261842 -2.021897
v 0.893689 0.231185 -0.860726
v 0.713028 1.620604 -0.837397
v 0.713028 1.593425 0.273214
v 0.786426 1.163998 1.108538
v 0.893689 0.231185 1.146637
v 0.893689 0.294647 -1.726466
v 0.732006 1.283586 -1.578718
v 0.825536 1.073182 1.693023
v 0.883203 0.606455 2.105898
v 0.854940 0.878933 1.986097
v 0.839109 1.026463 -1.578718
v 0.836411 1.048532 -2.041022
v 0.828543 1.006085 -1.146861
v 0.841600 0.911272 1.152346
v 0.874675 0.498530 -1.684707
v 0.873462 0.656872 -1.117638
v 0.852621 0.679442 -1.436740
v 0.883575 0.471563 -0.921870
v 0.893689 0.231185 1.950246
v 0.872368 0.530871 1.256067
v 0.858985 0.676686 1.439134
v 0.870921 0.673457 1.724839
v 0.881269 0.520679 1.921189
v 0.770786 1.289625 -1.183200
v 0.713028 1.602754 -0.108004
v 0.826026 0.954834 -0.004945
v 0.856227 0.755935 -1.066913
v 0.889796 0.323718 -0.634697
v 0.887510 0.318448 0.026805
v 0.886788 0.318450 1.064801
v 0.728433 1.520333 -0.194394
v 0.810349 1.044483 -0.118732
v 0.813438 1.086776 -1.057972
v 0.775402 1.261245 -1.080387
v 0.728338 1.535005 -0.794461
v 0.825175 1.000266 1.037311
v 0.810851 1.036034 0.081642
v 0.729124 1.515540 0.005414
v 0.728631 1.509615 0.244677
v 0.796160 1.112102 1.017812
v 0.786187 1.040679 -0.118855
v 0.704272 1.516529 -0.194517
v 0.704177 1.531201 -0.794584
v 0.789277 1.082973 -1.058095
v 0.751240 1.257441 -1.080511
v 0.801030 0.996355 1.037279
v 0.786706 1.032123 0.081610
v 0.772015 1.108191 1.017781
v 0.704979 1.511629 0.005382
v 0.704486 1.505705 0.244645
v 0.695336 1.584987 0.289628
v 0.765850 1.172436 1.092124
v 0.695336 1.576019 0.284314
v 0.765850 1.163468 1.086810
v -0.893689 0.231185 2.129585
v -0.893689 0.421568 -2.114305
v -0.732006 1.261842 -2.021897
v -0.893689 0.231185 -0.860726
v -0.713028 1.620604 -0.837397
v -0.713028 1.593425 0.273214
v -0.786426 1.163998 1.108538
v -0.893689 0.231185 1.146637
v -0.893689 0.294647 -1.726466
v -0.732006 1.283586 -1.578718
v -0.825536 1.073182 1.693023
v -0.883203 0.606455 2.105898
v -0.854940 0.878933 1.986097
v -0.839109 1.026463 -1.578718
v -0.836411 1.048532 -2.041022
v -0.828543 1.006085 -1.146861
v -0.841600 0.911272 1.152346
v -0.874675 0.498530 -1.684707
v -0.873462 0.656872 -1.117638
v -0.852621 0.679442 -1.436740
v -0.883575 0.471563 -0.921870
v -0.893689 0.231185 1.950246
v -0.872368 0.530871 1.256067
v -0.858985 0.676686 1.439134
v -0.870921 0.673457 1.724839
v -0.881269 0.520679 1.921189
v -0.770786 1.289625 -1.183200
v -0.713028 1.602754 -0.108004
v -0.826026 0.954834 -0.004945
v -0.856227 0.755935 -1.066913
v -0.889796 0.323718 -0.634697
v -0.887510 0.318448 0.026805
v -0.886788 0.318450 1.064801
v -0.728433 1.520333 -0.194394
v -0.810349 1.044483 -0.118732
v -0.813438 1.086776 -1.057972
v -0.775402 1.261245 -1.080387
v -0.728338 1.535005 -0.794461
v -0.825175 1.000266 1.037311
v -0.810851 1.036034 0.081642
v -0.729124 1.515540 0.005414
v -0.728631 1.509615 0.244677
v -0.796160 1.112102 1.017812
v -0.786187 1.040679 -0.118855
v -0.704272 1.516529 -0.194517
v -0.704177 1.531201 -0.794584
v -0.789277 1.082973 -1.058095
v -0.751240 1.257441 -1.080511
v -0.801030 0.996355 1.037279
v -0.786706 1.032123 0.081610
v -0.772015 1.108191 1.017781
v -0.704979 1.511629 0.005382
v -0.704486 1.505705 0.244645
v -0.695336 1.584987 0.289628
v -0.765850 1.172436 1.092124
v -0.695336 1.576019 0.284314
v -0.765850 1.163468 1.086810
v 0.739344 1.022021 1.028517
v 0.739344 1.081094 1.028517
v 0.707364 1.022021 0.978848
v 0.707364 1.081094 0.978848
v 1.014339 1.081094 0.830903
v 0.991713 1.081094 0.795762
v 0.809401 1.022021 0.913149
v 0.809401 1.081094 0.913149
v 0.841381 1.022021 0.962817
v 0.841381 1.081094 0.962817
v 0.817197 1.149122 0.908129
v 0.832678 1.164952 0.898161
v 0.844235 1.164952 0.916111
v 0.831633 1.149122 0.930550
v 0.929622 1.157965 0.835741
v 0.962946 1.129634 0.814285
v 0.977184 1.129634 0.836398
v 0.941179 1.157965 0.853691
v 1.004175 1.022021 0.838655
v 1.014339 1.034764 0.830903
v 0.991713 1.034764 0.795762
v 0.980999 1.022021 0.802661
v -0.739344 1.022021 1.028517
v -0.739344 1.081094 1.028517
v -0.707364 1.022021 0.978848
v -0.707364 1.081094 0.978848
v -1.014339 1.081094 0.830903
v -0.991713 1.081094 0.795762
v -0.809402 1.022021 0.913149
v -0.809402 1.081094 0.913149
v -0.841382 1.022021 0.962817
v -0.841382 1.081094 0.962817
v -0.817197 1.149122 0.908129
v -0.832678 1.164952 0.898161
v -0.844235 1.164952 0.916111
v -0.831633 1.149122 0.930550
v -0.929622 1.157965 0.835741
v -0.962946 1.129634 0.814285
v -0.977184 1.129634 0.836398
v -0.941180 1.157965 0.853691
v -1.004175 1.022021 0.838655
v -1.014339 1.034764 0.830903
v -0.991713 1.034764 0.795762
v -0.980999 1.022021 0.802661
v 0.570413 0.311950 1.252760
v 0.811454 0.311950 1.252760
v 0.570413 0.121061 1.311883
v 0.811454 0.121061 1.311883
v 0.570413 0.001380 1.471916
v 0.811454 0.001380 1.471916
v 0.570413 -0.001379 1.671733
v 0.811454 -0.001379 1.671733
v 0.570413 0.113838 1.835010
v 0.811454 0.113838 1.835010
v 0.570413 0.303022 1.899380
v 0.811454 0.303022 1.899380
v 0.570413 0.493912 1.840258
v 0.811454 0.493912 1.840258
v 0.570413 0.613593 1.680224
v 0.811454 0.613593 1.680224
v 0.570413 0.616352 1.480408
v 0.811454 0.616352 1.480408
v 0.570413 0.501135 1.317131
v 0.811454 0.501135 1.317131
v 0.570413 0.311950 -1.618909
v 0.811454 0.311950 -1.618909
v 0.570413 0.121061 -1.559786
v 0.811454 0.121061 -1.559786
v 0.570413 0.001379 -1.399753
v 0.811454 0.001379 -1.399753
v 0.570413 -0.001380 -1.199936
v 0.811454 -0.001380 -1.199936
v 0.570413 0.113838 -1.036660
v 0.811454 0.113838 -1.036660
v 0.570413 0.303022 -0.972289
v 0.811454 0.303022 -0.972289
v 0.570413 0.493911 -1.031412
v 0.811454 0.493912 -1.031412
v 0.570413 0.613593 -1.191445
v 0.811454 0.613593 -1.191445
v 0.570413 0.616352 -1.391262
v 0.811454 0.616352 -1.391262
v 0.570413 0.501134 -1.554538
v 0.811454 0.501134 -1.554538
v -0.570413 0.311950 1.252760
v -0.811454 0.311950 1.252760
v -0.570413 0.121061 1.311883
v -0.811454 0.121061 1.311883
v -0.570413 0.001380 1.471916
v -0.811454 0.001380 1.471916
v -0.570413 -0.001379 1.671733
v -0.811454 -0.001379 1.671733
v -0.570413 0.113838 1.835010
v -0.811454 0.113838 1.835010
v -0.570413 0.303022 1.899380
v -0.811454 0.303022 1.899380
v -0.570413 0.493912 1.840258
v -0.811454 0.493912 1.840258
v -0.570413 0.613593 1.680224
v -0.811454 0.613593 1.680224
v -0.570413 0.616352 1.480408
v -0.811454 0.616352 1.480408
v -0.570413 0.501135 1.317131
v -0.811454 0.501135 1.317131
v -0.570413 0.311950 -1.618909
v -0.811454 0.311950 -1.618909
v -0.570413 0.121061 -1.559786
v -0.811454 0.121061 -1.559786
v -0.570413 0.001379 -1.399753
v -0.811454 0.001379 -1.399753
v -0.570413 -0.001380 -1.199936
v -0.811454 -0.001379 -1.199936
v -0.570413 0.113838 -1.036660
v -0.811454 0.113838 -1.036660
v -0.570413 0.303022 -0.972289
v -0.811454 0.303022 -0.972289
v -0.570413 0.493912 -1.031412
v -0.811454 0.493912 -1.031412
v -0.570413 0.613593 -1.191445
v -0.811454 0.613593 -1.191445
v -0.570413 0.616352 -1.391262
v -0.811454 0.616352 -1.391262
v -0.570413 0.501134 -1.554538
v -0.811454 0.501134 -1.554538
vn -0.0000 0.1098 -0.9940
vn -0.0000 0.0893 -0.9960
vn -0.0000 -0.0999 -0.9950
vn -0.0000 -0.1122 -0.9937
vn 0.9976 0.0682 -0.0091
vn 0.9969 0.0785 -0.0068
vn 0.9949 0.1001 -0.0093
vn 0.9950 0.0989 -0.0160
vn 0.9975 0.0692 -0.0136
vn 0.9969 0.0775 0.0114
vn 0.9972 0.0714 0.0216
vn 0.9851 0.1716 0.0087
vn 0.9922 0.1243 0.0048
vn 0.9956 0.0893 0.0298
vn 0.9944 0.1059 -0.0008
vn 0.9951 0.0985 0.0065
vn 0.9959 0.0903 0.0086
vn 0.9973 0.0732 0.0099
vn -0.0000 0.9860 -0.1665
vn -0.0000 0.9997 0.0245
vn -0.0000 0.9992 0.0407
vn 0.9967 0.0793 0.0156
vn 0.9846 0.1745 0.0106
vn -0.0000 -0.3430 0.9393
vn -0.0000 -0.5466 0.8374
vn -0.0000 0.9497 0.3130
vn -0.0000 0.6589 0.7523
vn -0.0000 0.9988 -0.0490
vn -0.0000 0.9574 -0.2888
vn -0.0000 0.0630 0.9980
vn -0.0000 0.2144 0.9767
vn -0.0000 0.8894 0.4572
vn -0.0000 -1.0000 -0.0000
vn -0.0000 0.1161 -0.9932
vn 0.9841 0.1771 -0.0105
vn 0.9852 0.1701 -0.0217
vn 0.9120 0.4102 -0.0026
vn 0.9423 0.3330 -0.0337
vn 0.9961 0.0887 0.0013
vn 0.9942 0.1072 0.0015
vn 0.9655 0.2574 -0.0400
vn 0.9760 0.2145 -0.0387
vn -0.0002 -0.5153 -0.8570
vn 0.0002 -0.5153 -0.8570
vn 0.0006 -0.2486 -0.9686
vn -0.0006 -0.2486 -0.9686
vn -0.0260 0.1526 0.9879
vn -0.0000 -0.2007 0.9797
vn -0.0000 -0.9999 -0.0113
vn -0.0000 -0.9507 -0.3100
vn -0.0000 -0.9975 -0.0706
vn -0.0000 -0.8078 0.5894
vn 0.0001 -0.7266 -0.6871
vn -0.0001 -0.7266 -0.6871
vn -0.0000 0.9849 0.1731
vn -0.0000 -0.9504 -0.3110
vn -0.0000 -0.7892 -0.6141
vn 0.1556 -0.9875 -0.0242
vn 0.9846 0.1750 0.0035
vn 0.9843 0.1763 0.0084
vn 0.9846 0.1749 0.0046
vn 0.9828 0.1845 0.0080
vn 0.9830 0.1835 -0.0012
vn 0.9845 0.1753 0.0019
vn 0.9842 0.1772 -0.0042
vn 0.9819 0.1891 -0.0043
vn 0.9846 0.1749 0.0021
vn 0.9836 0.1802 0.0056
vn 0.9836 0.1803 0.0056
vn 0.9822 0.1877 0.0063
vn 0.9839 0.1785 0.0050
vn 0.9830 0.1835 0.0013
vn -0.1556 0.9868 0.0439
vn 0.1599 -0.9868 -0.0241
vn 0.1487 -0.9152 -0.3746
vn 0.1494 -0.9151 -0.3746
vn -0.0243 0.1222 0.9922
vn -0.1598 0.9864 0.0393
vn 0.0290 -0.1521 -0.9879
vn 0.1424 -0.8752 -0.4624
vn 0.1081 -0.7091 0.6967
vn 0.0280 -0.1646 -0.9860
vn -0.0000 -0.5098 0.8603
vn -0.0005 -0.5098 0.8603
vn -0.9969 -0.0398 0.0671
vn -0.0000 0.5098 -0.8603
vn -0.9976 0.0682 -0.0091
vn -0.9975 0.0692 -0.0136
vn -0.9950 0.0989 -0.0160
vn -0.9949 0.1001 -0.0093
vn -0.9969 0.0785 -0.0068
vn -0.9969 0.0775 0.0114
vn -0.9922 0.1243 0.0048
vn -0.9851 0.1716 0.0087
vn -0.9972 0.0714 0.0216
vn -0.9956 0.0893 0.0298
vn -0.9973 0.0732 0.0099
vn -0.9959 0.0902 0.0086
vn -0.9951 0.0985 0.0065
vn -0.9944 0.1060 -0.0009
vn -0.9967 0.0793 0.0156
vn -0.9846 0.1745 0.0106
vn -0.9852 0.1701 -0.0217
vn -0.9841 0.1771 -0.0105
vn -0.9423 0.3330 -0.0337
vn -0.9120 0.4102 -0.0026
vn -0.9942 0.1072 0.0015
vn -0.9961 0.0887 0.0013
vn -0.9655 0.2574 -0.0400
vn -0.9760 0.2145 -0.0387
vn 0.0260 0.1526 0.9879
vn -0.1556 -0.9875 -0.0242
vn -0.9845 0.1753 0.0036
vn -0.9845 0.1753 0.0046
vn -0.9843 0.1763 0.0084
vn -0.9828 0.1845 0.0080
vn -0.9830 0.1835 -0.0012
vn -0.9845 0.1753 0.0019
vn -0.9819 0.1891 -0.0043
vn -0.9842 0.1771 -0.0041
vn -0.9846 0.1749 0.0021
vn -0.9836 0.1803 0.0056
vn -0.9836 0.1802 0.0056
vn -0.9822 0.1877 0.0063
vn -0.9839 0.1785 0.0050
vn -0.9830 0.1835 0.0013
vn 0.1556 0.9868 0.0439
vn -0.1599 -0.9868 -0.0241
vn -0.1487 -0.9152 -0.3746
vn -0.1494 -0.9151 -0.3746
vn 0.0243 0.1222 0.9922
vn 0.1598 0.9864 0.0393
vn -0.0290 -0.1521 -0.9879
vn -0.1424 -0.8752 -0.4624
vn -0.1081 -0.7091 0.6967
vn -0.0280 -0.1646 -0.9860
vn 0.9969 -0.0398 0.0671
vn -0.8408 -0.0000 0.5414
vn 0.6064 -0.0000 0.7951
vn 0.5850 0.1999 0.7860
vn 0.5781 0.1593 0.8002
vn 0.5835 -0.0000 0.8121
vn 0.5414 -0.0000 0.8408
vn 0.8408 -0.0000 -0.5414
vn 0.7997 0.3087 -0.5149
vn -0.0000 1.0000 -0.0000
vn -0.5414 -0.0000 -0.8408
vn -0.8331 0.1350 0.5364
vn 0.5491 0.3600 0.7542
vn -0.5481 0.7583 0.3529
vn 0.6231 0.6715 -0.4011
vn 0.6231 0.6715 -0.4012
vn 0.1977 0.9719 -0.1273
vn 0.0509 0.9982 -0.0327
vn 0.5945 -0.7071 -0.3828
vn 0.8408 -0.0000 0.5414
vn -0.6064 -0.0000 0.7951
vn -0.5835 -0.0000 0.8121
vn -0.5781 0.1593 0.8002
vn -0.5850 0.1999 0.7860
vn -0.5414 -0.0000 0.8408
vn -0.8408 -0.0000 -0.5414
vn -0.7997 0.3087 -0.5149
vn 0.5414 -0.0000 -0.8408
vn 0.8331 0.1350 0.5364
vn -0.5491 0.3600 0.7542
vn 0.5481 0.7583 0.3529
vn -0.6231 0.6715 -0.4012
vn -0.1977 0.9719 -0.1273
vn -0.0509 0.9982 -0.0327
vn -0.5945 -0.7071 -0.3828
vn -0.0000 0.0138 -0.9999
vn -0.0000 -0.5766 -0.8171
vn -0.0000 -0.9467 -0.3221
vn -0.0000 -0.9552 0.2959
vn -0.0000 -0.5989 0.8008
vn -0.0000 -0.0138 0.9999
vn -0.0000 0.5766 0.8171
vn -0.0000 0.9467 0.3221
vn -0.0000 0.9552 -0.2959
vn 1.0000 -0.0000 -0.0000
vn -0.0000 0.5989 -0.8008
vn -1.0000 -0.0000 -0.0000
vn -0.0000 -0.7822 0.6230
vt 0.573259 0.500000
vt 0.625000 0.500000
vt 0.454356 0.739713
vt 0.375000 0.739436
vt 0.375000 0.692096
vt 0.397734 0.686306
vt 0.559541 0.692517
vt 0.594141 0.743240
vt 0.510778 0.750000
vt 0.375000 0.750000
vt 0.514246 0.730923
vt 0.506427 0.709608
vt 0.451514 0.697535
vt 0.471383 0.549501
vt 0.440813 0.525879
vt 0.563920 0.531550
vt 0.532041 0.556525
vt 0.394333 0.572115
vt 0.413666 0.572115
vt 0.463169 0.566543
vt 0.391386 0.583597
vt 0.375000 0.572115
vt 0.625000 0.572115
vt 0.625000 0.609937
vt 0.625000 0.629704
vt 0.375000 0.500000
vt 0.375000 0.522847
vt 0.625000 0.726173
vt 0.625000 0.750000
vt 0.625000 0.531550
vt 0.628299 0.630886
vt 0.625000 0.689852
vt 0.391260 0.617165
vt 0.510710 0.615370
vt 0.578520 0.564320
vt 0.529744 0.621107
vt 0.611428 0.616223
vt 0.628084 0.688670
vt 0.612087 0.575324
vt 0.610543 0.605580
vt 0.527383 0.609581
vt 0.544130 0.562904
vt 0.572608 0.566208
vt 0.575511 0.684848
vt 0.614424 0.629381
vt 0.602695 0.683536
vt 0.375000 0.000000
vt 0.625000 0.000000
vt 0.625000 0.250000
vt 0.375000 0.250000
vt 0.375000 0.693562
vt 0.428927 0.676876
vt 0.625000 0.676876
vt 0.625000 0.960818
vt 0.375000 0.960818
vt 0.625000 1.000000
vt 0.375000 1.000000
vt 0.428927 0.500000
vt 0.835818 0.500000
vt 0.875000 0.500000
vt 0.875000 0.750000
vt 0.835818 0.750000
vt 0.125000 0.500000
vt 0.164182 0.500000
vt 0.164182 0.750000
vt 0.125000 0.750000
vt 0.375000 0.289182
vt 0.625000 0.289182
vt 0.375000 0.487611
vt 0.825618 0.612526
vt 0.825618 0.498814
vt 0.641629 0.606692
vt 0.643366 0.648448
vt 0.628988 0.906322
vt 0.626617 0.946455
vt 0.626185 0.299382
vt 0.628538 0.319637
vt 0.643276 0.446476
vt 0.641629 0.483364
vt 0.805362 0.589365
vt 0.805362 0.496460
vt 0.678517 0.481717
vt 0.678517 0.585278
vt 0.362611 0.681173
vt 0.362611 0.500000
vt 1.000000 0.500000
vt 1.000000 1.000000
vt 0.900000 1.000000
vt 0.900000 0.500000
vt 0.800000 1.000000
vt 0.800000 0.500000
vt 0.700000 1.000000
vt 0.700000 0.500000
vt 0.600000 1.000000
vt 0.600000 0.500000
vt 0.500000 1.000000
vt 0.500000 0.500000
vt 0.400000 1.000000
vt 0.400000 0.500000
vt 0.300000 1.000000
vt 0.300000 0.500000
vt 0.200000 1.000000
vt 0.200000 0.500000
vt 0.391068 0.444164
vt 0.250000 0.490000
vt 0.108932 0.444164
vt 0.021746 0.324164
vt 0.021746 0.175836
vt 0.108932 0.055836
vt 0.250000 0.010000
vt 0.391068 0.055836
vt 0.478254 0.175836
vt 0.478254 0.324164
vt 0.100000 1.000000
vt 0.100000 0.500000
vt -0.000000 1.000000
vt -0.000000 0.500000
s 1
g off
f 72/1/1 60/2/2 3/2/2 15/1/1
s 2
f 83/3/3 26/3/3 22/4/4 79/4/4
s 3
f 8/5/5 33/6/6 17/7/7 13/8/8 12/9/9 1/10/9 22/4/9 26/3/9 25/11/9 24/12/9 23/13/9
f 20/14/10 18/15/11 14/16/12 16/17/13
f 21/18/14 19/19/15 30/20/16 31/21/17 4/22/18
s 4
f 62/23/19 85/24/20 63/25/21 6/25/21 28/24/20 5/23/19
s 3
f 2/26/22 15/1/23 14/16/12 18/15/11 9/27/22
s 5
f 65/5/24 8/5/24 23/13/25 80/13/25
s 4
f 68/28/26 70/29/27 13/29/27 11/28/26
f 60/2/28 67/30/29 10/30/29 3/2/28
f 58/10/30 1/10/30 12/9/31 69/9/31
f 6/25/21 63/25/21 111/31/32 54/31/32
s 6
f 61/22/33 4/22/33 8/5/33 65/5/33
s 4
f 67/30/29 62/23/19 5/23/19 10/30/29
s 2
f 1/10/33 58/10/33 79/4/4 22/4/4
s 1
f 2/26/34 59/26/34 72/1/1 15/1/1
s 3
f 13/8/8 17/7/7 7/32/35 11/28/36
f 14/16/12 15/1/23 3/2/37 10/30/38
f 33/6/6 32/33/39 29/34/40 17/7/7
f 27/35/41 10/30/38 5/23/42
s 7
f 78/18/43 21/18/44 4/22/45 61/22/46
s 8
f 40/36/47 41/37/47 52/37/47 50/36/47
s 9
f 66/27/48 9/27/48 18/15/48 75/15/48
s 10
f 81/12/49 24/12/49 25/11/50 82/11/50
s 11
f 77/14/51 20/14/51 19/19/51 76/19/51
s 12
f 75/15/52 18/15/52 20/14/52 77/14/52
s 7
f 76/19/53 19/19/54 21/18/44 78/18/43
s 4
f 70/29/27 69/9/31 12/9/31 13/29/27
f 64/32/55 68/28/26 11/28/26 7/32/55
s 13
f 9/27/56 66/27/56 59/26/56 2/26/56
s 10
f 82/11/50 25/11/50 26/3/57 83/3/57
s 4
f 112/38/32 64/32/55 7/32/55 55/38/32
s 3
f 29/34/40 32/33/39 31/21/17 30/20/16 16/17/13
f 4/22/18 31/21/17 32/33/39 33/6/6 8/5/5
s 14
f 38/39/58 34/40/58 45/40/58 46/39/58
s 3
f 16/17/13 14/16/12 10/30/38 27/35/41
f 19/19/15 20/14/10 16/17/13 30/20/16
f 28/24/59 29/34/40 35/41/60 34/40/61
f 29/34/40 16/17/13 36/42/62 35/41/60
f 16/17/13 27/35/41 37/43/63 36/42/62
f 27/35/41 5/23/42 38/39/64 37/43/63
f 5/23/42 28/24/59 34/40/61 38/39/64
f 17/7/7 29/34/40 40/36/65 39/44/66
f 29/34/40 28/24/59 41/37/67 40/36/65
f 28/24/59 6/25/68 42/45/69 41/37/67
f 6/25/68 7/32/35 43/46/70 42/45/69
f 7/32/35 17/7/7 39/44/66 43/46/70
s 15
f 45/40/71 44/41/71 47/42/71 48/43/71 46/39/71
s 16
f 49/44/72 50/36/72 52/37/72 53/45/72 51/46/72
s 17
f 35/41/73 36/42/73 47/42/73 44/41/73
s 18
f 41/37/74 42/45/75 53/45/76 52/37/74
s 19
f 36/42/77 37/43/77 48/43/77 47/42/77
s 20
f 39/44/78 40/36/78 50/36/78 49/44/78
s 21
f 34/40/79 35/41/79 44/41/79 45/40/79
s 18
f 42/45/75 43/46/80 51/46/80 53/45/76
s 22
f 37/43/81 38/39/81 46/39/81 48/43/81
s 23
f 43/46/82 39/44/82 49/44/82 51/46/82
s 24
f 111/31/83 113/31/83 56/31/83 54/31/84
s 4
f 7/32/55 6/25/21 54/31/32 55/38/32
s 25
f 55/38/85 54/31/85 56/31/85 57/38/85
s 26
f 57/38/86 114/38/86 112/38/86 55/38/86
s 27
f 56/31/32 113/31/32 114/38/32 57/38/32
s 28
f 65/5/87 80/13/88 81/12/88 82/11/88 83/3/88 79/4/88 58/10/88 69/9/88 70/8/89 74/7/90 90/6/91
f 77/14/92 73/17/93 71/16/94 75/15/95
f 78/18/96 61/22/97 88/21/98 87/20/99 76/19/100
f 59/26/101 66/27/101 75/15/95 71/16/94 72/1/102
f 70/8/89 68/28/103 64/32/104 74/7/90
f 71/16/94 67/30/105 60/2/106 72/1/102
f 90/6/91 74/7/90 86/34/107 89/33/108
f 84/35/109 62/23/110 67/30/105
s 29
f 97/36/111 107/36/111 109/37/111 98/37/111
s 28
f 86/34/107 73/17/93 87/20/99 88/21/98 89/33/108
f 61/22/97 65/5/87 90/6/91 89/33/108 88/21/98
s 30
f 95/39/112 103/39/112 102/40/112 91/40/112
s 28
f 73/17/93 84/35/109 67/30/105 71/16/94
f 76/19/100 87/20/99 73/17/93 77/14/92
f 85/24/113 91/40/114 92/41/115 86/34/107
f 86/34/107 92/41/115 93/42/116 73/17/93
f 73/17/93 93/42/116 94/43/117 84/35/109
f 84/35/109 94/43/117 95/39/118 62/23/110
f 62/23/110 95/39/118 91/40/114 85/24/113
f 74/7/90 96/44/119 97/36/120 86/34/107
f 86/34/107 97/36/120 98/37/121 85/24/113
f 85/24/113 98/37/121 99/45/122 63/25/123
f 63/25/123 99/45/122 100/46/124 64/32/104
f 64/32/104 100/46/124 96/44/119 74/7/90
s 31
f 102/40/125 103/39/125 105/43/125 104/42/125 101/41/125
s 32
f 106/44/126 108/46/126 110/45/126 109/37/126 107/36/126
s 33
f 92/41/127 101/41/127 104/42/127 93/42/127
s 34
f 98/37/128 109/37/128 110/45/129 99/45/130
s 35
f 93/42/131 104/42/131 105/43/131 94/43/131
s 36
f 96/44/132 106/44/132 107/36/132 97/36/132
s 37
f 91/40/133 102/40/133 101/41/133 92/41/133
s 34
f 99/45/130 110/45/129 108/46/134 100/46/134
s 38
f 94/43/135 105/43/135 103/39/135 95/39/135
s 39
f 100/46/136 108/46/136 106/44/136 96/44/136
s 4
f 64/32/55 112/38/32 111/31/32 63/25/21
s 40
f 112/38/137 114/38/137 113/31/137 111/31/137
s 41
f 115/47/138 116/48/138 118/49/138 117/50/138
s 42
f 133/51/139 134/52/139 119/53/140 124/54/141 123/55/142
f 123/55/142 124/54/141 116/56/143 115/57/143
s 43
f 135/58/144 120/2/145 119/53/145 134/52/144
s 44
f 122/59/146 118/60/146 116/61/146 124/62/146
s 45
f 117/63/33 121/64/33 123/65/33 115/66/33
s 46
f 121/67/147 122/68/147 120/2/147 135/58/147 136/69/147
f 117/50/147 118/49/147 122/68/147 121/67/147
s 47
f 122/59/148 124/62/148 128/70/148 125/71/148
s 42
f 124/54/141 119/53/140 131/72/149 132/73/149 127/74/149 128/75/149
s 46
f 120/2/147 122/68/147 125/76/147 126/77/147 129/78/147 130/79/147
s 48
f 125/71/150 128/70/150 127/80/150 126/81/150
s 43
f 119/53/145 120/2/145 130/79/151 131/72/152
f 129/82/153 126/81/154 127/80/154 132/83/153
f 132/83/153 131/72/152 130/79/151 129/82/153
s 49
f 133/84/155 136/85/155 135/58/155 134/52/155
s 45
f 121/64/33 136/85/33 133/84/33 123/65/33
s 50
f 137/47/156 139/50/156 140/49/156 138/48/156
s 51
f 155/51/157 145/55/158 146/54/159 141/53/160 156/52/157
f 145/55/158 137/57/161 138/56/161 146/54/159
s 52
f 157/58/162 156/52/162 141/53/163 142/2/163
s 53
f 144/59/146 146/62/146 138/61/146 140/60/146
s 54
f 139/63/33 137/66/33 145/65/33 143/64/33
s 55
f 143/67/164 158/69/164 157/58/164 142/2/164 144/68/164
f 139/50/164 143/67/164 144/68/164 140/49/164
s 56
f 144/59/165 147/71/165 150/70/165 146/62/165
s 51
f 146/54/159 150/75/166 149/74/166 154/73/166 153/72/166 141/53/160
s 55
f 142/2/164 152/79/164 151/78/164 148/77/164 147/76/164 144/68/164
s 57
f 147/71/167 148/81/167 149/80/167 150/70/167
s 52
f 141/53/163 153/72/168 152/79/168 142/2/163
f 151/82/169 154/83/169 149/80/170 148/81/170
f 154/83/169 151/82/169 152/79/168 153/72/168
s 58
f 155/84/171 156/52/171 157/58/171 158/85/171
s 54
f 143/64/33 145/65/33 155/84/33 158/85/33
s 59
f 159/86/172 160/87/172 162/88/173 161/89/173
f 161/89/173 162/88/173 164/90/174 163/91/174
f 163/91/174 164/90/174 166/92/175 165/93/175
f 165/93/175 166/92/175 168/94/176 167/95/176
f 167/95/176 168/94/176 170/96/177 169/97/177
f 169/97/177 170/96/177 172/98/178 171/99/178
f 171/99/178 172/98/178 174/100/179 173/101/179
f 173/101/179 174/100/179 176/102/180 175/103/180
s 60
f 162/104/181 160/105/181 178/106/181 176/107/181 174/108/181 172/109/181 170/110/181 168/111/181 166/112/181 164/113/181
s 59
f 175/103/180 176/102/180 178/114/182 177/115/182
f 177/115/182 178/114/182 160/116/172 159/117/172
s 61
f 179/86/172 180/87/172 182/88/173 181/89/173
f 181/89/173 182/88/173 184/90/174 183/91/174
f 183/91/174 184/90/174 186/92/175 185/93/175
f 185/93/175 186/92/175 188/94/176 187/95/176
f 187/95/176 188/94/176 190/96/177 189/97/177
f 189/97/177 190/96/177 192/98/178 191/99/178
f 191/99/178 192/98/178 194/100/179 193/101/179
f 193/101/179 194/100/179 196/102/180 195/103/180
s 62
f 182/104/181 180/105/181 198/106/181 196/107/181 194/108/181 192/109/181 190/110/181 188/111/181 186/112/181 184/113/181
s 61
f 195/103/180 196/102/180 198/114/182 197/115/182
f 197/115/182 198/114/182 180/116/172 179/117/172
s 63
f 199/86/172 201/89/173 202/88/173 200/87/172
f 201/89/173 203/91/174 204/90/174 202/88/173
f 203/91/174 205/93/175 206/92/175 204/90/174
f 205/93/175 207/95/176 208/94/176 206/92/175
f 207/95/176 209/97/177 210/96/177 208/94/176
f 209/97/177 211/99/178 212/98/178 210/96/177
f 211/99/178 213/101/179 214/100/179 212/98/178
f 213/101/179 215/103/180 216/102/180 214/100/179
s 64
f 202/104/183 204/113/183 206/112/183 208/111/183 210/110/183 212/109/183 214/108/183 216/107/183 218/106/183 200/105/183
s 63
f 215/103/180 217/115/182 218/114/182 216/102/180
f 217/115/182 199/117/172 200/116/172 218/114/182
s 65
f 219/86/172 221/89/173 222/88/173 220/87/172
f 221/89/173 223/91/174 224/90/174 222/88/173
f 223/91/174 225/93/175 226/92/175 224/90/174
f 225/93/175 227/95/176 228/94/176 226/92/175
f 227/95/176 229/97/177 230/96/177 228/94/176
f 229/97/177 231/99/178 232/98/178 230/96/177
f 231/99/178 233/101/179 234/100/179 232/98/178
f 233/101/179 235/103/180 236/102/180 234/100/179
s 66
f 222/104/183 224/113/183 226/112/183 228/111/183 230/110/183 232/109/183 234/108/183 236/107/183 238/106/183 220/105/183
s 65
f 235/103/180 237/115/182 238/114/182 236/102/180
f 237/115/182 219/117/172 220/116/172 238/114/182
s 67
f 219/117/181 237/115/181 235/103/181 233/101/181 231/99/181 229/97/181 227/95/181 225/93/181 223/91/181 221/89/181
s 68
f 179/117/183 181/89/183 183/91/183 185/93/183 187/95/183 189/97/183 191/99/183 193/101/183 195/103/183 197/115/183
s 69
f 159/117/183 161/89/183 163/91/183 165/93/183 167/95/183 169/97/183 171/99/183 173/101/183 175/103/183 177/115/183
s 70
f 199/117/181 217/115/181 215/103/181 213/101/181 211/99/181 209/97/181 207/95/181 205/93/181 203/91/181 201/89/181
s 5
f 80/13/25 23/13/25 24/12/184 81/12/184
