# Blender 4.0.2
# www.blender.org
mtllib van.mtl
g Cylinder.003_Cylinder.003
v 0.537812 0.311950 1.082819
v 0.778853 0.311950 1.082819
v 0.537812 0.121061 1.141942
v 0.778853 0.121061 1.141942
v 0.537812 0.001380 1.301975
v 0.778853 0.001380 1.301975
v 0.537812 -0.001379 1.501792
v 0.778853 -0.001379 1.501792
v 0.537812 0.113838 1.665068
v 0.778853 0.113838 1.665068
v 0.537812 0.303022 1.729439
v 0.778853 0.303022 1.729439
v 0.537812 0.493911 1.670316
v 0.778853 0.493911 1.670316
v 0.537812 0.613593 1.510283
v 0.778853 0.613593 1.510283
v 0.537812 0.616352 1.310466
v 0.778853 0.616352 1.310466
v 0.537812 0.501135 1.147190
v 0.778853 0.501135 1.147190
v 0.537812 0.311950 -1.720948
v 0.778853 0.311950 -1.720948
v 0.537812 0.121061 -1.661825
v 0.778853 0.121061 -1.661825
v 0.537812 0.001379 -1.501792
v 0.778853 0.001379 -1.501792
v 0.537812 -0.001380 -1.301975
v 0.778853 -0.001380 -1.301975
v 0.537812 0.113838 -1.138699
v 0.778853 0.113838 -1.138699
v 0.537812 0.303022 -1.074328
v 0.778853 0.303022 -1.074328
v 0.537812 0.493911 -1.133451
v 0.778853 0.493911 -1.133451
v 0.537812 0.613593 -1.293484
v 0.778853 0.613593 -1.293484
v 0.537812 0.616352 -1.493301
v 0.778853 0.616352 -1.493301
v 0.537812 0.501134 -1.656578
v 0.778853 0.501134 -1.656578
v -0.537812 0.311950 1.082819
v -0.778853 0.311950 1.082819
v -0.537812 0.121061 1.141942
v -0.778853 0.121061 1.141942
v -0.537812 0.001380 1.301975
v -0.778853 0.001380 1.301975
v -0.537812 -0.001379 1.501792
v -0.778853 -0.001379 1.501792
v -0.537812 0.113838 1.665068
v -0.778853 0.113838 1.665068
v -0.537812 0.303022 1.729439
v -0.778853 0.303022 1.729439
v -0.537812 0.493912 1.670316
v -0.778853 0.493911 1.670316
v -0.537812 0.613593 1.510283
v -0.778853 0.613593 1.510283
v -0.537812 0.616352 1.310466
v -0.778853 0.616352 1.310466
v -0.537812 0.501135 1.147190
v -0.778853 0.501135 1.147190
v -0.537812 0.311950 -1.720948
v -0.778853 0.311950 -1.720948
v -0.537812 0.121061 -1.661825
v -0.778853 0.121061 -1.661825
v -0.537812 0.001379 -1.501792
v -0.778853 0.001379 -1.501792
v -0.537812 -0.001380 -1.301975
v -0.778853 -0.001380 -1.301975
v -0.537812 0.113838 -1.138699
v -0.778853 0.113838 -1.138699
v -0.537812 0.303022 -1.074328
v -0.778853 0.303022 -1.074328
v -0.537812 0.493911 -1.133451
v -0.778853 0.493911 -1.133451
v -0.537812 0.613593 -1.293484
v -0.778853 0.613593 -1.293484
v -0.537812 0.616352 -1.493301
v -0.778853 0.616352 -1.493301
v -0.537812 0.501134 -1.656578
v -0.778853 0.501134 -1.656578
v 0.810000 0.335210 -2.163775
v 0.603786 1.883113 -1.899482
v 0.810000 0.335210 0.194276
v 0.810000 1.194723 -2.163775
v 0.801045 1.194723 0.194276
v -0.000000 0.335210 0.194276
v -0.000000 0.335210 0.733154
v 0.810000 1.194744 1.366204
v 0.810000 0.335210 0.733154
v 0.617461 1.898847 0.194276
v 0.810000 0.335210 -0.866872
v 0.810000 1.194723 -0.866872
v -0.000000 0.335210 -0.866872
v 0.602872 1.909933 -0.866872
v 0.810000 0.335210 1.844000
v 0.810000 1.110877 1.578650
v 0.643334 1.825575 0.680820
v 0.810000 0.335210 -0.995229
v 0.810000 0.335210 -1.786787
v 0.810000 0.534022 -1.710289
v 0.810000 0.669119 -1.275196
v 0.810000 0.524582 -1.078323
v -0.000000 0.335210 -0.995027
v 0.810000 0.335210 1.019230
v 0.810000 0.335210 1.772150
v 0.810000 0.523140 1.073400
v 0.810000 0.678102 1.530910
v 0.810000 0.560221 1.712059
v -0.000000 0.335210 1.019259
v 0.678150 1.700462 0.727873
v 0.797781 1.232463 1.256860
v 0.801392 1.231733 0.316093
v 0.668067 1.702032 0.291860
v 0.799592 1.231272 -0.770509
v 0.664670 1.705070 -0.770509
v 0.664670 1.705070 0.094495
v 0.799592 1.231272 0.094495
v 0.799444 1.231790 -1.912036
v 0.664670 1.705070 -1.807289
v 0.664670 1.705070 -0.937046
v 0.799444 1.231790 -0.937046
v 0.715082 1.248541 1.307753
v 0.576843 1.771773 0.739270
v 0.576844 1.762782 0.730994
v 0.715083 1.239549 1.299477
v 0.768965 1.224692 1.257082
v 0.649335 1.692691 0.728094
v 0.634923 1.694261 0.292081
v 0.772576 1.223962 0.316314
v 0.661356 1.675529 -0.741694
v 0.781212 1.254635 -0.741694
v 0.781212 1.254635 0.065680
v 0.661356 1.675529 0.065680
v 0.661653 1.674484 -1.784161
v 0.780767 1.256198 -1.882984
v 0.780767 1.256198 -0.963136
v 0.661653 1.674484 -0.963136
v -0.000000 0.335210 1.019230
v -0.000000 0.335210 1.772150
v -0.000000 0.523140 1.073400
v -0.000000 0.678102 1.530910
v -0.000000 0.560221 1.712059
v -0.000000 0.335210 -0.995229
v -0.000000 0.335210 -1.786787
v -0.000000 0.534022 -1.710289
v -0.000000 0.669119 -1.275196
v -0.000000 0.524581 -1.078323
v 0.810000 0.938438 1.723641
v 0.810000 0.666877 1.833946
v 0.810000 0.673664 1.271777
v -0.000000 0.673664 1.271777
v 0.810000 0.668775 -1.514127
v -0.000000 0.668775 -1.514127
v 0.571611 1.832183 -1.919035
v 0.571611 1.822187 -1.893000
v 0.710631 1.359241 -2.100611
v 0.509012 1.264015 -2.137172
v 0.509012 1.254019 -2.111136
v 0.710631 1.349245 -2.074576
v -0.810000 0.335210 -2.163775
v -0.603786 1.883113 -1.899482
v -0.810000 0.335210 0.194276
v -0.810000 1.194723 -2.163775
v -0.801045 1.194723 0.194276
v -0.810000 1.194744 1.366204
v -0.810000 0.335210 0.733154
v -0.617461 1.898847 0.194276
v -0.810000 0.335210 -0.866872
v -0.810000 1.194723 -0.866872
v -0.602873 1.909933 -0.866872
v -0.810000 0.335210 1.844000
v -0.810000 1.110877 1.578650
v -0.643334 1.825575 0.680820
v -0.810000 0.335210 -0.995229
v -0.810000 0.335210 -1.786787
v -0.810000 0.534022 -1.710289
v -0.810000 0.669119 -1.275196
v -0.810000 0.524582 -1.078323
v -0.810000 0.335210 1.019230
v -0.810000 0.335210 1.772150
v -0.810000 0.523140 1.073400
v -0.810000 0.678102 1.530910
v -0.810000 0.560221 1.712059
v -0.678150 1.700462 0.727873
v -0.797781 1.232463 1.256860
v -0.801392 1.231733 0.316093
v -0.668067 1.702032 0.291860
v -0.799592 1.231272 -0.770509
v -0.664670 1.705070 -0.770509
v -0.664670 1.705070 0.094495
v -0.799592 1.231272 0.094495
v -0.799445 1.231790 -1.912036
v -0.664670 1.705070 -1.807289
v -0.664670 1.705070 -0.937046
v -0.799445 1.231790 -0.937046
v -0.715083 1.248541 1.307753
v -0.576844 1.771773 0.739270
v -0.576844 1.762782 0.730994
v -0.715083 1.239549 1.299477
v -0.768966 1.224692 1.257082
v -0.649335 1.692691 0.728094
v -0.634923 1.694261 0.292081
v -0.772576 1.223962 0.316314
v -0.661356 1.675529 -0.741694
v -0.781213 1.254636 -0.741694
v -0.781213 1.254636 0.065680
v -0.661356 1.675529 0.065680
v -0.661654 1.674484 -1.784161
v -0.780768 1.256198 -1.882984
v -0.780768 1.256198 -0.963136
v -0.661653 1.674484 -0.963136
v -0.810000 0.938438 1.723641
v -0.810000 0.666877 1.833946
v -0.810000 0.673664 1.271777
v -0.810000 0.668775 -1.514127
v -0.571611 1.832183 -1.919035
v -0.571611 1.822187 -1.893000
v -0.710631 1.359241 -2.100611
v -0.509012 1.264015 -2.137172
v -0.509012 1.254019 -2.111136
v -0.710631 1.349245 -2.074576
v 0.728310 1.244004 1.163592
v 0.728310 1.303077 1.163592
v 0.696329 1.244004 1.113924
v 0.696329 1.303077 1.113924
v 1.003305 1.303077 0.965978
v 0.980679 1.303077 0.930838
v 0.798367 1.244004 1.048224
v 0.798367 1.303077 1.048224
v 0.830347 1.244004 1.097892
v 0.830347 1.303077 1.097892
v 0.806163 1.405769 1.043204
v 0.821644 1.421598 1.033237
v 0.833201 1.421598 1.051186
v 0.820599 1.405769 1.065625
v 0.918588 1.414612 0.970816
v 0.951912 1.386281 0.949360
v 0.966150 1.386281 0.971473
v 0.930145 1.414611 0.988766
v 0.992814 1.244004 0.973979
v 1.003305 1.257156 0.965978
v 0.980679 1.257156 0.930838
v 0.969621 1.244004 0.937958
v -0.728310 1.244004 1.163592
v -0.728310 1.303077 1.163592
v -0.696330 1.244004 1.113924
v -0.696330 1.303077 1.113924
v -1.003305 1.303077 0.965978
v -0.980679 1.303077 0.930838
v -0.798367 1.244004 1.048224
v -0.798367 1.303077 1.048224
v -0.830347 1.244004 1.097892
v -0.830347 1.303077 1.097892
v -0.806163 1.405769 1.043204
v -0.821644 1.421598 1.033237
v -0.833201 1.421598 1.051186
v -0.820599 1.405769 1.065625
v -0.918588 1.414611 0.970816
v -0.951912 1.386281 0.949360
v -0.966150 1.386281 0.971473
v -0.930145 1.414611 0.988766
v -0.992814 1.244004 0.973979
v -1.003305 1.257156 0.965978
v -0.980679 1.257156 0.930838
v -0.969621 1.244004 0.937958
vn -0.0000 0.0138 -0.9999
vn -0.0000 -0.5766 -0.8171
vn -0.0000 -0.9467 -0.3221
vn -0.0000 -0.9552 0.2959
vn -0.0000 -0.5989 0.8008
vn -0.0000 -0.0138 0.9999
vn -0.0000 0.5766 0.8171
vn -0.0000 0.9467 0.3221
vn -0.0000 0.9552 -0.2959
vn 1.0000 -0.0000 -0.0000
vn -0.0000 0.5989 -0.8008
vn -1.0000 -0.0000 -0.0000
vn -0.0000 -1.0000 -0.0000
vn -0.0000 0.9967 0.0813
vn -0.0000 0.8924 0.4513
vn -0.0000 0.1649 -0.9863
vn -0.0000 0.3584 -0.9336
vn 0.9454 0.3231 -0.0429
vn 0.9484 0.3152 0.0333
vn 0.8922 0.3971 0.2153
vn 0.8717 0.4428 -0.2098
vn 0.9919 0.1264 -0.0085
vn 0.9910 0.1336 0.0020
vn 1.0000 0.0026 0.0021
vn 0.9923 0.1238 -0.0039
vn 1.0000 0.0053 0.0001
vn -0.0000 -0.6772 0.7358
vn 0.9736 0.2245 0.0409
vn 0.9750 0.2177 -0.0444
vn 0.9796 0.0726 -0.1871
vn 0.9796 0.0726 0.1871
vn 0.9988 0.0480 -0.0025
vn 1.0000 0.0019 -0.0014
vn -0.0054 0.0499 0.9987
vn -0.0000 -0.0000 -1.0000
vn 1.0000 0.0055 -0.0040
vn -0.0000 0.6772 -0.7358
vn -0.0000 0.7358 0.6772
vn -0.0000 0.8531 0.5217
vn 0.9683 0.2494 -0.0145
vn 0.9790 0.2040 -0.0018
vn 0.9681 0.2504 -0.0062
vn 0.9802 0.1973 -0.0151
vn 0.9661 0.2580 -0.0106
vn 0.9665 0.2552 -0.0276
vn 0.9591 0.2832 -0.0036
vn 0.9612 0.2717 0.0468
vn 0.9629 0.2666 -0.0426
vn 0.9545 0.2979 -0.0114
vn 0.9733 0.2241 0.0488
vn 0.9711 0.2350 -0.0417
vn -0.0000 0.8117 0.5841
vn 0.9655 0.2604 -0.0074
vn -0.9844 -0.1193 0.1296
vn 0.9618 0.2739 -0.0000
vn 0.2305 -0.9015 -0.3664
vn 0.1874 -0.7143 -0.6743
vn 0.2306 -0.9018 -0.3654
vn 0.8709 0.4544 -0.1871
vn 0.9742 0.0829 -0.2098
vn 0.9785 0.0351 0.2032
vn 0.2432 -0.9699 -0.0103
vn 0.8709 0.4544 0.1871
vn -0.2604 0.9655 -0.0017
vn -0.0000 -0.5871 -0.8095
vn -0.0000 -0.2580 -0.9661
vn -0.0000 -0.9450 0.3270
vn -0.0000 -0.9611 -0.2762
vn -0.0000 -0.2770 0.9609
vn -0.0000 -0.5656 0.8247
vn -0.0000 -0.3591 0.9333
vn -0.0000 -0.6195 0.7850
vn -0.0000 -0.6253 -0.7804
vn -0.0000 -0.4018 -0.9157
vn -0.0000 -0.9548 0.2971
vn -0.0000 -0.9505 -0.3107
vn -0.0000 0.2066 0.9784
vn -0.0000 0.0303 0.9995
vn -0.0000 0.5163 0.8564
vn -0.0000 1.0000 -0.0077
vn 0.2321 0.9081 0.3486
vn -0.2321 0.9081 0.3486
vn -0.0000 -0.9336 -0.3584
vn -0.4514 0.8330 0.3198
vn -0.9643 -0.2471 -0.0949
vn -0.9454 0.3231 -0.0429
vn -0.8717 0.4428 -0.2098
vn -0.8922 0.3971 0.2153
vn -0.9484 0.3152 0.0333
vn -1.0000 0.0026 0.0021
vn -0.9910 0.1336 0.0020
vn -0.9919 0.1264 -0.0085
vn -1.0000 0.0053 0.0001
vn -0.9923 0.1238 -0.0039
vn -0.9736 0.2245 0.0409
vn -0.9796 0.0726 0.1871
vn -0.9796 0.0726 -0.1871
vn -0.9750 0.2177 -0.0444
vn -0.9988 0.0480 -0.0025
vn -1.0000 0.0019 -0.0014
vn 0.0054 0.0499 0.9987
vn -1.0000 0.0055 -0.0040
vn -0.9683 0.2494 -0.0145
vn -0.9681 0.2504 -0.0062
vn -0.9790 0.2040 -0.0018
vn -0.9802 0.1973 -0.0151
vn -0.9665 0.2552 -0.0276
vn -0.9661 0.2580 -0.0106
vn -0.9612 0.2717 0.0468
vn -0.9591 0.2832 -0.0036
vn -0.9629 0.2666 -0.0426
vn -0.9733 0.2241 0.0488
vn -0.9545 0.2979 -0.0114
vn -0.9711 0.2350 -0.0417
vn -0.9655 0.2604 -0.0074
vn 0.9844 -0.1193 0.1296
vn -0.9618 0.2739 -0.0000
vn -0.2305 -0.9015 -0.3664
vn -0.2306 -0.9018 -0.3654
vn -0.1874 -0.7143 -0.6743
vn -0.8709 0.4544 -0.1871
vn -0.9785 0.0351 0.2032
vn -0.9742 0.0829 -0.2098
vn -0.2432 -0.9699 -0.0103
vn -0.8709 0.4544 0.1871
vn 0.2604 0.9655 -0.0017
vn 0.4514 0.8330 0.3198
vn 0.9643 -0.2471 -0.0949
vn -0.8408 -0.0000 0.5414
vn 0.6064 -0.0000 0.7951
vn 0.5939 0.1108 0.7969
vn 0.5759 0.0811 0.8135
vn 0.5744 -0.0000 0.8186
vn 0.5414 -0.0000 0.8408
vn 0.7768 -0.3827 -0.5002
vn 0.8248 0.1938 -0.5311
vn 0.8266 0.1827 -0.5323
vn 0.7744 -0.3894 -0.4986
vn -0.0000 1.0000 -0.0000
vn -0.5414 -0.0000 -0.8408
vn -0.8374 0.0899 0.5392
vn -0.7711 0.3987 0.4965
vn -0.7476 0.4577 0.4813
vn 0.5663 0.2535 0.7842
vn -0.2890 0.9391 0.1861
vn -0.2683 0.9477 0.1728
vn 0.6589 0.6211 -0.4243
vn 0.6715 0.6019 -0.4323
vn 0.2808 0.9426 -0.1808
vn 0.2879 0.9395 -0.1854
vn 0.3079 -0.9305 -0.1983
vn 0.3218 -0.9239 -0.2072
vn 0.8408 -0.0000 0.5414
vn -0.6064 -0.0000 0.7951
vn -0.5744 -0.0000 0.8186
vn -0.5759 0.0811 0.8135
vn -0.5939 0.1108 0.7969
vn -0.5414 -0.0000 0.8408
vn -0.7768 -0.3827 -0.5002
vn -0.7744 -0.3894 -0.4986
vn -0.8266 0.1827 -0.5323
vn -0.8248 0.1938 -0.5311
vn 0.5414 -0.0000 -0.8408
vn 0.8374 0.0899 0.5392
vn 0.7476 0.4577 0.4813
vn 0.7711 0.3987 0.4965
vn -0.5663 0.2535 0.7842
vn 0.2683 0.9477 0.1728
vn 0.2890 0.9391 0.1861
vn -0.6715 0.6019 -0.4323
vn -0.6589 0.6211 -0.4243
vn -0.2808 0.9426 -0.1808
vn -0.2879 0.9395 -0.1854
vn -0.3079 -0.9305 -0.1983
vn -0.3218 -0.9239 -0.2072
vn -0.0000 0.9997 -0.0260
vt 1.000000 0.500000
vt 1.000000 1.000000
vt 0.900000 1.000000
vt 0.900000 0.500000
vt 0.800000 1.000000
vt 0.800000 0.500000
vt 0.700000 1.000000
vt 0.700000 0.500000
vt 0.600000 1.000000
vt 0.600000 0.500000
vt 0.500000 1.000000
vt 0.500000 0.500000
vt 0.400000 1.000000
vt 0.400000 0.500000
vt 0.300000 1.000000
vt 0.300000 0.500000
vt 0.200000 1.000000
vt 0.200000 0.500000
vt 0.391068 0.444164
vt 0.250000 0.490000
vt 0.108932 0.444164
vt 0.021746 0.324164
vt 0.021746 0.175836
vt 0.108932 0.055836
vt 0.250000 0.010000
vt 0.391068 0.055836
vt 0.478254 0.175836
vt 0.478254 0.324164
vt 0.100000 1.000000
vt 0.100000 0.500000
vt -0.000000 1.000000
vt -0.000000 0.500000
vt 0.304876 0.625000
vt 0.311806 0.625000
vt 0.311817 0.750000
vt 0.304876 0.750000
vt 0.762243 0.750000
vt 0.775888 0.765866
vt 0.520492 0.750000
vt 0.531011 0.705522
vt 0.534104 0.814392
vt 0.534104 0.755682
vt 0.234753 0.625000
vt 0.234753 0.750000
vt 0.198834 0.750000
vt 0.198834 0.625000
vt 0.375000 0.750000
vt 0.520492 0.820124
vt 0.375000 0.820124
vt 0.375000 0.813183
vt 0.423856 0.805837
vt 0.440731 0.790985
vt 0.431749 0.784198
vt 0.422767 0.777411
vt 0.375000 0.770384
vt 0.520492 0.890247
vt 0.375000 0.890247
vt 0.198834 0.750000
vt 0.198834 0.625000
vt 0.753409 0.758894
vt 0.611388 0.825194
vt 0.611388 0.881258
vt 0.520492 0.926166
vt 0.477156 0.926166
vt 0.455485 0.926166
vt 0.431264 0.926166
vt 0.375000 0.926166
vt 0.424538 0.926166
vt 0.441322 0.926166
vt 0.534281 0.893778
vt 0.608980 0.894323
vt 0.428847 0.926166
vt 0.416372 0.926166
vt 0.617268 0.740794
vt 0.625000 0.750000
vt 0.540388 0.884119
vt 0.615588 0.926166
vt 0.534726 0.921496
vt 0.601764 0.918408
vt 0.625000 0.887243
vt 0.625000 0.818622
vt 0.534104 0.826374
vt 0.534104 0.883410
vt 0.611388 0.756139
vt 0.611388 0.812829
vt 0.424684 0.873694
vt 0.323223 0.818126
vt 0.396003 0.857986
vt 0.693622 0.750000
vt 0.545468 0.741672
vt 0.526040 0.745694
vt 0.354616 0.750000
vt 0.375000 0.000000
vt 0.625000 0.000000
vt 0.625000 0.250000
vt 0.375000 0.250000
vt 0.375000 0.694099
vt 0.430660 0.676876
vt 0.625000 0.676876
vt 0.625000 0.960818
vt 0.375000 0.960818
vt 0.625000 1.000000
vt 0.375000 1.000000
vt 0.430660 0.500000
vt 0.625000 0.500000
vt 0.835818 0.500000
vt 0.875000 0.500000
vt 0.875000 0.750000
vt 0.835818 0.750000
vt 0.125000 0.500000
vt 0.164182 0.500000
vt 0.164182 0.750000
vt 0.125000 0.750000
vt 0.375000 0.289182
vt 0.625000 0.289182
vt 0.375000 0.487213
vt 0.825618 0.612526
vt 0.825618 0.498814
vt 0.641629 0.606692
vt 0.643366 0.648448
vt 0.628988 0.906322
vt 0.626617 0.946455
vt 0.626185 0.299382
vt 0.628538 0.319637
vt 0.643276 0.446476
vt 0.641629 0.483364
vt 0.805362 0.589365
vt 0.805362 0.496460
vt 0.678517 0.481717
vt 0.678517 0.585278
vt 0.362213 0.681312
vt 0.362213 0.500000
s 1
g off
f 1/1/1 2/2/1 4/3/2 3/4/2
f 3/4/2 4/3/2 6/5/3 5/6/3
f 5/6/3 6/5/3 8/7/4 7/8/4
f 7/8/4 8/7/4 10/9/5 9/10/5
f 9/10/5 10/9/5 12/11/6 11/12/6
f 11/12/6 12/11/6 14/13/7 13/14/7
f 13/14/7 14/13/7 16/15/8 15/16/8
f 15/16/8 16/15/8 18/17/9 17/18/9
f 4/19/10 2/20/10 20/21/10 18/22/10 16/23/10 14/24/10 12/25/10 10/26/10 8/27/10 6/28/10
f 17/18/9 18/17/9 20/29/11 19/30/11
f 19/30/11 20/29/11 2/31/1 1/32/1
s 2
f 21/1/1 22/2/1 24/3/2 23/4/2
f 23/4/2 24/3/2 26/5/3 25/6/3
f 25/6/3 26/5/3 28/7/4 27/8/4
f 27/8/4 28/7/4 30/9/5 29/10/5
f 29/10/5 30/9/5 32/11/6 31/12/6
f 31/12/6 32/11/6 34/13/7 33/14/7
f 33/14/7 34/13/7 36/15/8 35/16/8
f 35/16/8 36/15/8 38/17/9 37/18/9
f 24/19/10 22/20/10 40/21/10 38/22/10 36/23/10 34/24/10 32/25/10 30/26/10 28/27/10 26/28/10
f 37/18/9 38/17/9 40/29/11 39/30/11
f 39/30/11 40/29/11 22/31/1 21/32/1
s 3
f 41/1/1 43/4/2 44/3/2 42/2/1
f 43/4/2 45/6/3 46/5/3 44/3/2
f 45/6/3 47/8/4 48/7/4 46/5/3
f 47/8/4 49/10/5 50/9/5 48/7/4
f 49/10/5 51/12/6 52/11/6 50/9/5
f 51/12/6 53/14/7 54/13/7 52/11/6
f 53/14/7 55/16/8 56/15/8 54/13/7
f 55/16/8 57/18/9 58/17/9 56/15/8
f 44/19/12 46/28/12 48/27/12 50/26/12 52/25/12 54/24/12 56/23/12 58/22/12 60/21/12 42/20/12
f 57/18/9 59/30/11 60/29/11 58/17/9
f 59/30/11 41/32/1 42/31/1 60/29/11
s 4
f 61/1/1 63/4/2 64/3/2 62/2/1
f 63/4/2 65/6/3 66/5/3 64/3/2
f 65/6/3 67/8/4 68/7/4 66/5/3
f 67/8/4 69/10/5 70/9/5 68/7/4
f 69/10/5 71/12/6 72/11/6 70/9/5
f 71/12/6 73/14/7 74/13/7 72/11/6
f 73/14/7 75/16/8 76/15/8 74/13/7
f 75/16/8 77/18/9 78/17/9 76/15/8
f 64/19/12 66/28/12 68/27/12 70/26/12 72/25/12 74/24/12 76/23/12 78/22/12 80/21/12 62/20/12
f 77/18/9 79/30/11 80/29/11 78/17/9
f 79/30/11 61/32/1 62/31/1 80/29/11
f 61/32/10 79/30/10 77/18/10 75/16/10 73/14/10 71/12/10 69/10/10 67/8/10 65/6/10 63/4/10
s 2
f 21/32/12 23/4/12 25/6/12 27/8/12 29/10/12 31/12/12 33/14/12 35/16/12 37/18/12 39/30/12
s 1
f 1/32/12 3/4/12 5/6/12 7/8/12 9/10/12 11/12/12 13/14/12 15/16/12 17/18/12 19/30/12
s 3
f 41/32/10 59/30/10 57/18/10 55/16/10 53/14/10 51/12/10 49/10/10 47/8/10 45/6/10 43/4/10
s 5
f 93/33/13 103/34/13 98/35/13 91/36/13
f 167/37/14 173/38/15 97/38/15 90/37/14
f 84/39/16 163/39/16 219/40/17 157/40/17
f 121/41/18 118/42/19 135/42/20 136/41/21
f 86/43/13 83/44/13 89/45/13 87/46/13
f 81/47/10 84/39/22 92/48/23 91/49/24 98/50/10 102/51/10 101/52/10 152/53/10 100/54/10 99/55/10
f 91/49/24 92/48/23 85/56/25 83/57/26
f 87/46/13 89/45/13 104/58/13 109/59/13
f 197/60/27 198/60/27 124/60/27 123/60/27
f 115/61/28 116/62/29 133/62/30 130/61/31
f 88/63/32 96/64/10 148/65/10 149/66/10 95/67/10 105/67/10 108/68/10 107/69/33
f 112/70/34 113/71/34 128/71/34 129/70/34
f 81/47/35 160/47/35 163/39/16 84/39/16
f 86/43/13 93/33/13 91/36/13 83/44/13
f 85/56/25 88/63/32 107/69/33 150/72/36 106/73/36 104/67/36 89/67/36 83/57/26
f 154/74/17 216/74/17 161/75/17 82/75/17
f 125/76/37 199/76/37 196/76/37 122/76/37
f 95/45/13 171/45/13 180/45/13 105/45/13
f 196/76/38 165/63/39 88/63/39 122/76/38
f 97/77/40 88/63/32 111/78/41 110/79/42
f 88/63/32 85/56/25 112/70/43 111/78/41
f 85/56/25 90/80/44 113/71/45 112/70/43
f 90/80/44 97/77/40 110/79/42 113/71/45
f 92/48/23 94/81/46 115/61/28 114/82/47
f 94/81/46 90/80/44 116/62/29 115/61/28
f 90/80/44 85/56/25 117/83/48 116/62/29
f 85/56/25 92/48/23 114/82/47 117/83/48
f 84/39/22 82/75/49 119/84/50 118/42/19
f 82/75/49 94/81/46 120/85/51 119/84/50
f 94/81/46 92/48/23 121/41/18 120/85/51
f 92/48/23 84/39/22 118/42/19 121/41/18
f 199/76/38 125/76/38 124/60/38 198/60/38
f 88/63/39 97/38/15 123/60/38 122/76/38
f 97/38/15 173/38/15 197/60/38 123/60/38
f 172/86/52 96/86/52 88/63/39 165/63/39
f 127/79/53 126/78/53 129/70/53 128/71/53
f 122/76/54 123/60/54 124/60/54 125/76/54
s 6
f 131/82/55 130/61/55 133/62/55 132/83/55
s 7
f 135/42/55 134/84/55 137/85/55 136/41/55
s 5
f 110/79/56 111/78/57 126/78/57 127/79/58
f 116/62/29 117/83/48 132/83/59 133/62/30
f 119/84/50 120/85/51 137/85/60 134/84/61
f 113/71/62 110/79/56 127/79/58 128/71/62
f 114/82/47 115/61/28 130/61/31 131/82/63
f 120/85/51 121/41/18 136/41/21 137/85/60
f 111/78/64 112/70/64 129/70/64 126/78/64
f 117/83/48 114/82/47 131/82/63 132/83/59
f 118/42/19 119/84/50 134/84/61 135/42/20
f 108/68/65 105/67/66 139/67/66 142/68/65
f 150/72/67 107/69/68 141/69/68 151/72/67
f 107/69/68 108/68/65 142/68/65 141/69/68
f 104/67/69 106/73/70 140/73/70 138/67/69
f 99/55/71 100/54/72 145/54/72 144/55/71
f 102/51/73 98/50/74 143/50/74 147/51/73
f 152/53/75 101/52/76 146/52/76 153/53/75
f 101/52/76 102/51/73 147/51/73 146/52/76
f 149/87/77 213/87/77 171/45/78 95/45/78
f 96/86/52 172/86/52 212/88/79 148/88/79
f 94/89/80 170/89/80 167/37/14 90/37/14
f 212/88/79 213/87/77 149/87/77 148/88/79
f 106/73/70 150/72/67 151/72/67 140/73/70
f 100/54/72 152/53/75 153/53/75 145/54/72
f 219/40/81 220/40/81 158/40/82 157/40/82
f 221/90/17 217/74/17 155/74/17 159/90/17 158/40/17 220/40/17
f 82/75/17 84/91/16 156/90/17 154/74/17
f 156/90/17 84/91/16 157/40/17
f 155/74/83 217/74/83 216/74/83 154/74/83
f 156/90/84 157/40/82 158/40/82 159/90/84
f 154/74/85 156/90/85 159/90/85 155/74/85
f 175/92/13 160/47/13 81/47/13 99/92/13
f 93/33/13 168/36/13 174/35/13 103/34/13
f 195/41/86 210/41/87 209/42/88 192/42/89
f 86/43/13 87/46/13 166/45/13 162/44/13
f 160/47/12 175/55/12 176/54/12 215/53/12 177/52/12 178/51/12 174/50/12 168/49/90 169/48/91 163/39/92
f 168/49/90 162/57/93 164/56/94 169/48/91
f 87/46/13 109/59/13 179/58/13 166/45/13
f 189/61/95 204/61/96 207/62/97 190/62/98
f 165/63/99 182/69/100 183/68/12 180/67/12 171/67/12 213/66/12 212/65/12 172/64/12
f 186/70/101 203/70/101 202/71/101 187/71/101
f 86/43/13 162/44/13 168/36/13 93/33/13
f 164/56/94 162/57/93 166/67/102 179/67/102 181/73/102 214/72/102 182/69/100 165/63/99
f 173/77/103 184/79/104 185/78/105 165/63/99
f 165/63/99 185/78/105 186/70/106 164/56/94
f 164/56/94 186/70/106 187/71/107 167/80/108
f 167/80/108 187/71/107 184/79/104 173/77/103
f 169/48/91 188/82/109 189/61/95 170/81/110
f 170/81/110 189/61/95 190/62/98 167/80/108
f 167/80/108 190/62/98 191/83/111 164/56/94
f 164/56/94 191/83/111 188/82/109 169/48/91
f 163/39/92 192/42/89 193/84/112 161/75/113
f 161/75/113 193/84/112 194/85/114 170/81/110
f 170/81/110 194/85/114 195/41/86 169/48/91
f 169/48/91 195/41/86 192/42/89 163/39/92
f 165/63/39 196/76/38 197/60/38 173/38/15
f 201/79/115 202/71/115 203/70/115 200/78/115
f 196/76/116 199/76/116 198/60/116 197/60/116
s 8
f 205/82/117 206/83/117 207/62/117 204/61/117
s 9
f 209/42/117 210/41/117 211/85/117 208/84/117
s 5
f 184/79/118 201/79/119 200/78/120 185/78/120
f 190/62/98 207/62/97 206/83/121 191/83/111
f 193/84/112 208/84/122 211/85/123 194/85/114
f 187/71/124 202/71/124 201/79/119 184/79/118
f 188/82/109 205/82/125 204/61/96 189/61/95
f 194/85/114 211/85/123 210/41/87 195/41/86
f 185/78/126 200/78/126 203/70/126 186/70/126
f 191/83/111 206/83/121 205/82/125 188/82/109
f 192/42/89 209/42/88 208/84/122 193/84/112
f 183/68/65 142/68/65 139/67/66 180/67/66
f 214/72/67 151/72/67 141/69/68 182/69/68
f 182/69/68 141/69/68 142/68/65 183/68/65
f 179/67/69 138/67/69 140/73/70 181/73/70
f 175/55/71 144/55/71 145/54/72 176/54/72
f 178/51/73 147/51/73 143/50/74 174/50/74
f 215/53/75 153/53/75 146/52/76 177/52/76
f 177/52/76 146/52/76 147/51/73 178/51/73
f 181/73/70 140/73/70 151/72/67 214/72/67
f 176/54/72 145/54/72 153/53/75 215/53/75
f 161/75/17 216/74/17 218/90/17 163/91/16
f 218/90/17 219/40/17 163/91/16
f 218/90/127 221/90/127 220/40/81 219/40/81
f 216/74/128 217/74/128 221/90/128 218/90/128
s 10
f 222/93/129 223/94/129 225/95/129 224/96/129
s 11
f 240/97/130 241/98/130 226/99/131 231/100/132 230/101/133
f 230/101/133 231/100/132 223/102/134 222/103/134
s 12
f 242/104/135 227/105/136 226/99/137 241/98/138
s 13
f 229/106/139 225/107/139 223/108/139 231/109/139
s 12
f 224/110/13 228/111/13 230/112/13 222/113/13
s 14
f 228/114/140 229/115/140 227/105/140 242/104/140 243/116/140
f 224/96/140 225/95/140 229/115/140 228/114/140
s 12
f 229/106/141 231/109/141 235/117/142 232/118/143
s 11
f 231/100/132 226/99/131 238/119/144 239/120/144 234/121/144 235/122/144
s 14
f 227/105/140 229/115/140 232/123/140 233/124/140 236/125/140 237/126/140
s 12
f 232/118/143 235/117/142 234/127/145 233/128/146
f 226/99/137 227/105/136 237/126/147 238/119/148
f 236/129/149 233/128/146 234/127/145 239/130/150
f 239/130/150 238/119/148 237/126/147 236/129/149
f 240/131/151 243/132/152 242/104/135 241/98/138
f 228/111/13 243/132/152 240/131/151 230/112/13
s 15
f 244/93/153 246/96/153 247/95/153 245/94/153
s 16
f 262/97/154 252/101/155 253/100/156 248/99/157 263/98/154
f 252/101/155 244/103/158 245/102/158 253/100/156
s 17
f 264/104/159 263/98/160 248/99/161 249/105/162
s 18
f 251/106/139 253/109/139 245/108/139 247/107/139
s 17
f 246/110/13 244/113/13 252/112/13 250/111/13
s 19
f 250/114/163 265/116/163 264/104/163 249/105/163 251/115/163
f 246/96/163 250/114/163 251/115/163 247/95/163
s 17
f 251/106/164 254/118/165 257/117/166 253/109/164
s 16
f 253/100/156 257/122/167 256/121/167 261/120/167 260/119/167 248/99/157
s 19
f 249/105/163 259/126/163 258/125/163 255/124/163 254/123/163 251/115/163
s 17
f 254/118/165 255/128/168 256/127/169 257/117/166
f 248/99/161 260/119/170 259/126/171 249/105/162
f 258/129/172 261/130/173 256/127/169 255/128/168
f 261/130/173 258/129/172 259/126/171 260/119/170
f 262/131/174 263/98/160 264/104/159 265/132/175
f 250/111/13 252/112/13 262/131/174 265/132/175
s 5
f 82/75/176 161/75/176 170/89/80 94/89/80
