# Blender 4.0.2
# www.blender.org
mtllib SM_longboard_LP_green.mtl
g Plane.014_Plane.026
v -0.203605 0.169678 -0.034822
v -0.151659 0.169678 -0.554378
v -0.117891 0.169678 0.708954
v -0.203132 0.169678 -0.246868
v -0.094254 0.169678 -0.649843
v -0.176911 0.169678 0.331068
v 0.000000 0.169678 0.674438
v -0.181419 0.169678 -0.458914
v 0.203605 0.169678 -0.034822
v 0.151659 0.169678 -0.554378
v 0.117891 0.169678 0.708954
v 0.203132 0.169678 -0.246868
v 0.094254 0.169678 -0.649843
v 0.176911 0.169678 0.331068
v 0.181419 0.169678 -0.458914
v 0.000000 0.169678 -0.716046
v -0.203605 0.150628 -0.034822
v -0.151659 0.150628 -0.554378
v -0.117891 0.150628 0.708954
v -0.203132 0.150628 -0.246868
v -0.094254 0.150628 -0.649843
v -0.176911 0.150628 0.331068
v 0.000000 0.150628 0.674438
v -0.181419 0.150628 -0.458914
v 0.203605 0.150628 -0.034822
v 0.151659 0.150628 -0.554378
v 0.117891 0.150628 0.708954
v 0.203132 0.150628 -0.246868
v 0.094254 0.150628 -0.649843
v 0.176911 0.150628 0.331068
v 0.181419 0.150628 -0.458914
v 0.000000 0.150628 -0.716046
v -0.176946 0.051906 -0.582319
v -0.176946 0.069062 -0.572414
v -0.176946 0.069062 -0.552604
v -0.176946 0.051906 -0.542699
v -0.176946 0.034750 -0.552604
v -0.176946 0.034750 -0.572414
v -0.183110 0.051906 -0.614415
v -0.183110 0.096857 -0.588462
v -0.183110 0.096857 -0.536556
v -0.183110 0.051906 -0.510603
v -0.183110 0.006954 -0.536556
v -0.183110 0.006954 -0.588462
v -0.116054 0.051906 -0.582319
v -0.116054 0.069062 -0.572414
v -0.116054 0.069062 -0.552604
v -0.116054 0.051906 -0.542699
v -0.116054 0.034750 -0.552604
v -0.116054 0.034750 -0.572414
v -0.109889 0.051906 -0.614415
v -0.109889 0.096857 -0.588462
v -0.109890 0.096857 -0.536556
v -0.109890 0.051906 -0.510603
v -0.109890 0.006954 -0.536556
v -0.109890 0.006954 -0.588462
v -0.176946 0.051906 0.582319
v -0.176946 0.069062 0.572414
v -0.176946 0.069062 0.552604
v -0.176946 0.051906 0.542699
v -0.176946 0.034750 0.552604
v -0.176946 0.034750 0.572414
v -0.183110 0.051906 0.614415
v -0.183110 0.096857 0.588462
v -0.183110 0.096857 0.536556
v -0.183110 0.051906 0.510603
v -0.183110 0.006954 0.536556
v -0.183110 0.006954 0.588462
v -0.116054 0.051906 0.582319
v -0.116054 0.069062 0.572414
v -0.116054 0.069062 0.552604
v -0.116054 0.051906 0.542699
v -0.116054 0.034750 0.552604
v -0.116054 0.034750 0.572414
v -0.109889 0.051906 0.614415
v -0.109889 0.096857 0.588462
v -0.109890 0.096857 0.536556
v -0.109890 0.051906 0.510603
v -0.109890 0.006954 0.536556
v -0.109890 0.006954 0.588462
v 0.176946 0.051906 -0.582319
v 0.176946 0.069062 -0.572414
v 0.176946 0.069062 -0.552604
v 0.176946 0.051906 -0.542699
v 0.176946 0.034749 -0.552604
v 0.176946 0.034749 -0.572414
v 0.183110 0.051906 -0.614415
v 0.183110 0.096857 -0.588462
v 0.183110 0.096857 -0.536556
v 0.183110 0.051906 -0.510603
v 0.183110 0.006954 -0.536556
v 0.183110 0.006954 -0.588462
v 0.116054 0.051906 -0.582319
v 0.116054 0.069062 -0.572414
v 0.116054 0.069062 -0.552604
v 0.116054 0.051906 -0.542699
v 0.116054 0.034749 -0.552604
v 0.116054 0.034749 -0.572414
v 0.109890 0.051906 -0.614415
v 0.109890 0.096857 -0.588462
v 0.109890 0.096857 -0.536556
v 0.109890 0.051906 -0.510603
v 0.109890 0.006954 -0.536556
v 0.109890 0.006954 -0.588462
v 0.176946 0.051906 0.582319
v 0.176946 0.069062 0.572414
v 0.176946 0.069062 0.552604
v 0.176946 0.051906 0.542699
v 0.176946 0.034749 0.552604
v 0.176946 0.034749 0.572414
v 0.183110 0.051906 0.614415
v 0.183110 0.096857 0.588462
v 0.183110 0.096857 0.536556
v 0.183110 0.051906 0.510603
v 0.183110 0.006954 0.536556
v 0.183110 0.006954 0.588462
v 0.116054 0.051906 0.582319
v 0.116054 0.069062 0.572414
v 0.116054 0.069062 0.552604
v 0.116054 0.051906 0.542699
v 0.116054 0.034749 0.552604
v 0.116054 0.034749 0.572414
v 0.109890 0.051906 0.614415
v 0.109890 0.096857 0.588462
v 0.109890 0.096857 0.536556
v 0.109890 0.051906 0.510603
v 0.109890 0.006954 0.536556
v 0.109890 0.006954 0.588462
v -0.171825 0.085009 -0.562931
v -0.171825 0.057672 -0.595108
v -0.171825 0.046140 -0.529909
v -0.171825 0.018803 -0.562086
v 0.171829 0.085009 -0.562931
v 0.171830 0.057672 -0.595108
v 0.171830 0.046140 -0.529909
v 0.171829 0.018803 -0.562086
v -0.171826 0.085009 0.562931
v -0.171826 0.057672 0.595108
v -0.171826 0.046140 0.529909
v -0.171826 0.018803 0.562086
v 0.171829 0.085008 0.562931
v 0.171829 0.057672 0.595108
v 0.171829 0.046139 0.529909
v 0.171829 0.018803 0.562086
v -0.046537 0.066039 -0.562689
v -0.007018 0.128702 -0.488931
v 0.046536 0.066039 -0.562689
v 0.007016 0.128702 -0.488931
v -0.046537 0.053344 -0.551904
v 0.046536 0.053344 -0.551904
v -0.007018 0.116007 -0.478146
v 0.007016 0.116007 -0.478146
v 0.142632 0.066039 -0.562689
v -0.142634 0.066039 -0.562689
v 0.142632 0.054368 -0.576427
v -0.142634 0.054368 -0.576427
v -0.142634 0.049444 -0.548591
v -0.142634 0.037773 -0.562328
v 0.142632 0.037773 -0.562328
v 0.142632 0.049444 -0.548591
v -0.046538 0.066038 0.562689
v -0.007018 0.128701 0.488931
v 0.046535 0.066038 0.562689
v 0.007016 0.128701 0.488931
v -0.046538 0.053344 0.551904
v 0.046535 0.053344 0.551904
v -0.007018 0.116007 0.478146
v 0.007016 0.116007 0.478146
v 0.142632 0.066038 0.562689
v -0.142634 0.066038 0.562689
v 0.142632 0.054367 0.576427
v -0.142634 0.054367 0.576427
v -0.142634 0.049444 0.548591
v -0.142634 0.037773 0.562328
v 0.142632 0.037773 0.562329
v 0.142632 0.049444 0.548591
vn -0.0000 1.0000 -0.0000
vn -0.0000 -1.0000 -0.0000
vn -0.9994 -0.0000 0.0353
vn -0.9986 -0.0000 -0.0521
vn -0.9796 -0.0000 -0.2007
vn -0.9124 -0.0000 -0.4094
vn -0.7317 -0.0000 -0.6816
vn -0.2810 -0.0000 0.9597
vn -0.0000 -0.0000 1.0000
vn -0.9880 -0.0000 0.1543
vn -0.9935 -0.0000 0.1136
vn 0.9986 -0.0000 -0.0521
vn 0.9994 -0.0000 0.0353
vn 0.5748 -0.0000 -0.8183
vn 0.7317 -0.0000 -0.6816
vn 0.9124 -0.0000 -0.4094
vn 0.9796 -0.0000 -0.2007
vn 0.2810 -0.0000 0.9597
vn 0.9935 -0.0000 0.1136
vn 0.9880 -0.0000 0.1543
vn -0.5748 -0.0000 -0.8183
vn -0.0000 0.8660 0.5000
vn -0.0000 0.8660 -0.5000
vn -0.0000 -0.8660 0.5000
vn -0.0000 -0.8660 -0.5000
vn -0.0000 -0.0000 -1.0000
vn -0.9821 -0.1633 -0.0943
vn -0.9821 -0.1634 -0.0943
vn -0.9821 -0.1633 0.0943
vn -0.9821 -0.0000 -0.1886
vn -0.9821 0.1634 -0.0943
vn -0.9821 0.1634 0.0943
vn -0.9820 0.1634 0.0943
vn -0.9821 -0.0000 0.1886
vn -0.9820 -0.0000 0.1886
vn 0.9821 -0.1634 -0.0943
vn 0.9820 -0.1634 0.0943
vn 0.9821 -0.0000 -0.1886
vn 0.9821 0.1633 -0.0943
vn 0.9821 0.1634 -0.0943
vn 0.9820 0.1634 0.0943
vn 0.9820 -0.0000 0.1886
vn 0.9821 -0.0000 0.1886
vn -0.9820 0.1634 -0.0943
vn -0.9820 -0.0000 -0.1886
vn 0.9821 -0.1634 0.0943
vn 0.9820 -0.1634 -0.0943
vn 0.9821 0.1633 0.0943
vn 0.9821 0.1634 0.0943
vn 0.9820 0.1634 -0.0943
vn 0.9820 -0.0000 -0.1886
vn -1.0000 -0.0000 -0.0000
vn 1.0000 -0.0000 -0.0000
vn -0.0000 0.7621 -0.6475
vn -0.9258 0.2448 0.2881
vn -0.0000 -0.7621 0.6475
vn 0.9258 0.2448 0.2881
vn -0.0000 -0.6475 -0.7621
vn -0.0000 0.6475 0.7621
vn -0.0000 0.7621 0.6475
vn -0.9258 0.2448 -0.2881
vn -0.0000 -0.7621 -0.6475
vn 0.9258 0.2448 -0.2881
vn -0.0000 -0.6475 0.7621
vn -0.0000 0.6475 -0.7621
vt 0.218563 0.439706
vt 0.367141 0.439706
vt 0.342357 0.598389
vt 0.292852 0.583894
vt 0.243347 0.598389
vt 0.332432 0.027800
vt 0.356537 0.067888
vt 0.229167 0.067888
vt 0.253273 0.027800
vt 0.216670 0.107975
vt 0.369034 0.107975
vt 0.378351 0.286061
vt 0.207354 0.286061
vt 0.292852 -0.000000
vt 0.207553 0.197018
vt 0.378152 0.197018
vt 0.186223 0.439706
vt 0.161439 0.598389
vt 0.111934 0.583894
vt 0.062429 0.598389
vt 0.037645 0.439706
vt 0.072355 0.027800
vt 0.151514 0.027800
vt 0.175619 0.067888
vt 0.048249 0.067888
vt 0.188116 0.107975
vt 0.035752 0.107975
vt 0.026436 0.286061
vt 0.197433 0.286061
vt 0.111934 -0.000000
vt 0.026635 0.197018
vt 0.197234 0.197018
vt 0.002500 0.315686
vt 0.002500 0.226643
vt 0.010500 0.226643
vt 0.010500 0.315686
vt 0.002500 0.137135
vt 0.002500 0.095144
vt 0.010500 0.095144
vt 0.010500 0.137135
vt 0.002500 0.048367
vt 0.010500 0.048367
vt 0.198492 0.495000
vt 0.198492 0.546583
vt 0.190492 0.546583
vt 0.190492 0.495000
vt 0.002500 0.630346
vt 0.002500 0.469739
vt 0.010500 0.469739
vt 0.010500 0.630346
vt 0.010500 0.403703
vt 0.010500 0.314660
vt 0.018499 0.314660
vt 0.018499 0.403703
vt 0.010500 0.630346
vt 0.010500 0.581979
vt 0.018499 0.581979
vt 0.018499 0.630346
vt 0.010500 0.535202
vt 0.010500 0.493211
vt 0.018499 0.493211
vt 0.018499 0.535202
vt 0.198492 0.598166
vt 0.190492 0.598166
vt 0.010500 0.160607
vt 0.010500 0.000000
vt 0.018499 0.000000
vt 0.018499 0.160607
vt 0.002500 -0.000000
vt 0.010500 -0.000000
vt 0.843360 0.859407
vt 0.799488 0.859407
vt 0.799488 0.891605
vt 0.843360 0.891605
vt 0.887232 0.859407
vt 0.799488 0.923802
vt 0.843360 0.923802
vt 0.887232 0.923802
vt 0.843360 0.923802
vt 0.887232 0.891605
vt 0.843360 0.891605
vt 0.909164 0.925857
vt 0.895340 0.912039
vt 0.925640 0.903920
vt 0.920578 0.922802
vt 0.906114 0.937266
vt 0.887232 0.942328
vt 0.914465 0.945626
vt 0.909403 0.964508
vt 0.925879 0.942571
vt 0.939703 0.956389
vt 0.928930 0.931162
vt 0.947811 0.926100
vt 0.887232 0.939901
vt 0.850747 0.939901
vt 0.850747 0.952190
vt 0.887232 0.952190
vt 0.850747 0.939901
vt 0.814263 0.939901
vt 0.814263 0.952190
vt 0.850747 0.952190
vt 0.906110 0.870553
vt 0.914460 0.862199
vt 0.909367 0.843325
vt 0.887232 0.865481
vt 0.909166 0.881966
vt 0.895333 0.895774
vt 0.920570 0.885036
vt 0.925597 0.903920
vt 0.928911 0.876679
vt 0.947797 0.881773
vt 0.925858 0.865271
vt 0.939671 0.851420
vt 0.850747 0.964478
vt 0.814263 0.964478
vt 0.814263 0.976767
vt 0.850747 0.976767
vt 0.850747 0.964478
vt 0.887232 0.964478
vt 0.850747 0.976767
vt 0.887232 0.976767
vt 0.137439 0.899646
vt 0.167896 0.899646
vt 0.167896 0.862854
vt 0.137439 0.862854
vt 0.211696 0.747425
vt 0.222939 0.747425
vt 0.254598 0.824959
vt 0.180037 0.824959
vt 0.153348 0.831621
vt 0.153348 0.747425
vt 0.166692 0.747425
vt 0.166692 0.831621
vt 0.114776 0.855724
vt 0.189338 0.855724
vt 0.157678 0.933258
vt 0.146435 0.933258
vt 0.026188 0.975954
vt 0.026188 0.747425
vt 0.040629 0.747425
vt 0.040629 0.975954
vt 0.166692 0.831621
vt 0.166692 0.747425
vt 0.180037 0.747425
vt 0.180037 0.831621
vt 0.058073 0.975954
vt 0.058073 0.747425
vt 0.075517 0.975954
vt 0.058073 0.975954
vt 0.058073 0.898970
vt 0.071417 0.898970
vt 0.071417 0.824409
vt 0.058073 0.824409
vt 0.075517 0.747425
vt 0.075517 0.975954
vt 0.075517 0.747425
vt 0.089958 0.747425
vt 0.089958 0.824409
vt 0.089958 0.898970
vt 0.089958 0.975954
s 1
g off
g Plane.014_longboards
usemtl longboards
f 14/1/1 6/2/1 3/3/1 7/4/1 11/5/1
f 5/6/1 2/7/1 10/8/1 13/9/1
f 15/10/1 10/8/1 2/7/1 8/11/1
f 1/12/1 6/2/1 14/1/1 9/13/1
f 16/14/1 5/6/1 13/9/1
f 9/13/1 12/15/1 4/16/1 1/12/1
f 15/10/1 8/11/1 4/16/1 12/15/1
f 30/17/2 27/18/2 23/19/2 19/20/2 22/21/2
f 21/22/2 29/23/2 26/24/2 18/25/2
f 31/26/2 24/27/2 18/25/2 26/24/2
f 17/28/2 25/29/2 30/17/2 22/21/2
f 32/30/2 29/23/2 21/22/2
f 25/29/2 17/28/2 20/31/2 28/32/2
f 31/26/2 28/32/2 20/31/2 24/27/2
f 1/33/3 4/34/4 20/35/4 17/36/3
f 8/37/5 2/38/6 18/39/6 24/40/5
f 2/38/6 5/41/7 21/42/7 18/39/6
f 11/43/8 7/44/9 23/45/9 27/46/8
f 3/47/10 6/48/11 22/49/11 19/50/10
f 12/51/12 9/52/13 25/53/13 28/54/12
f 16/55/14 13/56/15 29/57/15 32/58/14
f 10/59/16 15/60/17 31/61/17 26/62/16
f 13/56/15 10/59/16 26/62/16 29/57/15
f 7/44/9 3/63/18 19/64/18 23/45/9
f 14/65/19 11/66/20 27/67/20 30/68/19
f 6/48/11 1/33/3 17/36/3 22/49/11
f 9/52/13 14/65/19 30/68/19 25/53/13
f 4/34/4 8/37/5 24/40/5 20/35/4
f 15/60/17 12/51/12 28/54/12 31/61/17
f 5/41/7 16/69/21 32/70/21 21/42/7
s 2
f 53/71/22 41/72/22 42/73/9 54/74/9
f 52/71/23 40/75/23 41/72/22 53/71/22
f 54/74/9 42/73/9 43/76/24 55/77/24
f 55/77/24 43/76/24 44/78/25 56/79/25
f 56/79/25 44/78/25 39/80/26 51/81/26
f 35/82/27 41/83/28 40/84/29 34/85/29
f 36/86/30 42/87/30 41/83/28 35/82/27
f 37/88/31 43/89/31 42/87/30 36/86/30
f 38/90/32 44/91/33 43/89/31 37/88/31
f 33/92/34 39/93/35 44/91/33 38/90/32
f 45/94/9 33/95/9 38/96/22 50/97/22
f 51/81/26 39/80/26 40/75/23 52/71/23
f 48/98/26 36/99/26 35/100/25 47/101/25
f 47/102/36 46/103/37 52/104/37 53/105/36
f 48/106/38 47/102/36 53/105/36 54/107/38
f 49/108/39 48/106/38 54/107/38 55/109/40
f 50/110/41 49/108/39 55/109/40 56/111/41
f 45/112/42 50/110/41 56/111/41 51/113/43
f 46/114/24 47/101/25 35/100/25 34/115/24
f 46/114/24 34/115/24 33/116/9 45/117/9
f 50/97/22 38/96/22 37/118/23 49/119/23
f 46/103/37 45/112/42 51/113/43 52/104/37
f 49/119/23 37/118/23 36/120/26 48/121/26
f 34/85/29 40/84/29 39/93/35 33/92/34
s 3
f 77/71/23 78/74/26 66/73/26 65/72/23
f 76/71/22 77/71/23 65/72/23 64/75/22
f 78/74/26 79/77/25 67/76/25 66/73/26
f 79/77/25 80/79/24 68/78/24 67/76/25
f 80/79/24 75/81/9 63/80/9 68/78/24
f 59/82/29 58/85/27 64/84/27 65/83/29
f 60/86/34 59/82/29 65/83/29 66/87/34
f 61/88/32 60/86/34 66/87/34 67/89/32
f 62/90/31 61/88/32 67/89/32 68/91/44
f 57/92/45 62/90/31 68/91/44 63/93/45
f 69/94/26 74/97/23 62/96/23 57/95/26
f 75/81/9 76/71/22 64/75/22 63/80/9
f 72/98/9 71/101/24 59/100/24 60/99/9
f 71/102/46 77/105/46 76/104/47 70/103/47
f 72/106/43 78/107/43 77/105/46 71/102/46
f 73/108/48 79/109/49 78/107/43 72/106/43
f 74/110/50 80/111/50 79/109/49 73/108/48
f 69/112/51 75/113/38 80/111/50 74/110/50
f 70/114/25 58/115/25 59/100/24 71/101/24
f 70/114/25 69/117/26 57/116/26 58/115/25
f 74/97/23 73/119/22 61/118/22 62/96/23
f 70/103/47 76/104/47 75/113/38 69/112/51
f 73/119/22 72/121/9 60/120/9 61/118/22
f 58/85/27 57/92/45 63/93/45 64/84/27
s 4
f 101/71/22 102/74/9 90/73/9 89/72/22
f 100/71/23 101/71/22 89/72/22 88/75/23
f 102/74/9 103/77/24 91/76/24 90/73/9
f 103/77/24 104/79/25 92/78/25 91/76/24
f 104/79/25 99/81/26 87/80/26 92/78/25
f 83/82/47 82/85/37 88/84/37 89/83/47
f 84/86/38 83/82/47 89/83/47 90/87/38
f 85/88/39 84/86/38 90/87/38 91/89/39
f 86/90/48 85/88/39 91/89/39 92/91/48
f 81/92/43 86/90/48 92/91/48 87/93/43
f 93/94/9 98/97/22 86/96/22 81/95/9
f 99/81/26 100/71/23 88/75/23 87/80/26
f 96/98/26 95/101/25 83/100/25 84/99/26
f 95/102/27 101/105/27 100/104/29 94/103/29
f 96/106/30 102/107/30 101/105/27 95/102/27
f 97/108/31 103/109/31 102/107/30 96/106/30
f 98/110/33 104/111/33 103/109/31 97/108/31
f 93/112/34 99/113/34 104/111/33 98/110/33
f 94/114/24 82/115/24 83/100/25 95/101/25
f 94/114/24 93/117/9 81/116/9 82/115/24
f 98/97/22 97/119/23 85/118/23 86/96/22
f 94/103/29 100/104/29 99/113/34 93/112/34
f 97/119/23 96/121/26 84/120/26 85/118/23
f 82/85/37 81/92/43 87/93/43 88/84/37
s 5
f 125/71/23 113/72/23 114/73/26 126/74/26
f 124/71/22 112/75/22 113/72/23 125/71/23
f 126/74/26 114/73/26 115/76/25 127/77/25
f 127/77/25 115/76/25 116/78/24 128/79/24
f 128/79/24 116/78/24 111/80/9 123/81/9
f 107/82/37 113/83/37 112/84/47 106/85/47
f 108/86/43 114/87/43 113/83/37 107/82/37
f 109/88/48 115/89/48 114/87/43 108/86/43
f 110/90/39 116/91/39 115/89/48 109/88/48
f 105/92/51 111/93/38 116/91/39 110/90/39
f 117/94/26 105/95/26 110/96/23 122/97/23
f 123/81/9 111/80/9 112/75/22 124/71/22
f 120/98/9 108/99/9 107/100/24 119/101/24
f 119/102/29 118/103/27 124/104/27 125/105/29
f 120/106/34 119/102/29 125/105/29 126/107/34
f 121/108/32 120/106/34 126/107/34 127/109/32
f 122/110/44 121/108/32 127/109/32 128/111/44
f 117/112/30 122/110/44 128/111/44 123/113/30
f 118/114/25 119/101/24 107/100/24 106/115/25
f 118/114/25 106/115/25 105/116/26 117/117/26
f 122/97/23 110/96/23 109/118/22 121/119/22
f 118/103/27 117/112/30 123/113/30 124/104/27
f 121/119/22 109/118/22 108/120/9 120/121/9
f 106/85/47 112/84/47 111/93/38 105/92/51
s 6
f 132/122/52 131/123/52 129/124/52 130/125/52
s 7
f 136/122/53 134/125/53 133/124/53 135/123/53
s 8
f 140/122/52 138/125/52 137/124/52 139/123/52
s 9
f 144/122/53 143/123/53 141/124/53 142/125/53
s 10
f 146/126/54 148/127/54 147/128/54 145/129/54
f 146/130/55 145/131/55 149/132/55 151/133/55
f 149/134/56 150/135/56 152/136/56 151/137/56
f 160/138/56 157/139/56 158/140/56 159/141/56
f 147/142/57 148/143/57 152/144/57 150/145/57
f 155/146/58 159/141/58 158/140/58 156/147/58
f 160/148/59 153/149/59 147/150/59 150/151/59 149/152/59 145/153/59 154/147/59 157/154/59
f 155/155/54 156/156/54 154/157/54 145/158/54 147/159/54 153/160/54
s 11
f 162/126/60 161/129/60 163/128/60 164/127/60
f 162/130/61 167/133/61 165/132/61 161/131/61
f 165/134/62 167/137/62 168/136/62 166/135/62
f 176/138/62 175/141/62 174/140/62 173/139/62
f 163/142/63 166/145/63 168/144/63 164/143/63
f 171/146/64 172/147/64 174/140/64 175/141/64
f 176/148/65 173/154/65 170/147/65 161/153/65 165/152/65 166/151/65 163/150/65 169/149/65
f 171/155/60 169/160/60 163/159/60 161/158/60 170/157/60 172/156/60
