# Blender 4.0.2
# www.blender.org
mtllib SM_longboard_LP_blue.mtl
g Plane.013_Plane.025
v 0.061037 0.169678 -0.712500
v -0.061043 0.169678 -0.712500
v -0.146119 0.169678 0.000000
v 0.146113 0.169678 0.000000
v 0.161073 0.169678 -0.371150
v -0.161079 0.169678 -0.371150
v -0.079135 0.169678 -0.502589
v 0.079129 0.169678 -0.502589
v 0.061037 0.169678 0.712500
v -0.061043 0.169678 0.712500
v 0.161073 0.169678 0.371150
v -0.161079 0.169678 0.371150
v -0.079135 0.169678 0.502589
v 0.079129 0.169678 0.502589
v 0.061037 0.150628 -0.712500
v -0.061043 0.150628 -0.712500
v -0.146119 0.150628 0.000000
v 0.146113 0.150628 0.000000
v 0.161073 0.150628 -0.371150
v -0.161079 0.150628 -0.371150
v -0.079135 0.150628 -0.502589
v 0.079129 0.150628 -0.502589
v 0.061037 0.150628 0.712500
v -0.061043 0.150628 0.712500
v 0.161073 0.150628 0.371150
v -0.161079 0.150628 0.371150
v -0.079135 0.150628 0.502589
v 0.079129 0.150628 0.502589
v -0.170467 0.051906 -0.582319
v -0.170467 0.069062 -0.572414
v -0.170467 0.069062 -0.552604
v -0.170467 0.051906 -0.542699
v -0.170467 0.034750 -0.552604
v -0.170467 0.034750 -0.572414
v -0.183112 0.051906 -0.614415
v -0.183112 0.096857 -0.588462
v -0.183112 0.096857 -0.536556
v -0.183112 0.051906 -0.510603
v -0.183112 0.006954 -0.536556
v -0.183112 0.006954 -0.588462
v -0.122536 0.051906 -0.582319
v -0.122536 0.069062 -0.572414
v -0.122536 0.069062 -0.552604
v -0.122536 0.051906 -0.542699
v -0.122536 0.034750 -0.552604
v -0.122536 0.034750 -0.572414
v -0.109891 0.051906 -0.614415
v -0.109891 0.096857 -0.588462
v -0.109891 0.096857 -0.536556
v -0.109891 0.051906 -0.510603
v -0.109891 0.006954 -0.536556
v -0.109891 0.006954 -0.588462
v -0.184408 0.051906 -0.605287
v -0.184408 0.088952 -0.583898
v -0.184408 0.088952 -0.541120
v -0.184408 0.051906 -0.519731
v -0.184408 0.014859 -0.541120
v -0.184408 0.014859 -0.583898
v -0.108595 0.014859 -0.583898
v -0.108595 0.014859 -0.541120
v -0.108595 0.051906 -0.519731
v -0.108595 0.088952 -0.541120
v -0.108595 0.088952 -0.583898
v -0.108595 0.051906 -0.605287
v -0.170467 0.051906 0.582319
v -0.170467 0.069062 0.572414
v -0.170467 0.069062 0.552604
v -0.170467 0.051906 0.542699
v -0.170467 0.034750 0.552604
v -0.170467 0.034750 0.572414
v -0.183112 0.051906 0.614415
v -0.183112 0.096857 0.588462
v -0.183112 0.096857 0.536556
v -0.183112 0.051906 0.510603
v -0.183112 0.006954 0.536556
v -0.183112 0.006954 0.588462
v -0.122536 0.051906 0.582319
v -0.122536 0.069062 0.572414
v -0.122536 0.069062 0.552604
v -0.122536 0.051906 0.542699
v -0.122536 0.034750 0.552604
v -0.122536 0.034750 0.572414
v -0.109891 0.051906 0.614415
v -0.109891 0.096857 0.588462
v -0.109891 0.096857 0.536556
v -0.109891 0.051906 0.510603
v -0.109891 0.006954 0.536556
v -0.109891 0.006954 0.588462
v -0.184408 0.051906 0.605287
v -0.184408 0.088952 0.583898
v -0.184408 0.088952 0.541120
v -0.184408 0.051906 0.519731
v -0.184408 0.014859 0.541120
v -0.184408 0.014859 0.583898
v -0.108595 0.014859 0.583898
v -0.108595 0.014859 0.541120
v -0.108595 0.051906 0.519731
v -0.108595 0.088952 0.541120
v -0.108595 0.088952 0.583898
v -0.108595 0.051906 0.605287
v 0.170464 0.051906 -0.582319
v 0.170464 0.069062 -0.572414
v 0.170464 0.069062 -0.552604
v 0.170464 0.051906 -0.542699
v 0.170464 0.034749 -0.552604
v 0.170464 0.034749 -0.572414
v 0.183108 0.051906 -0.614415
v 0.183108 0.096857 -0.588462
v 0.183108 0.096857 -0.536556
v 0.183108 0.051906 -0.510603
v 0.183108 0.006954 -0.536556
v 0.183108 0.006954 -0.588462
v 0.122532 0.051906 -0.582319
v 0.122532 0.069062 -0.572414
v 0.122532 0.069062 -0.552604
v 0.122532 0.051906 -0.542699
v 0.122532 0.034749 -0.552604
v 0.122532 0.034749 -0.572414
v 0.109888 0.051906 -0.614415
v 0.109888 0.096857 -0.588462
v 0.109888 0.096857 -0.536556
v 0.109888 0.051906 -0.510603
v 0.109888 0.006954 -0.536556
v 0.109888 0.006954 -0.588462
v 0.184404 0.051906 -0.605287
v 0.184404 0.088952 -0.583898
v 0.184404 0.088952 -0.541120
v 0.184404 0.051906 -0.519731
v 0.184404 0.014859 -0.541120
v 0.184404 0.014859 -0.583898
v 0.108592 0.014859 -0.583898
v 0.108592 0.014859 -0.541120
v 0.108592 0.051906 -0.519731
v 0.108592 0.088952 -0.541120
v 0.108592 0.088952 -0.583898
v 0.108592 0.051906 -0.605287
v 0.170464 0.051906 0.582319
v 0.170464 0.069062 0.572414
v 0.170464 0.069062 0.552604
v 0.170464 0.051906 0.542699
v 0.170464 0.034749 0.552604
v 0.170464 0.034749 0.572414
v 0.183108 0.051906 0.614415
v 0.183108 0.096857 0.588462
v 0.183108 0.096857 0.536556
v 0.183108 0.051906 0.510603
v 0.183108 0.006954 0.536556
v 0.183108 0.006954 0.588462
v 0.122532 0.051906 0.582319
v 0.122532 0.069062 0.572414
v 0.122532 0.069062 0.552604
v 0.122532 0.051906 0.542699
v 0.122532 0.034749 0.552604
v 0.122532 0.034749 0.572414
v 0.109888 0.051906 0.614415
v 0.109888 0.096857 0.588462
v 0.109888 0.096857 0.536556
v 0.109888 0.051906 0.510603
v 0.109888 0.006954 0.536556
v 0.109888 0.006954 0.588462
v 0.184404 0.051906 0.605287
v 0.184404 0.088952 0.583898
v 0.184404 0.088952 0.541120
v 0.184404 0.051906 0.519731
v 0.184404 0.014859 0.541120
v 0.184404 0.014859 0.583898
v 0.108592 0.014859 0.583898
v 0.108592 0.014859 0.541120
v 0.108592 0.051906 0.519731
v 0.108592 0.088952 0.541120
v 0.108592 0.088952 0.583898
v 0.108592 0.051906 0.605287
v -0.171829 0.085009 -0.562931
v -0.171829 0.057672 -0.595108
v -0.171829 0.046140 -0.529909
v -0.171829 0.018803 -0.562086
v 0.171826 0.085009 -0.562931
v 0.171826 0.057672 -0.595108
v 0.171826 0.046140 -0.529909
v 0.171826 0.018803 -0.562086
v -0.171829 0.085009 0.562931
v -0.171829 0.057672 0.595108
v -0.171829 0.046140 0.529909
v -0.171829 0.018803 0.562086
v 0.171825 0.085008 0.562931
v 0.171825 0.057672 0.595108
v 0.171825 0.046139 0.529909
v 0.171825 0.018803 0.562086
v -0.046541 0.066039 -0.562689
v -0.007021 0.128702 -0.488931
v 0.046532 0.066039 -0.562689
v 0.007013 0.128702 -0.488931
v -0.046541 0.053344 -0.551904
v 0.046532 0.053344 -0.551904
v -0.007021 0.116007 -0.478146
v 0.007013 0.116007 -0.478146
v 0.142629 0.066039 -0.562689
v -0.142638 0.066039 -0.562689
v 0.142629 0.054368 -0.576427
v -0.142637 0.054368 -0.576427
v -0.142638 0.049444 -0.548591
v -0.142638 0.037773 -0.562328
v 0.142629 0.037773 -0.562328
v 0.142629 0.049444 -0.548591
v -0.046541 0.066038 0.562689
v -0.007022 0.128701 0.488931
v 0.046531 0.066038 0.562689
v 0.007012 0.128701 0.488931
v -0.046541 0.053344 0.551904
v 0.046531 0.053344 0.551904
v -0.007022 0.116007 0.478146
v 0.007012 0.116007 0.478146
v 0.142628 0.066038 0.562689
v -0.142638 0.066038 0.562689
v 0.142628 0.054367 0.576427
v -0.142638 0.054367 0.576427
v -0.142638 0.049444 0.548591
v -0.142638 0.037773 0.562328
v 0.142628 0.037773 0.562329
v 0.142628 0.049444 0.548591
vn -0.0000 1.0000 -0.0000
vn -0.0000 -1.0000 -0.0000
vn 0.9668 -0.0000 -0.2557
vn 1.0000 -0.0000 -0.0000
vn -0.0000 -0.0000 -1.0000
vn -0.9487 -0.0000 -0.3162
vn -0.9963 -0.0000 -0.0859
vn 0.9487 -0.0000 -0.3162
vn -1.0000 -0.0000 -0.0000
vn -0.9668 -0.0000 -0.2557
vn 0.9963 -0.0000 -0.0859
vn 0.9668 -0.0000 0.2557
vn -0.0000 -0.0000 1.0000
vn -0.9963 -0.0000 0.0859
vn -0.9487 -0.0000 0.3162
vn 0.9487 -0.0000 0.3162
vn -0.9668 -0.0000 0.2557
vn 0.9963 -0.0000 0.0859
vn 0.5724 -0.0000 0.8200
vn -0.5724 -0.0000 0.8200
vn -0.5724 0.7101 0.4100
vn 0.5724 0.7101 0.4100
vn -0.0000 0.8660 0.5000
vn -0.0000 0.8660 -0.5000
vn -0.0000 -0.8660 0.5000
vn -0.0000 -0.8660 -0.5000
vn -0.8549 0.4494 0.2594
vn -0.8549 -0.0000 0.5189
vn -0.9901 -0.0000 -0.1406
vn -0.9901 0.1217 -0.0703
vn -0.9901 0.1217 0.0703
vn -0.9901 -0.0000 0.1406
vn -0.9901 -0.1217 0.0703
vn -0.9901 -0.1217 -0.0703
vn 0.5724 -0.7101 0.4100
vn -0.5724 -0.7101 0.4100
vn 0.9901 -0.0000 -0.1406
vn 0.9901 -0.1217 -0.0703
vn 0.5724 -0.7101 -0.4100
vn -0.5724 -0.7101 -0.4100
vn -0.8549 -0.4494 -0.2594
vn -0.5724 -0.0000 -0.8200
vn -0.8549 -0.0000 -0.5189
vn -0.8549 -0.4494 0.2594
vn 0.5724 -0.0000 -0.8200
vn -0.8549 0.4494 -0.2594
vn -0.5724 0.7101 -0.4100
vn 0.9901 0.1217 0.0703
vn 0.9901 0.1217 -0.0703
vn 0.9901 -0.0000 0.1406
vn 0.9901 -0.1217 0.0703
vn 0.5724 0.7101 -0.4100
vn 0.8548 -0.0000 0.5189
vn 0.8548 -0.4494 0.2594
vn 0.8548 -0.4494 -0.2594
vn 0.8548 -0.0000 -0.5189
vn 0.8548 0.4494 -0.2594
vn 0.8548 0.4494 0.2594
vn 0.8549 0.4494 0.2594
vn 0.8549 -0.0000 0.5189
vn 0.8549 -0.4494 -0.2594
vn 0.8549 -0.0000 -0.5189
vn 0.8549 -0.4494 0.2594
vn 0.8549 0.4494 -0.2594
vn -0.8548 -0.4494 0.2594
vn -0.8548 -0.0000 0.5189
vn -0.8548 -0.0000 -0.5189
vn -0.8548 -0.4494 -0.2594
vn -0.8548 0.4494 -0.2594
vn -0.8548 0.4494 0.2594
vn -0.0000 0.7621 -0.6475
vn -0.9258 0.2448 0.2881
vn -0.0000 -0.7621 0.6475
vn 0.9258 0.2448 0.2881
vn -0.0000 -0.6475 -0.7621
vn -0.0000 0.6475 0.7621
vn -0.0000 0.7621 0.6475
vn -0.9258 0.2448 -0.2881
vn -0.0000 -0.7621 -0.6475
vn 0.9258 0.2448 -0.2881
vn -0.0000 -0.6475 0.7621
vn -0.0000 0.6475 -0.7621
vt 0.758051 0.098146
vt 0.765649 0.010000
vt 0.816913 0.010000
vt 0.824510 0.098146
vt 0.729923 0.309194
vt 0.723641 0.153340
vt 0.858920 0.153340
vt 0.852638 0.309194
vt 0.758051 0.520243
vt 0.824510 0.520243
vt 0.816913 0.608388
vt 0.765649 0.608388
vt 0.858920 0.465048
vt 0.723641 0.465048
vt 0.965096 0.098146
vt 0.898638 0.098146
vt 0.906235 0.010000
vt 0.957499 0.010000
vt 0.993224 0.309194
vt 0.870510 0.309194
vt 0.864228 0.153340
vt 0.999506 0.153340
vt 0.965096 0.520242
vt 0.957499 0.608389
vt 0.906235 0.608388
vt 0.898638 0.520243
vt 0.999506 0.465048
vt 0.864228 0.465048
vt 0.701343 0.475476
vt 0.701343 0.319495
vt 0.709342 0.319495
vt 0.709342 0.475476
vt 0.856876 0.061264
vt 0.856876 0.010000
vt 0.864876 0.010000
vt 0.864876 0.061264
vt 0.709342 0.098473
vt 0.709342 0.010000
vt 0.717342 0.010000
vt 0.717342 0.098473
vt 0.701343 0.540518
vt 0.709342 0.540518
vt 0.709342 0.319495
vt 0.709342 0.163515
vt 0.717342 0.163515
vt 0.717342 0.319495
vt 0.701343 0.628991
vt 0.709342 0.628991
vt 0.701343 0.163515
vt 0.709342 0.163515
vt 0.856876 0.112528
vt 0.856876 0.061264
vt 0.864876 0.061264
vt 0.864876 0.112528
vt 0.709342 0.628991
vt 0.709342 0.540518
vt 0.717342 0.540518
vt 0.717342 0.628991
vt 0.701343 0.098473
vt 0.709342 0.098473
vt 0.709342 0.475476
vt 0.717342 0.475476
vt 0.701343 0.010000
vt 0.709342 0.010000
vt 0.905789 0.819975
vt 0.934519 0.819975
vt 0.934519 0.807682
vt 0.905789 0.807682
vt 0.830892 0.721837
vt 0.787005 0.721837
vt 0.787005 0.754046
vt 0.830892 0.754046
vt 0.830892 0.689628
vt 0.787005 0.689628
vt 0.874779 0.657419
vt 0.830892 0.657419
vt 0.830892 0.689628
vt 0.874779 0.689628
vt 0.874779 0.721837
vt 0.830892 0.754046
vt 0.874779 0.754046
vt 0.818248 0.770291
vt 0.803721 0.777240
vt 0.794388 0.769717
vt 0.798093 0.754046
vt 0.905878 0.720258
vt 0.905789 0.714733
vt 0.927873 0.701668
vt 0.932673 0.704405
vt 0.927873 0.676009
vt 0.932673 0.673272
vt 0.905789 0.662944
vt 0.905878 0.657419
vt 0.927873 0.764506
vt 0.932673 0.767244
vt 0.905878 0.783097
vt 0.905789 0.777571
vt 0.927873 0.738848
vt 0.932673 0.736110
vt 0.877060 0.795389
vt 0.905789 0.795389
vt 0.905789 0.783097
vt 0.877060 0.783097
vt 0.874779 0.725783
vt 0.896862 0.738848
vt 0.901663 0.736110
vt 0.874867 0.720258
vt 0.877060 0.807682
vt 0.960661 0.673665
vt 0.946133 0.680614
vt 0.936800 0.673091
vt 0.940506 0.657419
vt 0.960661 0.699551
vt 0.946133 0.692602
vt 0.940506 0.715796
vt 0.936800 0.700125
vt 0.877060 0.819975
vt 0.818248 0.796178
vt 0.803721 0.789228
vt 0.896862 0.676009
vt 0.896862 0.701668
vt 0.901663 0.704405
vt 0.901663 0.673272
vt 0.874779 0.662944
vt 0.874867 0.657419
vt 0.896862 0.764506
vt 0.874779 0.777571
vt 0.874867 0.783097
vt 0.901663 0.767244
vt 0.830892 0.657419
vt 0.787005 0.657419
vt 0.874779 0.714733
vt 0.798093 0.812423
vt 0.794388 0.796752
vt 0.934519 0.795389
vt 0.830519 0.789228
vt 0.821185 0.796752
vt 0.824891 0.812423
vt 0.845046 0.796178
vt 0.934519 0.783097
vt 0.821185 0.769717
vt 0.830519 0.777240
vt 0.845046 0.770291
vt 0.824891 0.754046
vt 0.857316 0.789228
vt 0.847982 0.796752
vt 0.851688 0.812423
vt 0.871843 0.796178
vt 0.857316 0.777240
vt 0.871843 0.770291
vt 0.851688 0.754046
vt 0.847982 0.769717
vt 0.905789 0.725783
vt 0.137439 0.899646
vt 0.167896 0.899646
vt 0.167896 0.862854
vt 0.137439 0.862854
vt 0.211696 0.747425
vt 0.222939 0.747425
vt 0.254598 0.824959
vt 0.180037 0.824959
vt 0.153348 0.831621
vt 0.153348 0.747425
vt 0.166692 0.747425
vt 0.166692 0.831621
vt 0.114776 0.855724
vt 0.189338 0.855724
vt 0.157678 0.933258
vt 0.146435 0.933258
vt 0.026188 0.975954
vt 0.026188 0.747425
vt 0.040629 0.747425
vt 0.040629 0.975954
vt 0.166692 0.831621
vt 0.166692 0.747425
vt 0.180037 0.747425
vt 0.180037 0.831621
vt 0.058073 0.975954
vt 0.058073 0.747425
vt 0.075517 0.975954
vt 0.058073 0.975954
vt 0.058073 0.898970
vt 0.071417 0.898970
vt 0.071417 0.824409
vt 0.058073 0.824409
vt 0.075517 0.747425
vt 0.075517 0.975954
vt 0.075517 0.747425
vt 0.089958 0.747425
vt 0.089958 0.824409
vt 0.089958 0.898970
vt 0.089958 0.975954
s 1
g off
g Plane.013_longboards
usemtl longboards
f 8/1/1 1/2/1 2/3/1 7/4/1
f 4/5/1 5/6/1 6/7/1 3/8/1
f 5/6/1 8/1/1 7/4/1 6/7/1
f 14/9/1 13/10/1 10/11/1 9/12/1
f 4/5/1 3/8/1 12/13/1 11/14/1
f 11/14/1 12/13/1 13/10/1 14/9/1
f 22/15/2 21/16/2 16/17/2 15/18/2
f 18/19/2 17/20/2 20/21/2 19/22/2
f 19/22/2 20/21/2 21/16/2 22/15/2
f 28/23/2 23/24/2 24/25/2 27/26/2
f 18/19/2 25/27/2 26/28/2 17/20/2
f 25/27/2 28/23/2 27/26/2 26/28/2
f 5/29/3 4/30/4 18/31/4 19/32/3
f 2/33/5 1/34/5 15/35/5 16/36/5
f 7/37/6 2/38/7 16/39/7 21/40/6
f 8/41/8 5/29/3 19/32/3 22/42/8
f 3/43/9 6/44/10 20/45/10 17/46/9
f 6/44/10 7/37/6 21/40/6 20/45/10
f 1/47/11 8/41/8 22/42/8 15/48/11
f 4/30/4 11/49/12 25/50/12 18/31/4
f 9/51/13 10/52/13 24/53/13 23/54/13
f 10/55/14 13/56/15 27/57/15 24/58/14
f 11/49/12 14/59/16 28/60/16 25/50/12
f 12/61/17 3/43/9 17/46/9 26/62/17
f 13/56/15 12/61/17 26/62/17 27/57/15
f 14/59/16 9/63/18 23/64/18 28/60/16
s 2
f 41/65/19 29/66/20 34/67/21 46/68/22
s 3
f 49/69/23 37/70/23 38/71/13 50/72/13
f 48/73/24 36/74/24 37/70/23 49/69/23
f 50/75/13 38/76/13 39/77/25 51/78/25
f 51/78/25 39/77/25 40/69/26 52/79/26
f 52/79/26 40/69/26 35/80/5 47/81/5
s 2
f 58/82/27 34/83/21 29/84/20 53/85/28
s 3
f 35/86/29 53/87/29 54/88/30 36/89/30
f 55/90/31 37/91/31 36/89/30 54/88/30
f 56/92/32 38/93/32 37/91/31 55/90/31
f 57/94/33 39/95/33 38/96/32 56/97/32
f 58/98/34 40/99/34 39/95/33 57/94/33
s 2
f 42/100/35 30/101/36 29/102/20 41/103/19
s 3
f 64/104/37 59/105/38 52/106/38 47/107/37
s 2
f 42/100/35 43/108/39 31/68/40 30/101/36
f 55/109/41 31/110/40 32/111/42 56/112/43
f 54/113/44 30/114/36 31/110/40 55/109/41
f 30/114/36 54/113/44 53/115/28 29/116/20
f 44/117/45 32/65/42 31/68/40 43/108/39
f 34/83/21 58/82/27 57/118/46 33/119/47
s 3
f 62/120/48 63/121/49 48/122/49 49/123/48
f 61/124/50 62/120/48 49/123/48 50/125/50
f 60/126/51 61/127/50 50/128/50 51/129/51
f 47/130/5 35/131/5 36/74/24 48/73/24
f 63/121/49 64/132/37 47/107/37 48/122/49
f 59/105/38 60/126/51 51/129/51 52/106/38
s 2
f 56/133/43 32/134/42 33/119/47 57/118/46
f 46/68/22 34/67/21 33/135/47 45/101/52
f 42/136/35 41/137/19 64/138/53 63/139/54
f 45/101/52 33/135/47 32/140/42 44/102/45
f 44/141/45 43/142/39 62/143/55 61/144/56
f 45/145/52 44/146/45 61/147/56 60/148/57
f 46/149/22 45/145/52 60/148/57 59/150/58
f 64/151/53 41/152/19 46/149/22 59/150/58
f 43/142/39 42/136/35 63/139/54 62/143/55
s 3
f 53/153/29 35/86/29 40/99/34 58/98/34
s 4
f 77/65/45 82/68/52 70/67/47 65/66/42
s 5
f 85/69/24 86/72/5 74/71/5 73/70/24
f 84/73/23 85/69/24 73/70/24 72/74/23
f 86/75/5 87/78/26 75/77/26 74/76/5
f 87/78/26 88/79/25 76/69/25 75/77/26
f 88/79/25 83/81/13 71/80/13 76/69/25
s 4
f 94/82/46 89/85/43 65/84/42 70/83/47
s 5
f 71/86/32 72/89/31 90/88/31 89/87/32
f 91/90/30 90/88/31 72/89/31 73/91/30
f 92/92/29 91/90/30 73/91/30 74/93/29
f 93/94/34 92/97/29 74/96/29 75/95/34
f 94/98/33 93/94/34 75/95/34 76/99/33
s 4
f 78/100/39 77/103/45 65/102/42 66/101/40
s 5
f 100/104/50 83/107/50 88/106/51 95/105/51
s 4
f 78/100/39 66/101/40 67/68/36 79/108/35
f 91/109/44 92/112/28 68/111/20 67/110/36
f 90/113/41 91/109/44 67/110/36 66/114/40
f 66/114/40 65/116/42 89/115/43 90/113/41
f 80/117/19 79/108/35 67/68/36 68/65/20
f 70/83/47 69/119/21 93/118/27 94/82/46
s 5
f 98/120/49 85/123/49 84/122/48 99/121/48
f 97/124/37 86/125/37 85/123/49 98/120/49
f 96/126/38 87/129/38 86/128/37 97/127/37
f 83/130/13 84/73/23 72/74/23 71/131/13
f 99/121/48 84/122/48 83/107/50 100/132/50
f 95/105/51 88/106/51 87/129/38 96/126/38
s 4
f 92/133/28 93/118/27 69/119/21 68/134/20
f 82/68/52 81/101/22 69/135/21 70/67/47
f 78/136/39 99/139/55 100/138/56 77/137/45
f 81/101/22 80/102/19 68/140/20 69/135/21
f 80/141/19 97/144/53 98/143/54 79/142/35
f 81/145/22 96/148/58 97/147/53 80/146/19
f 82/149/52 95/150/57 96/148/58 81/145/22
f 100/151/56 95/150/57 82/149/52 77/152/45
f 79/142/35 98/143/54 99/139/55 78/136/39
s 5
f 89/153/32 94/98/33 76/99/33 71/86/32
s 6
f 113/65/20 118/68/21 106/67/22 101/66/19
s 7
f 121/69/23 122/72/13 110/71/13 109/70/23
f 120/73/24 121/69/23 109/70/23 108/74/24
f 122/75/13 123/78/25 111/77/25 110/76/13
f 123/78/25 124/79/26 112/69/26 111/77/25
f 124/79/26 119/81/5 107/80/5 112/69/26
s 6
f 130/82/59 125/85/60 101/84/19 106/83/22
s 7
f 107/86/37 108/89/49 126/88/49 125/87/37
f 127/90/48 126/88/49 108/89/49 109/91/48
f 128/92/50 127/90/48 109/91/48 110/93/50
f 129/94/51 128/97/50 110/96/50 111/95/51
f 130/98/38 129/94/51 111/95/51 112/99/38
s 6
f 114/100/36 113/103/20 101/102/19 102/101/35
s 7
f 136/104/29 119/107/29 124/106/34 131/105/34
s 6
f 114/100/36 102/101/35 103/68/39 115/108/40
f 127/109/61 128/112/62 104/111/45 103/110/39
f 126/113/63 127/109/61 103/110/39 102/114/35
f 102/114/35 101/116/19 125/115/60 126/113/63
f 116/117/42 115/108/40 103/68/39 104/65/45
f 106/83/22 105/119/52 129/118/64 130/82/59
s 7
f 134/120/31 121/123/31 120/122/30 135/121/30
f 133/124/32 122/125/32 121/123/31 134/120/31
f 132/126/33 123/129/33 122/128/32 133/127/32
f 119/130/5 120/73/24 108/74/24 107/131/5
f 135/121/30 120/122/30 119/107/29 136/132/29
f 131/105/34 124/106/34 123/129/33 132/126/33
s 6
f 128/133/62 129/118/64 105/119/52 104/134/45
f 118/68/21 117/101/47 105/135/52 106/67/22
f 114/136/36 135/139/65 136/138/66 113/137/20
f 117/101/47 116/102/42 104/140/45 105/135/52
f 116/141/42 133/144/67 134/143/68 115/142/40
f 117/145/47 132/148/69 133/147/67 116/146/42
f 118/149/21 131/150/70 132/148/69 117/145/47
f 136/151/66 131/150/70 118/149/21 113/152/20
f 115/142/40 134/143/68 135/139/65 114/136/36
s 7
f 125/153/37 130/98/38 112/99/38 107/86/37
s 8
f 149/65/42 137/66/45 142/67/52 154/68/47
s 9
f 157/69/24 145/70/24 146/71/5 158/72/5
f 156/73/23 144/74/23 145/70/24 157/69/24
f 158/75/5 146/76/5 147/77/26 159/78/26
f 159/78/26 147/77/26 148/69/25 160/79/25
f 160/79/25 148/69/25 143/80/13 155/81/13
s 8
f 166/82/64 142/83/52 137/84/45 161/85/62
s 9
f 143/86/50 161/87/50 162/88/48 144/89/48
f 163/90/49 145/91/49 144/89/48 162/88/48
f 164/92/37 146/93/37 145/91/49 163/90/49
f 165/94/38 147/95/38 146/96/37 164/97/37
f 166/98/51 148/99/51 147/95/38 165/94/38
s 8
f 150/100/40 138/101/39 137/102/45 149/103/42
s 9
f 172/104/32 167/105/33 160/106/33 155/107/32
s 8
f 150/100/40 151/108/36 139/68/35 138/101/39
f 163/109/63 139/110/35 140/111/19 164/112/60
f 162/113/61 138/114/39 139/110/35 163/109/63
f 138/114/39 162/113/61 161/115/62 137/116/45
f 152/117/20 140/65/19 139/68/35 151/108/36
f 142/83/52 166/82/64 165/118/59 141/119/22
s 9
f 170/120/30 171/121/31 156/122/31 157/123/30
f 169/124/29 170/120/30 157/123/30 158/125/29
f 168/126/34 169/127/29 158/128/29 159/129/34
f 155/130/13 143/131/13 144/74/23 156/73/23
f 171/121/31 172/132/32 155/107/32 156/122/31
f 167/105/33 168/126/34 159/129/34 160/106/33
s 8
f 164/133/60 140/134/19 141/119/22 165/118/59
f 154/68/47 142/67/52 141/135/22 153/101/21
f 150/136/40 149/137/42 172/138/67 171/139/68
f 153/101/21 141/135/22 140/140/19 152/102/20
f 152/141/20 151/142/36 170/143/65 169/144/66
f 153/145/21 152/146/20 169/147/66 168/148/70
f 154/149/47 153/145/21 168/148/70 167/150/69
f 172/151/67 149/152/42 154/149/47 167/150/69
f 151/142/36 150/136/40 171/139/68 170/143/65
s 9
f 161/153/50 143/86/50 148/99/51 166/98/51
s 10
f 176/154/9 175/155/9 173/156/9 174/157/9
s 11
f 180/154/4 178/157/4 177/156/4 179/155/4
s 12
f 184/154/9 182/157/9 181/156/9 183/155/9
s 13
f 188/154/4 187/155/4 185/156/4 186/157/4
s 14
f 190/158/71 192/159/71 191/160/71 189/161/71
f 190/162/72 189/163/72 193/164/72 195/165/72
f 193/166/73 194/167/73 196/168/73 195/169/73
f 204/170/73 201/171/73 202/172/73 203/173/73
f 191/174/74 192/175/74 196/176/74 194/177/74
f 199/178/75 203/173/75 202/172/75 200/179/75
f 204/180/76 197/181/76 191/182/76 194/183/76 193/184/76 189/185/76 198/179/76 201/186/76
f 199/187/71 200/188/71 198/189/71 189/190/71 191/191/71 197/192/71
s 15
f 206/158/77 205/161/77 207/160/77 208/159/77
f 206/162/78 211/165/78 209/164/78 205/163/78
f 209/166/79 211/169/79 212/168/79 210/167/79
f 220/170/79 219/173/79 218/172/79 217/171/79
f 207/174/80 210/177/80 212/176/80 208/175/80
f 215/178/81 216/179/81 218/172/81 219/173/81
f 220/180/82 217/186/82 214/179/82 205/185/82 209/184/82 210/183/82 207/182/82 213/181/82
f 215/187/77 213/192/77 207/191/77 205/190/77 214/189/77 216/188/77
