# Blender 4.0.2
# www.blender.org
mtllib SM_snowpatch_03.mtl
g Plane.030_Plane.009
v -0.972039 -0.230696 1.885091
v 0.951471 -0.504553 1.838798
v -1.261084 -0.300613 -0.089289
v 1.352973 -0.348740 -0.239832
v -1.352973 -0.149418 0.920304
v -0.157592 -0.092506 2.099351
v 1.313774 -0.263664 0.675575
v -0.074787 0.387874 -0.304075
v 0.135306 0.319308 0.824637
v -1.254133 -0.431325 1.375593
v 0.236711 -0.294767 2.000137
v 1.419163 -0.390761 0.285133
v -0.598039 0.469630 -0.204591
v -1.318887 -0.111515 0.476970
v -0.571003 -0.374920 2.066659
v 1.135999 -0.273155 1.127676
v 0.768525 0.064432 -0.329212
v 0.175904 0.378859 0.229450
v -0.096053 0.328040 1.463196
v -0.780586 0.208437 0.997100
v 0.599695 0.150245 0.669586
v 0.404543 0.345615 1.232773
v -0.678400 0.381263 1.537877
v -0.624291 0.292768 0.382041
v 0.537652 0.081882 0.216933
v -1.190015 -0.350243 -0.714613
v 1.317458 -0.389437 -0.834618
v -0.018881 0.204570 -0.938179
v -0.571940 0.418235 -0.793775
v 0.670010 0.013345 -0.890714
v -1.047823 -0.238124 -1.275219
v 1.202151 -0.331083 -1.374854
v 0.002733 -0.081513 -1.512792
v -0.387803 -0.035119 -1.461672
v 0.599038 0.302210 -1.453806
v -0.822832 -0.202799 -1.720478
v 0.844289 -0.195856 -1.982805
v 0.146131 -0.345201 -2.069129
v -0.270560 -0.298097 -1.919217
v 0.555716 -0.128216 -2.099351
vn 0.4838 0.8746 -0.0300
vn 0.5008 0.8649 -0.0340
vn 0.5331 0.8461 -0.0021
vn 0.4724 0.8794 -0.0585
vn -0.3287 0.9430 0.0526
vn 0.2640 0.9633 0.0488
vn 0.2365 0.9703 -0.0509
vn -0.3284 0.9437 -0.0388
vn -0.3697 0.8620 0.3468
vn 0.0912 0.9419 0.3234
vn 0.0964 0.9942 -0.0470
vn -0.4221 0.9050 0.0527
vn 0.3597 0.9081 0.2144
vn 0.5607 0.7818 0.2727
vn 0.5278 0.8456 -0.0798
vn 0.4729 0.8798 -0.0477
vn 0.0978 0.7265 0.6802
vn 0.4281 0.7048 0.5657
vn 0.4937 0.6925 0.5260
vn -0.6821 0.6444 0.3456
vn -0.6276 0.7701 0.1143
vn -0.5963 0.5931 0.5410
vn -0.3442 0.6720 0.6557
vn -0.5837 0.8116 -0.0225
vn -0.7161 0.6929 -0.0847
vn -0.2918 0.9116 -0.2895
vn -0.7120 0.6674 -0.2182
vn 0.5919 0.8059 -0.0145
vn 0.3921 0.9191 -0.0399
vn 0.1374 0.9602 -0.2431
vn 0.6421 0.7658 -0.0355
vn 0.1751 0.9636 -0.2019
vn -0.1282 0.9099 -0.3946
vn -0.1459 0.8949 -0.4217
vn -0.5012 0.7906 -0.3517
vn 0.6238 0.6924 -0.3627
vn 0.0094 0.8631 -0.5050
vn -0.2865 0.8275 -0.4828
vn -0.0654 0.9069 -0.4162
vn -0.1797 0.9356 -0.3040
vt 0.244370 0.381251
vt 0.306026 0.344045
vt 0.351992 0.387409
vt 0.289988 0.422825
vt 0.121831 0.415878
vt 0.199810 0.393709
vt 0.224118 0.453233
vt 0.157145 0.464100
vt 0.072047 0.309368
vt 0.126913 0.291971
vt 0.173235 0.342896
vt 0.080398 0.362074
vt 0.180803 0.300207
vt 0.261289 0.260249
vt 0.298072 0.293880
vt 0.224810 0.336269
vt 0.093534 0.231296
vt 0.137041 0.215842
vt 0.197580 0.200577
vt -0.010539 0.349108
vt 0.017737 0.395298
vt -0.002700 0.289083
vt 0.038789 0.232531
vt 0.048728 0.433815
vt 0.075139 0.497645
vt 0.181833 0.511058
vt 0.107402 0.551054
vt 0.374122 0.444898
vt 0.303963 0.478930
vt 0.240343 0.510409
vt 0.370239 0.505290
vt 0.308810 0.532991
vt 0.261133 0.569084
vt 0.222473 0.576347
vt 0.150332 0.592267
vt 0.361801 0.572329
vt 0.336259 0.594127
vt 0.297890 0.619155
vt 0.253681 0.621345
vt 0.183722 0.632998
s 1
g off
g Plane.030_snow
usemtl snow
f 25/1/1 12/2/2 4/3/3 17/4/4
f 24/5/5 18/6/6 8/7/7 13/8/8
f 23/9/9 19/10/10 9/11/11 20/12/12
f 22/13/13 16/14/14 7/15/15 21/16/16
f 19/10/10 22/13/13 21/16/16 9/11/11
f 6/17/17 11/18/18 22/13/13 19/10/10
f 11/18/18 2/19/19 16/14/14 22/13/13
f 10/20/20 23/9/9 20/12/12 5/21/21
f 1/22/22 15/23/23 23/9/9 10/20/20
f 15/23/23 6/17/17 19/10/10 23/9/9
f 14/24/24 24/5/5 13/8/8 3/25/25
f 5/21/21 20/12/12 24/5/5 14/24/24
f 20/12/12 9/11/11 18/6/6 24/5/5
f 18/6/6 25/1/1 17/4/4 8/7/7
f 9/11/11 21/16/16 25/1/1 18/6/6
f 21/16/16 7/15/15 12/2/2 25/1/1
f 3/25/25 13/8/8 29/26/26 26/27/27
f 17/4/4 4/3/3 27/28/28 30/29/29
f 13/8/8 8/7/7 28/30/30 29/26/26
f 8/7/7 17/4/4 30/29/29 28/30/30
f 30/29/29 27/28/28 32/31/31 35/32/32
f 28/30/30 30/29/29 35/32/32 33/33/33
f 29/26/26 28/30/30 33/33/33 34/34/34
f 26/27/27 29/26/26 34/34/34 31/35/35
f 35/32/32 32/31/31 37/36/36 40/37/37
f 33/33/33 35/32/32 40/37/37 38/38/38
f 34/34/34 33/33/33 38/38/38 39/39/39
f 31/35/35 34/34/34 39/39/39 36/40/40
