# This file uses meters as units for non-parametric coordinates.

mtllib SM_FenceWall_Placeholder.mtl
g default
v -75.000000 0.000000 25.000000
v 75.000000 0.000000 25.000000
v -75.000000 0.000000 -25.000000
v 75.000000 0.000000 -25.000000
v -75.000000 100.000000 20.000500
v -75.000000 95.000504 25.000000
v 75.000000 100.000000 20.000500
v 75.000000 95.000504 25.000000
v -75.000000 95.000504 -25.000000
v -75.000000 100.000000 -20.000500
v 75.000000 95.000504 -25.000000
v 75.000000 100.000000 -20.000500
vt 0.625000 0.750000
vt 0.375000 1.000000
vt 0.625000 1.000000
vt 0.125000 0.000000
vt 0.350002 0.250000
vt 0.149998 0.250000
vt 0.125000 0.237501
vt 0.625000 0.000000
vt 0.875000 0.000000
vt 0.875000 0.237501
vt 0.850002 0.250000
vt 0.649997 0.250000
vt 0.375000 0.000000
vt 0.625000 0.237501
vt 0.375000 0.512499
vt 0.375000 0.750000
vt 0.375000 0.274998
vt 0.625000 0.475002
vt 0.375000 0.237501
vt 0.625000 0.274998
vt 0.375000 0.475002
vt 0.625000 0.512499
vn 0.000000 0.000000 1.000000
vn 0.000000 0.000000 1.000000
vn 0.000000 0.000000 1.000000
vn 0.000000 0.000000 1.000000
vn 0.000000 1.000000 0.000000
vn 0.000000 1.000000 0.000000
vn 0.000000 1.000000 0.000000
vn 0.000000 1.000000 0.000000
vn 0.000000 0.000000 -1.000000
vn 0.000000 0.000000 -1.000000
vn 0.000000 0.000000 -1.000000
vn 0.000000 0.000000 -1.000000
vn 0.000000 -1.000000 0.000000
vn 0.000000 -1.000000 0.000000
vn 0.000000 -1.000000 0.000000
vn 0.000000 -1.000000 0.000000
vn 1.000000 0.000000 0.000000
vn 1.000000 0.000000 0.000000
vn 1.000000 0.000001 0.000000
vn 1.000000 0.000001 0.000000
vn -1.000000 0.000000 0.000000
vn -1.000000 0.000000 0.000000
vn -1.000000 0.000000 0.000000
vn -1.000000 0.000000 0.000000
vn 0.000000 0.707107 0.707107
vn 0.000000 0.707107 0.707107
vn 0.000000 0.707107 0.707107
vn 0.000000 0.707107 0.707107
vn 0.000000 0.707107 -0.707107
vn 0.000000 0.707107 -0.707107
vn 0.000000 0.707107 -0.707107
vn 0.000000 0.707107 -0.707107
vn -1.000000 0.000001 0.000000
vn -1.000000 0.000001 0.000000
vn 1.000000 0.000000 0.000000
vn 1.000000 0.000000 0.000000
s off
g pCube11
usemtl initialShadingGroup
f 1/13/1 2/8/2 8/14/3 6/19/4
f 5/17/5 7/20/6 12/18/7 10/21/8
f 9/15/9 11/22/10 4/1/11 3/16/12
f 3/16/13 4/1/14 2/3/15 1/2/16
s 1
f 8/14/17 11/10/18 12/11/19 7/12/20
s 2
f 3/4/21 1/13/22 6/19/23 9/7/24
s off
f 5/17/25 6/19/26 8/14/27 7/20/28
f 9/15/29 10/21/30 12/18/31 11/22/32
s 2
f 9/7/24 6/19/23 5/5/33 10/6/34
s 1
f 2/8/35 4/9/36 11/10/18 8/14/17
