# This file uses meters as units for non-parametric coordinates.

mtllib SM_Roof_Placeholder.mtl
g default
v -219.444445 -5.000000 270.000000
v 219.444445 -5.000000 270.000000
v -216.832140 5.000000 266.785868
v 216.832140 5.000000 266.785868
v -216.832140 5.000000 -266.785868
v 216.832140 5.000000 -266.785868
v -219.444445 -5.000000 -270.000000
v 219.444445 -5.000000 -270.000000
v 0.000000 75.878616 94.035677
v 0.000000 75.878616 -94.035677
vt 0.375000 0.000000
vt 0.625000 0.000000
vt 0.375000 0.250000
vt 0.625000 0.250000
vt 0.375000 0.500000
vt 0.625000 0.500000
vt 0.375000 0.750000
vt 0.625000 0.750000
vt 0.375000 1.000000
vt 0.625000 1.000000
vt 0.875000 0.000000
vt 0.875000 0.250000
vt 0.125000 0.000000
vt 0.125000 0.250000
vt 0.500000 0.250000
vt 0.500000 0.500000
vn 0.000000 0.305996 0.952033
vn 0.000000 0.305996 0.952033
vn 0.000000 0.305996 0.952033
vn 0.000000 0.305996 0.952033
vn 0.000000 0.305996 -0.952033
vn 0.000000 0.305996 -0.952033
vn 0.000000 0.305996 -0.952033
vn 0.000000 0.305996 -0.952033
vn 0.000000 -1.000000 0.000000
vn 0.000000 -1.000000 0.000000
vn 0.000000 -1.000000 0.000000
vn 0.000000 -1.000000 0.000000
vn 0.967532 0.252749 0.000000
vn 0.967532 0.252749 0.000000
vn 0.967532 0.252749 0.000000
vn 0.967532 0.252749 0.000000
vn -0.967532 0.252749 0.000000
vn -0.967532 0.252749 0.000000
vn -0.967532 0.252749 0.000000
vn -0.967532 0.252749 0.000000
vn -0.233009 0.966872 0.104235
vn 0.233009 0.966872 0.104235
vn 0.000000 0.997857 0.065436
vn 0.233009 0.966872 -0.104235
vn 0.000000 0.997857 -0.065436
vn -0.233009 0.966872 -0.104235
s off
g pCube7
usemtl initialShadingGroup
f 1/1/1 2/2/2 4/4/3 3/3/4
f 5/5/5 6/6/6 8/8/7 7/7/8
f 7/7/9 8/8/10 2/10/11 1/9/12
f 2/2/13 8/11/14 6/12/15 4/4/16
f 7/13/17 1/1/18 3/3/19 5/14/20
s 1
f 3/3/21 4/4/22 9/15/23
f 4/4/22 6/6/24 10/16/25 9/15/23
f 6/6/24 5/5/26 10/16/25
f 5/5/26 3/3/21 9/15/23 10/16/25
