# This file uses meters as units for non-parametric coordinates.

mtllib SM_StoneS_Placeholder.mtl
g default
v 16.030646 24.379992 22.551143
v 11.605569 38.119295 17.916195
v 13.784369 28.093764 -10.962156
v 16.248978 20.900561 -9.628828
v 9.956511 26.922011 -16.978734
v 10.372724 20.900561 -18.793050
v 14.486668 5.778505 -4.151751
v 5.395249 6.890752 -19.659278
v 16.182433 16.074338 -7.182341
v 11.511121 37.965140 11.623415
v 16.139811 22.008135 5.857561
v 15.557404 19.289197 25.904612
v 12.219421 0.721587 3.937845
v 6.905141 40.661144 21.289163
v 1.471517 43.236660 16.475063
v 4.513147 28.337998 -16.961338
v -2.282188 31.542191 -9.667257
v -14.136050 12.649915 -14.377400
v -12.356252 6.338583 -15.358292
v -3.095362 1.438249 -18.616962
v -3.946271 0.316733 -15.814245
v 10.387890 -0.374852 4.075504
v 7.505002 9.561587 23.326704
v 2.971439 2.326887 18.138884
v 13.756874 18.587365 27.610500
v 10.502942 14.645031 27.311473
v 8.743535 28.447907 25.958281
v 2.616445 40.875739 19.225826
v -3.976172 26.040801 20.934533
v -15.658731 30.400402 7.210857
v -17.013813 24.888940 -5.144102
v -3.931119 17.414642 23.643009
v -6.778053 16.888807 22.396192
v -7.652257 4.153600 15.222062
v -10.937320 2.443042 -10.977369
v -11.066512 5.082152 10.703000
vt 0.499775 1.342513
vt 0.271007 1.159034
vt 0.302228 0.920907
vt 0.421330 0.929353
vt -1.562754 1.304213
vt -1.489972 1.414203
vt 0.223007 0.937861
vt 0.011382 0.694139
vt 0.055064 0.971574
vt 0.247656 1.405375
vt 0.463396 1.437069
vt 0.165742 1.428535
vt -0.042384 1.090453
vt -0.796450 1.522771
vt -0.662848 1.514443
vt -1.422050 1.353842
vt -1.248421 1.319738
vt -1.305165 0.997525
vt -0.192582 0.691587
vt -1.335976 0.915466
vt -0.072113 1.094747
vt -1.437969 0.785797
vt -0.012016 1.417687
vt -0.131711 1.326240
vt 0.149454 1.450622
vt 0.080847 1.461187
vt -0.503475 1.331139
vt -0.734867 1.486444
vt -0.683811 1.183375
vt -0.937940 1.192199
vt -1.121143 1.117789
vt -0.619884 1.030476
vt -0.670632 0.990408
vt -0.849016 0.736670
vt -0.921344 0.799993
vt -1.290748 0.847399
vt -0.227808 0.740043
vt -0.319224 1.375779
vt -0.121267 1.633598
vt -0.065134 1.622149
vt 0.285483 1.542326
vt 0.512922 1.540918
vt -1.488595 0.846568
vt -1.622387 1.008948
vt 0.465633 0.811838
vt 0.667094 1.479716
vt 0.334601 0.743959
vn 0.955272 0.294237 -0.029660
vn 0.954813 0.295908 -0.027760
vn 0.954393 0.297416 -0.026044
vn 0.954393 0.297416 -0.026044
vn 0.818851 0.198120 -0.538731
vn 0.818851 0.198120 -0.538731
vn 0.818851 0.198120 -0.538731
vn 0.818851 0.198120 -0.538731
vn 0.815220 -0.261651 -0.516677
vn 0.815220 -0.261651 -0.516677
vn 0.816462 -0.268613 -0.511114
vn 0.816501 -0.268837 -0.510934
vn 0.818684 -0.282072 -0.500192
vn 0.955721 0.292580 -0.031540
vn 0.955721 0.292580 -0.031540
vn 0.999921 -0.009858 0.007754
vn 0.999921 -0.009858 0.007754
vn 0.999921 -0.009858 0.007754
vn 0.987687 -0.152814 0.033506
vn 0.989747 -0.139253 0.031759
vn 0.995936 -0.086536 0.024943
vn 0.998115 -0.057600 0.021185
vn 0.998115 -0.057600 0.021185
vn 0.955321 -0.280821 0.092200
vn 0.955321 -0.280821 0.092200
vn 0.955321 -0.280821 0.092200
vn 0.454142 0.890357 -0.031931
vn 0.454142 0.890357 -0.031931
vn 0.454142 0.890357 -0.031931
vn 0.454142 0.890357 -0.031931
vn 0.292241 0.886713 -0.358239
vn 0.292241 0.886713 -0.358239
vn 0.292241 0.886713 -0.358239
vn 0.292241 0.886713 -0.358239
vn 0.107320 0.911743 -0.396494
vn 0.107320 0.911743 -0.396494
vn 0.107320 0.911743 -0.396494
vn 0.107320 0.911743 -0.396494
vn 0.073002 0.292350 -0.953521
vn 0.073002 0.292350 -0.953521
vn 0.073002 0.292350 -0.953521
vn -0.212992 0.113318 -0.970461
vn -0.212992 0.113318 -0.970461
vn -0.212992 0.113318 -0.970461
vn -0.212992 0.113318 -0.970460
vn -0.237294 0.130341 -0.962654
vn -0.237294 0.130341 -0.962654
vn -0.237294 0.130341 -0.962654
vn -0.237294 0.130341 -0.962654
vn 0.461699 -0.820168 -0.337873
vn 0.468308 -0.815028 -0.341201
vn 0.485610 -0.801105 -0.349875
vn 0.485610 -0.801105 -0.349875
vn 0.389648 -0.870367 -0.301059
vn 0.389648 -0.870367 -0.301059
vn 0.561251 -0.698202 0.444423
vn 0.561251 -0.698202 0.444423
vn 0.561251 -0.698202 0.444422
vn 0.561251 -0.698202 0.444422
vn 0.628926 -0.638263 0.443928
vn 0.640314 -0.639176 0.425972
vn 0.631178 -0.638464 0.440429
vn 0.684920 -0.639846 0.348541
vn 0.684920 -0.639846 0.348541
vn 0.641394 0.409774 0.648613
vn 0.641394 0.409774 0.648613
vn 0.641394 0.409774 0.648613
vn 0.641394 0.409774 0.648613
vn 0.516956 0.380109 0.766990
vn 0.516956 0.380109 0.766990
vn 0.516957 0.380109 0.766990
vn 0.516956 0.380109 0.766990
vn -0.299040 0.659037 0.690105
vn -0.299040 0.659037 0.690105
vn -0.299040 0.659037 0.690105
vn -0.399786 0.276345 0.873959
vn -0.399786 0.276345 0.873959
vn -0.399786 0.276345 0.873959
vn -0.399786 0.276345 0.873959
vn -0.649941 0.377029 0.659868
vn -0.649942 0.377029 0.659868
vn -0.649941 0.377029 0.659868
vn -0.649942 0.377029 0.659868
vn -0.462102 0.830871 -0.310025
vn -0.462102 0.830871 -0.310025
vn -0.462102 0.830871 -0.310025
vn -0.462102 0.830871 -0.310025
vn -0.479493 0.483447 -0.732370
vn -0.479493 0.483447 -0.732370
vn -0.479493 0.483447 -0.732370
vn -0.479493 0.483447 -0.732370
vn -0.222600 0.066977 0.972606
vn -0.222600 0.066977 0.972606
vn -0.222600 0.066977 0.972606
vn -0.222600 0.066977 0.972606
vn -0.403223 0.272214 0.873676
vn -0.403223 0.272214 0.873676
vn -0.403223 0.272214 0.873676
vn -0.403223 0.272214 0.873676
vn -0.671860 0.312909 0.671336
vn -0.671860 0.312909 0.671336
vn -0.671860 0.312909 0.671336
vn -0.297493 -0.466773 0.832839
vn -0.297493 -0.466773 0.832839
vn -0.297493 -0.466773 0.832839
vn -0.297493 -0.466773 0.832839
vn -0.294003 -0.444259 0.846284
vn -0.294003 -0.444259 0.846284
vn -0.294003 -0.444259 0.846284
vn -0.294003 -0.444259 0.846284
vn -0.186239 -0.977819 0.095836
vn -0.186239 -0.977819 0.095836
vn -0.186239 -0.977819 0.095836
vn -0.186239 -0.977819 0.095836
vn -0.277629 -0.955757 0.097212
vn -0.277629 -0.955757 0.097212
vn -0.277629 -0.955757 0.097212
vn -0.277629 -0.955757 0.097212
vn -0.881192 -0.130075 0.454512
vn -0.881192 -0.130075 0.454513
vn -0.881192 -0.130075 0.454512
vn -0.881192 -0.130075 0.454513
vn -0.971242 -0.221250 0.087966
vn -0.971242 -0.221250 0.087966
vn -0.971242 -0.221250 0.087966
vn -0.971242 -0.221250 0.087966
vn -0.534581 -0.712127 -0.455080
vn -0.534581 -0.712127 -0.455080
vn -0.534581 -0.712127 -0.455080
vn -0.534581 -0.712127 -0.455080
vn -0.958259 -0.277801 0.067568
vn -0.958259 -0.277801 0.067568
vn -0.958259 -0.277801 0.067568
vn -0.958259 -0.277801 0.067568
s 1
g pCube2 Stone_set
usemtl initialShadingGroup
f 10/1/1 11/2/2 4/3/3 3/4/4
s off
f 3/4/5 4/3/6 6/47/7 5/45/8
s 2
f 6/47/9 4/3/10 9/7/11 8/8/12
f 8/8/12 9/7/11 7/9/13
s 1
f 1/10/14 11/2/2 10/1/1 2/11/15
s off
f 9/7/16 4/3/17 11/2/18
s 3
f 7/9/19 9/7/20 12/12/21
f 12/12/21 9/7/20 11/2/22 1/10/23
s off
f 7/9/24 12/12/25 13/13/26
f 2/11/27 10/1/28 15/46/29 14/42/30
f 3/4/31 5/45/32 15/46/33 10/1/34
f 15/14/35 5/6/36 16/16/37 17/17/38
f 16/16/39 5/6/40 6/5/41
f 16/16/42 6/5/43 8/44/44 18/18/45
f 18/18/46 8/44/47 20/43/48 19/20/49
s 4
f 13/13/50 20/19/51 8/8/52 7/9/53
f 13/13/50 22/21/54 21/37/55 20/19/51
s off
f 22/21/56 13/13/57 23/23/58 24/24/59
s 5
f 13/13/60 12/12/61 23/23/62
f 23/23/62 12/12/61 25/25/63 26/26/64
s off
f 12/12/65 1/10/66 2/11/67 14/42/68
f 12/12/69 14/42/70 27/41/71 25/25/72
f 14/15/73 15/14/74 28/28/75
f 14/15/76 28/28/77 29/29/78 27/27/79
f 28/28/80 15/14/81 30/30/82 29/29/83
f 30/30/84 15/14/85 17/17/86 31/31/87
f 16/16/88 18/18/89 31/31/90 17/17/91
f 26/26/92 25/25/93 27/41/94 32/40/95
f 27/27/96 29/29/97 33/33/98 32/32/99
f 33/33/100 29/29/101 30/30/102
f 23/23/103 26/26/104 32/40/105 33/39/106
f 23/23/107 33/39/108 34/38/109 24/24/110
f 21/37/111 22/21/112 24/24/113 34/38/114
f 21/22/115 34/34/116 36/35/117 35/36/118
f 33/33/119 30/30/120 36/35/121 34/34/122
f 30/30/123 31/31/124 35/36/125 36/35/126
f 19/20/127 20/43/128 21/22/129 35/36/130
f 18/18/131 19/20/132 35/36/133 31/31/134
