# This file uses meters as units for non-parametric coordinates.

mtllib SM_StoneL_Placeholder.mtl
g default
v -31.103966 50.699318 32.676525
v -5.261942 79.355110 32.007900
v -7.480907 91.497589 6.718234
v -41.198860 66.351837 -20.453968
v -50.091133 41.715332 0.524042
v -0.468470 92.100464 3.286369
v -39.911045 65.401627 -25.294247
v -7.811407 75.578407 -33.729244
v -40.579197 35.970104 -44.630970
v -49.868050 29.764153 -7.767322
v -44.290375 21.551315 -45.416416
v -0.722189 56.687992 -50.172695
v 7.547706 70.414780 -44.542347
v -40.876060 20.765104 7.770000
v -27.983946 45.974037 36.570637
v -26.255903 23.250778 31.979839
v 22.561110 74.413177 44.907295
v 38.635609 82.553108 25.071213
v 28.679529 75.096352 42.712795
v 19.912727 86.350464 11.076251
v 39.501553 75.538651 -15.823268
v 42.730843 74.360558 -7.187152
v 43.777058 78.581810 19.352581
v 31.430431 68.228546 -40.888851
v 53.591724 49.067703 23.865128
v 30.718010 63.241669 46.320587
v 51.072552 37.202080 39.864422
v 46.960728 37.134567 44.469738
v 12.650920 6.999645 34.929829
v 32.152954 23.446747 42.257725
v 47.522545 21.945189 22.675777
v 42.460579 2.660927 -1.826697
v 14.537584 4.002163 26.517536
v 36.975552 0.000000 -0.506691
v 49.166676 25.296097 5.663136
v 47.979870 11.314896 -15.945367
v 32.122166 47.277657 -45.775623
v 40.328651 28.154713 -32.426041
v 11.173519 41.284611 -51.430088
v -31.908495 13.560116 -48.387928
v 1.225607 26.182932 -51.773853
v -22.197514 7.548862 -9.631236
v -17.523676 4.784645 -37.477909
v 11.655273 1.992661 -30.284279
v 8.003817 15.920908 -42.326488
vt 4.526656 1.120768
vt 2.698181 0.986115
vt 4.139376 1.667837
vt 4.270430 1.464240
vt 2.468369 0.920774
vt 4.227110 1.437221
vt 4.514965 1.082271
vt 4.278961 1.137977
vt 4.417630 0.775006
vt 4.382432 0.659100
vt 2.432396 0.832489
vt 4.206395 0.973750
vt 4.176474 1.077018
vt 2.545306 0.787401
vt 2.712408 0.816570
vt 2.727108 0.956246
vt 3.072374 1.080201
vt 4.065125 1.460690
vt 3.934428 1.293673
vt 3.973941 1.259076
vt 3.902479 1.478464
vt 3.878898 1.431011
vt 3.855275 1.610313
vt 4.036791 1.107239
vt 3.673928 1.354950
vt 3.123855 0.984987
vt 3.209691 0.718463
vt 3.182626 0.757057
vt 3.052436 0.700113
vt 2.894540 0.644839
vt 3.524734 1.212339
vt 3.571642 0.933108
vt 2.870884 0.592255
vt 2.892289 0.357710
vt 3.627689 1.132118
vt 3.683497 0.958268
vt 3.842656 0.960243
vt 3.992534 1.001373
vt 4.089598 0.909498
vt 4.263947 0.633846
vt 4.096914 0.793700
vt 4.096024 0.592839
vt 2.523133 0.603764
vt 3.854129 0.695920
vt 3.986922 0.761541
vt 2.378634 0.480942
vt 2.581743 0.357902
vt 3.567692 0.887038
vt 2.241616 0.572798
vt 2.221042 0.695990
vt 2.933773 0.338186
vt 3.119275 0.532930
vt 3.555837 1.414286
vt 3.878149 1.652966
vt 3.760699 1.609245
vt 3.551788 1.461070
vt 2.848205 1.165126
vt 2.187272 0.819272
vt 2.307317 1.093122
vt 2.345434 1.105054
vt 2.691849 1.314831
vn -0.709375 0.621851 0.331796
vn -0.709375 0.621851 0.331796
vn -0.709375 0.621851 0.331796
vn -0.709375 0.621851 0.331796
vn -0.780073 0.544307 0.308571
vn -0.780073 0.544307 0.308571
vn -0.780073 0.544307 0.308571
vn -0.332596 0.867393 -0.370147
vn -0.332596 0.867393 -0.370147
vn -0.332596 0.867393 -0.370147
vn -0.332596 0.867393 -0.370147
vn -0.361607 0.875966 -0.319256
vn -0.361607 0.875966 -0.319256
vn -0.361607 0.875966 -0.319256
vn -0.959701 0.162742 -0.229105
vn -0.959701 0.162742 -0.229105
vn -0.959701 0.162742 -0.229105
vn -0.959701 0.162742 -0.229105
vn -0.957827 0.198282 -0.207971
vn -0.957827 0.198282 -0.207971
vn -0.957827 0.198282 -0.207971
vn -0.957827 0.198282 -0.207971
vn -0.372499 0.519775 -0.768816
vn -0.372499 0.519775 -0.768816
vn -0.372499 0.519775 -0.768816
vn -0.372499 0.519775 -0.768816
vn -0.360749 0.531651 -0.766295
vn -0.360749 0.531651 -0.766295
vn -0.360748 0.531651 -0.766295
vn -0.842347 -0.197012 0.501636
vn -0.846991 -0.188465 0.497078
vn -0.893009 -0.267666 0.361787
vn -0.832826 -0.165217 0.528304
vn -0.832829 -0.160543 0.529737
vn -0.832829 -0.160543 0.529737
vn -0.355644 0.359976 0.862517
vn -0.355644 0.359976 0.862517
vn -0.355644 0.359976 0.862517
vn -0.355644 0.359976 0.862517
vn 0.051810 0.927962 0.369057
vn 0.041225 0.926321 0.374473
vn 0.103144 0.902674 0.417781
vn 0.103144 0.902674 0.417781
vn 0.013719 0.943265 0.331757
vn 0.353112 0.928363 -0.115996
vn 0.353112 0.928363 -0.115996
vn 0.353112 0.928363 -0.115996
vn 0.353112 0.928363 -0.115996
vn 0.361888 0.913468 -0.186048
vn 0.361888 0.913468 -0.186048
vn 0.361888 0.913468 -0.186048
vn 0.361888 0.913468 -0.186048
vn -0.074224 0.932891 0.352427
vn -0.029910 0.939095 0.342354
vn 0.147533 0.909858 -0.387806
vn 0.147533 0.909858 -0.387806
vn 0.147533 0.909858 -0.387806
vn 0.147533 0.909858 -0.387806
vn 0.134447 0.938818 -0.317088
vn 0.134447 0.938818 -0.317088
vn 0.134447 0.938818 -0.317088
vn 0.949273 0.302593 -0.085550
vn 0.949273 0.302593 -0.085550
vn 0.949273 0.302593 -0.085550
vn 0.771474 0.324871 0.547070
vn 0.771474 0.324871 0.547070
vn 0.771474 0.324871 0.547070
vn 0.771474 0.324871 0.547070
vn 0.755718 0.408078 0.512213
vn 0.755718 0.408078 0.512213
vn 0.755718 0.408078 0.512213
vn 0.755718 0.408078 0.512213
vn 0.686232 0.383110 0.618315
vn 0.686232 0.383110 0.618315
vn 0.686232 0.383110 0.618315
vn 0.287194 0.323744 0.901504
vn 0.287194 0.323744 0.901504
vn 0.287194 0.323744 0.901504
vn -0.125492 -0.128816 0.983696
vn -0.125492 -0.128816 0.983696
vn -0.125492 -0.128816 0.983696
vn -0.125492 -0.128816 0.983696
vn -0.137513 -0.154912 0.978311
vn -0.149945 -0.157329 0.976096
vn -0.143002 -0.128674 0.981322
vn -0.173047 -0.038631 0.984156
vn -0.167991 -0.228098 0.959036
vn 0.553363 -0.676589 0.485816
vn 0.553363 -0.676589 0.485816
vn 0.553363 -0.676589 0.485816
vn 0.553363 -0.676589 0.485816
vn 0.481634 -0.743867 0.463347
vn 0.481634 -0.743867 0.463347
vn 0.481634 -0.743867 0.463347
vn 0.481634 -0.743867 0.463347
vn 0.404242 -0.803899 0.436274
vn 0.404242 -0.803899 0.436274
vn 0.404242 -0.803899 0.436274
vn 0.404242 -0.803899 0.436274
vn 0.975425 -0.219233 0.021962
vn 0.975425 -0.219233 0.021962
vn 0.975425 -0.219233 0.021962
vn 0.975425 -0.219233 0.021962
vn 0.945066 -0.312124 0.097102
vn 0.945066 -0.312124 0.097102
vn 0.945066 -0.312124 0.097102
vn 0.945066 -0.312124 0.097102
vn 0.950349 0.043975 -0.308063
vn 0.950349 0.043975 -0.308063
vn 0.950349 0.043975 -0.308063
vn 0.950349 0.043975 -0.308063
vn 0.960237 0.127236 -0.248506
vn 0.960237 0.127236 -0.248507
vn 0.960237 0.127236 -0.248507
vn 0.960237 0.127236 -0.248507
vn 0.926917 0.131602 -0.351434
vn 0.943446 0.146704 -0.297300
vn 0.913485 0.120785 -0.388532
vn 0.946340 0.149640 -0.286441
vn 0.185605 0.247819 -0.950861
vn 0.185605 0.247819 -0.950861
vn 0.185605 0.247819 -0.950861
vn 0.185605 0.247819 -0.950861
vn 0.192794 0.226820 -0.954664
vn 0.192794 0.226820 -0.954664
vn 0.192794 0.226821 -0.954664
vn -0.152958 0.070311 -0.985728
vn -0.152982 0.070344 -0.985722
vn -0.172177 0.097711 -0.980208
vn -0.144128 0.067878 -0.987228
vn -0.146573 0.068302 -0.986839
vn -0.041051 0.049758 -0.997917
vn -0.632445 -0.774056 0.029158
vn -0.632445 -0.774056 0.029158
vn -0.632445 -0.774056 0.029158
vn -0.632445 -0.774056 0.029158
vn -0.552545 -0.833432 0.009180
vn -0.552545 -0.833432 0.009180
vn -0.552545 -0.833432 0.009180
vn -0.552545 -0.833432 0.009180
vn -0.371913 -0.882543 0.287749
vn -0.377679 -0.881147 0.284499
vn -0.377679 -0.881147 0.284499
vn -0.373412 -0.882184 0.286906
vn -0.347710 -0.887924 0.301145
vn -0.134756 -0.989328 0.055415
vn -0.134756 -0.989328 0.055415
vn -0.134756 -0.989328 0.055415
vn -0.134756 -0.989328 0.055415
vn -0.099675 -0.994854 0.018181
vn -0.099675 -0.994854 0.018181
vn -0.099675 -0.994854 0.018181
vn 0.360660 -0.856034 -0.370312
vn 0.360660 -0.856034 -0.370312
vn 0.360660 -0.856034 -0.370312
vn 0.360660 -0.856034 -0.370312
vn 0.399447 -0.343348 -0.850032
vn 0.399447 -0.343348 -0.850032
vn 0.399447 -0.343348 -0.850032
vn 0.399447 -0.343348 -0.850032
vn 0.424658 -0.522213 -0.739567
vn 0.422096 -0.505041 -0.752841
vn 0.413485 -0.453661 -0.789444
vn 0.425250 -0.526346 -0.736290
vn 0.425249 -0.526346 -0.736290
vn 0.152379 -0.637868 -0.754920
vn 0.152379 -0.637868 -0.754921
vn 0.152379 -0.637868 -0.754920
vn 0.152379 -0.637868 -0.754920
vn 0.128809 -0.629045 -0.766623
vn 0.128809 -0.629045 -0.766623
vn 0.128809 -0.629045 -0.766623
s off
g StoneL
usemtl initialShadingGroup
f 4/60/1 1/2/2 2/57/3 3/61/4
f 1/2/5 4/60/6 5/5/7
f 4/1/8 3/4/9 6/6/10 7/7/11
f 7/7/12 6/6/13 8/8/14
f 4/60/15 7/59/16 9/58/17 5/5/18
f 5/5/19 9/58/20 11/50/21 10/11/22
f 9/9/23 7/7/24 8/8/25 12/12/26
f 12/12/27 8/8/28 13/13/29
s 1
f 14/14/30 5/5/31 10/11/32
f 5/5/31 16/15/33 15/16/34 1/2/35
f 14/14/30 16/15/33 5/5/31
s off
f 2/57/36 1/2/37 15/16/38 17/17/39
s 2
f 2/3/40 20/18/41 6/6/42 3/4/43
f 17/54/44 20/18/41 2/3/40
s off
f 6/6/45 20/18/46 22/19/47 21/20/48
f 20/18/49 18/21/50 23/22/51 22/19/52
s 2
f 18/21/53 20/18/41 19/23/54
f 19/23/54 20/18/41 17/54/44
s off
f 13/13/55 8/8/56 6/6/57 21/20/58
f 13/13/59 21/20/60 24/24/61
f 22/19/62 23/22/63 25/25/64
f 18/21/65 19/23/66 25/25/67 23/22/68
f 25/25/69 19/23/70 26/55/71 27/53/72
f 27/53/73 26/55/74 28/56/75
f 19/23/76 17/54/77 26/55/78
f 15/16/79 16/15/80 26/26/81 17/17/82
s 3
f 26/26/83 16/15/84 28/28/85
f 28/28/85 16/15/84 30/29/86
f 30/29/86 16/15/84 29/30/87
s off
f 28/28/88 30/29/89 31/52/90 27/27/91
f 31/52/92 30/29/93 29/30/94 32/51/95
f 32/51/96 29/30/97 33/33/98 34/34/99
f 27/53/100 31/31/101 35/35/102 25/25/103
f 31/31/104 32/32/105 36/36/106 35/35/107
f 21/20/108 22/19/109 25/25/110 35/35/111
f 24/24/112 21/20/113 35/35/114 36/36/115
s 4
f 24/24/116 38/37/117 37/38/118
f 24/24/116 36/36/119 38/37/117
s off
f 12/12/120 13/13/121 24/24/122 37/38/123
f 12/12/124 37/38/125 39/39/126
s 5
f 9/9/127 40/40/128 11/10/129
f 12/12/130 41/41/131 40/40/128 9/9/127
f 39/39/132 41/41/131 12/12/130
s off
f 14/14/133 10/11/134 11/50/135 40/49/136
f 14/14/137 40/49/138 43/46/139 42/43/140
s 6
f 42/43/141 33/33/142 29/30/143 16/15/144
f 42/43/141 16/15/144 14/14/145
s off
f 34/34/146 33/33/147 42/43/148 43/46/149
f 34/34/150 43/46/151 44/47/152
f 36/36/153 32/32/154 34/48/155 44/44/156
f 37/38/157 38/37/158 41/41/159 39/39/160
s 7
f 38/37/161 45/45/162 41/41/163
f 36/36/164 44/44/165 45/45/162 38/37/161
s off
f 43/42/166 40/40/167 41/41/168 45/45/169
f 43/42/170 45/45/171 44/44/172
