# This file uses meters as units for non-parametric coordinates.

mtllib SM_StoneM_Placeholder.mtl
g default
v 37.027340 25.302250 17.127853
v 28.540173 53.034191 0.159622
v 26.782551 50.631680 -7.729660
v 26.793093 28.409573 -22.594345
v 30.975597 13.937372 -17.129028
v 34.980228 13.428000 1.218796
v 14.794382 51.131897 -15.523529
v 14.713591 34.726578 -26.733124
v -7.546749 12.228646 -26.208206
v -14.455722 25.809978 -31.802231
v -0.928570 -0.362474 -13.233292
v -6.194352 -0.227989 -14.777176
v -5.280371 57.730148 -10.427643
v -29.473688 44.914391 -17.903030
v -28.954113 34.726162 -24.919815
v 18.174269 59.142506 11.512222
v -5.761269 63.711864 5.557220
v -29.289827 45.942795 -14.856842
v -11.162441 0.804170 -9.286957
v -36.598595 23.052761 -3.265427
v -31.939577 12.919427 1.675644
v -7.696593 1.404533 -0.888626
v 10.977853 -0.090510 20.439346
v 17.753113 3.246798 19.412399
v 35.363903 24.807529 21.544662
v 9.310932 2.017261 25.304976
v 17.723656 9.380784 29.126373
v 14.694533 54.278042 23.082840
v 6.232755 54.278042 25.568344
v -4.844485 30.518173 29.062042
v 11.096200 15.061019 27.494415
v -17.722124 13.552456 23.980242
v -4.893876 56.539650 19.479691
v -35.817562 27.338888 0.437317
v -30.764420 28.454359 12.879929
v -17.029316 42.153381 18.165131
v -23.055460 13.811657 20.376419
vt 0.879613 0.609020
vt 0.275110 0.622936
vt 0.479129 0.908581
vt 0.597890 0.944764
vt 0.649659 0.452569
vt 0.374050 0.450924
vt 0.171364 0.637249
vt 0.326164 0.849752
vt 0.113229 0.193251
vt 0.000000 0.337995
vt 0.330634 0.054699
vt 0.290373 0.023737
vt 0.141303 0.490795
vt 0.329508 0.812524
vt 0.044564 0.360313
vt 0.727329 0.955551
vt 0.560786 0.877691
vt 0.186645 0.503364
vt 0.353063 0.000000
vt 0.344706 0.129662
vt 0.438601 0.016951
vt 0.486863 0.022826
vt 0.856972 0.103871
vt 0.861682 0.192690
vt 0.938252 0.588347
vt 1.000000 0.265510
vt 0.921701 0.116811
vt 0.887277 0.858106
vt 0.954418 0.301103
vt 0.897578 0.804152
vt 0.923221 0.407427
vt 0.814404 0.098116
vt 0.772147 0.771904
vt 0.400429 0.190232
vt 0.601973 0.226954
vt 0.719532 0.499030
vt 0.744145 0.070027
vn 0.958827 0.153033 -0.239234
vn 0.958827 0.153033 -0.239234
vn 0.958827 0.153033 -0.239234
vn 0.958827 0.153033 -0.239234
vn 0.959947 0.166987 -0.224981
vn 0.959947 0.166987 -0.224981
vn 0.959948 0.166987 -0.224981
vn 0.959947 0.166987 -0.224981
vn 0.494841 0.485564 -0.720667
vn 0.494840 0.485564 -0.720667
vn 0.494841 0.485564 -0.720667
vn 0.494841 0.485564 -0.720667
vn 0.221707 -0.260659 -0.939629
vn 0.221707 -0.260659 -0.939629
vn 0.221707 -0.260659 -0.939629
vn 0.221707 -0.260659 -0.939629
vn 0.242313 -0.261553 -0.934278
vn 0.242313 -0.261553 -0.934277
vn 0.242313 -0.261553 -0.934277
vn 0.201207 -0.649682 -0.733095
vn 0.201207 -0.649682 -0.733095
vn 0.201207 -0.649682 -0.733095
vn 0.201207 -0.649682 -0.733095
vn -0.033840 0.558209 -0.829010
vn -0.033840 0.558209 -0.829010
vn -0.033840 0.558209 -0.829010
vn -0.033840 0.558209 -0.829010
vn -0.034086 0.570311 -0.820721
vn -0.034086 0.570311 -0.820721
vn -0.034086 0.570311 -0.820721
vn -0.034086 0.570311 -0.820721
vn 0.224155 0.924406 -0.308591
vn 0.224155 0.924406 -0.308591
vn 0.224155 0.924406 -0.308591
vn 0.224155 0.924406 -0.308591
vn 0.239215 0.918499 -0.314859
vn 0.239215 0.918499 -0.314859
vn 0.239215 0.918499 -0.314859
vn 0.239215 0.918499 -0.314859
vn -0.367324 0.870892 -0.326528
vn -0.367324 0.870892 -0.326528
vn -0.367324 0.870892 -0.326528
vn -0.367324 0.870892 -0.326528
vn -0.619418 -0.557764 -0.552468
vn -0.619418 -0.557764 -0.552468
vn -0.619418 -0.557764 -0.552468
vn -0.619418 -0.557764 -0.552468
vn -0.634763 -0.572226 -0.519263
vn -0.634763 -0.572226 -0.519263
vn -0.634763 -0.572226 -0.519263
vn -0.634763 -0.572226 -0.519263
vn -0.617650 -0.555455 -0.556757
vn -0.617650 -0.555455 -0.556757
vn -0.617649 -0.555455 -0.556757
vn -0.961447 0.167133 -0.218370
vn -0.961447 0.167133 -0.218370
vn -0.961447 0.167133 -0.218370
vn -0.961447 0.167133 -0.218370
vn -0.071052 -0.991514 0.108862
vn -0.071052 -0.991514 0.108862
vn -0.071052 -0.991514 0.108862
vn -0.071052 -0.991514 0.108862
vn -0.147841 -0.987174 0.060249
vn -0.147841 -0.987174 0.060249
vn -0.147841 -0.987174 0.060249
vn 0.399547 -0.907963 -0.126350
vn 0.399547 -0.907963 -0.126350
vn 0.399547 -0.907963 -0.126350
vn 0.399547 -0.907963 -0.126350
vn 0.427792 -0.898573 -0.097778
vn 0.427792 -0.898573 -0.097778
vn 0.427792 -0.898573 -0.097778
vn 0.728745 -0.603288 0.323998
vn 0.728745 -0.603288 0.323998
vn 0.728745 -0.603288 0.323998
vn 0.728745 -0.603288 0.323998
vn 0.444804 -0.756517 0.479408
vn 0.444804 -0.756517 0.479408
vn 0.444804 -0.756517 0.479408
vn 0.444804 -0.756517 0.479408
vn 0.695760 -0.606372 0.385009
vn 0.695760 -0.606372 0.385009
vn 0.695760 -0.606372 0.385009
vn 0.766769 0.495004 0.408701
vn 0.766769 0.495004 0.408701
vn 0.766769 0.495004 0.408701
vn 0.766769 0.495004 0.408701
vn 0.747471 0.501507 0.435635
vn 0.747471 0.501507 0.435635
vn 0.747471 0.501507 0.435635
vn 0.196286 0.106317 0.974766
vn 0.191386 0.117583 0.974446
vn 0.082043 0.362453 0.928384
vn 0.087316 0.916140 0.391232
vn 0.087316 0.916140 0.391232
vn 0.087316 0.916140 0.391233
vn 0.087316 0.916140 0.391233
vn 0.208707 0.073777 0.975192
vn 0.208707 0.073777 0.975191
vn 0.206593 0.079668 0.975178
vn -0.327536 -0.112634 0.938101
vn -0.327536 -0.112634 0.938101
vn -0.327536 -0.112634 0.938101
vn -0.109543 -0.183191 0.976955
vn -0.109543 -0.183191 0.976955
vn -0.109543 -0.183191 0.976955
vn -0.109543 -0.183191 0.976955
vn -0.072038 0.884829 0.460312
vn -0.072038 0.884829 0.460312
vn -0.072038 0.884829 0.460312
vn -0.961283 0.258240 -0.096161
vn -0.961283 0.258240 -0.096161
vn -0.961283 0.258240 -0.096161
vn -0.744678 0.565442 0.354585
vn -0.744678 0.565442 0.354585
vn -0.744678 0.565442 0.354585
vn -0.744678 0.565442 0.354585
vn -0.739279 0.618280 0.266827
vn -0.739279 0.618280 0.266828
vn -0.739279 0.618280 0.266828
vn -0.739279 0.618280 0.266828
vn -0.534978 0.150984 0.831265
vn -0.533241 0.174076 0.827860
vn -0.533477 0.171155 0.828316
vn -0.534978 0.150984 0.831265
vn -0.431585 0.311001 0.846766
vn -0.431585 0.311001 0.846766
vn -0.431585 0.311001 0.846766
vn -0.431585 0.311001 0.846766
vn -0.529501 0.214218 0.820816
vn -0.895875 -0.207184 0.393043
vn -0.895875 -0.207184 0.393043
vn -0.895875 -0.207184 0.393043
vn -0.895875 -0.207184 0.393043
vn -0.872091 -0.241135 0.425806
vn -0.872091 -0.241135 0.425806
vn -0.872091 -0.241135 0.425806
vn -0.385761 -0.881868 0.271104
vn -0.385761 -0.881868 0.271104
vn -0.385761 -0.881868 0.271104
vn -0.385761 -0.881868 0.271104
vn -0.342428 -0.897916 0.276569
vn -0.342428 -0.897916 0.276569
vn -0.342428 -0.897916 0.276569
vn -0.342428 -0.897916 0.276569
vn -0.396417 -0.888607 0.230721
vn -0.396417 -0.888607 0.230721
vn -0.396417 -0.888607 0.230721
s off
g pCube4 Stone_set
usemtl initialShadingGroup
f 1/1/1 4/2/2 3/3/3 2/4/4
f 4/2/5 1/1/6 6/5/7 5/6/8
f 3/3/9 4/2/10 8/7/11 7/8/12
f 8/7/13 4/2/14 5/6/15 9/9/16
f 8/7/17 9/9/18 10/10/19
f 9/9/20 5/6/21 11/11/22 12/12/23
f 7/8/24 8/7/25 14/13/26 13/14/27
f 8/7/28 10/10/29 15/15/30 14/13/31
f 2/4/32 3/3/33 7/8/34 16/16/35
f 16/16/36 7/8/37 13/14/38 17/17/39
f 13/14/40 14/13/41 18/18/42 17/17/43
f 9/9/44 12/12/45 15/15/46 10/10/47
f 15/15/48 12/12/49 19/19/50 20/20/51
f 20/20/52 19/19/53 21/21/54
f 18/18/55 14/13/56 15/15/57 20/20/58
f 19/19/59 12/12/60 11/11/61 22/22/62
f 22/22/63 11/11/64 23/23/65
f 5/6/66 6/5/67 23/23/68 11/11/69
f 23/23/70 6/5/71 24/24/72
f 6/5/73 1/1/74 25/25/75 24/24/76
f 23/23/77 24/24/78 27/26/79 26/27/80
f 24/24/81 25/25/82 27/26/83
f 2/4/84 16/16/85 25/25/86 1/1/87
f 25/25/88 16/16/89 28/28/90
s 1
f 25/25/91 31/29/92 27/26/93
s off
f 16/16/94 17/17/95 29/30/96 28/28/97
s 1
f 29/30/98 30/31/99 31/29/92 28/28/100
f 28/28/100 31/29/92 25/25/91
s off
f 27/26/101 31/29/102 26/27/103
f 26/27/104 31/29/105 30/31/106 32/32/107
f 29/30/108 17/17/109 33/33/110
f 18/18/111 20/20/112 34/34/113
f 33/33/114 17/17/115 18/18/116 34/34/117
f 33/33/118 34/34/119 35/35/120 36/36/121
s 2
f 32/32/122 30/31/123 35/35/124 37/37/125
s off
f 30/31/126 29/30/127 33/33/128 36/36/129
s 2
f 35/35/124 30/31/123 36/36/130
s off
f 20/20/131 21/21/132 35/35/133 34/34/134
f 37/37/135 35/35/136 21/21/137
f 22/22/138 23/23/139 26/27/140 32/32/141
f 19/19/142 22/22/143 32/32/144 37/37/145
f 37/37/146 21/21/147 19/19/148
