# This file uses meters as units for non-parametric coordinates.

mtllib SM_Window_Placeholder.mtl
g default
v -34.814814 -0.000001 3.703707
v 34.814814 -0.000001 3.703707
v -34.814814 99.999999 3.703707
v 34.814814 99.999999 3.703707
v -34.814814 99.999999 -5.773033
v 34.814814 99.999996 -5.773033
v -34.814814 -0.000008 -5.773033
v 34.814814 -0.000008 -5.773034
v -28.914815 5.900001 3.703707
v 28.914815 5.900001 3.703707
v 28.914815 94.100005 3.703707
v -28.914815 94.100005 3.703707
v -34.814814 49.999999 3.703707
v 34.814814 49.999999 3.703707
v 0.000000 -0.000001 3.703707
v 0.000000 99.999999 3.703707
v 28.914815 47.050292 3.703707
v 28.914815 52.949706 3.703707
v -2.949702 52.949706 3.703707
v -2.949702 47.050292 3.703707
v 2.949702 47.050292 3.703707
v 2.949702 52.949706 3.703707
v -28.914815 52.949706 3.703707
v -28.914815 47.050292 3.703707
v -2.949702 5.900001 3.703707
v 2.949702 5.900001 3.703707
v -2.949702 94.100005 3.703707
v 2.949702 94.100005 3.703707
v -28.914815 5.900001 -1.296294
v -2.949702 5.900001 -1.296294
v -2.949702 47.050292 -1.296294
v -28.914815 47.050292 -1.296294
v -2.949702 52.949706 -1.296294
v -28.914815 52.949706 -1.296294
v -2.949702 94.100005 -1.296294
v -28.914815 94.100005 -1.296294
v 2.949702 5.900001 -1.296294
v 2.949702 47.050292 -1.296294
v 28.914815 5.900001 -1.296294
v 28.914815 47.050292 -1.296294
v 2.949702 52.949706 -1.296294
v 2.949702 94.100005 -1.296294
v 28.914815 52.949706 -1.296294
v 28.914815 94.100005 -1.296294
vt 0.625000 0.000000
vt 0.375000 0.500000
vt 0.625000 0.500000
vt 0.375000 0.750000
vt 0.625000 0.750000
vt 0.375000 1.000000
vt 0.625000 1.000000
vt 0.875000 -0.000000
vt 0.875000 0.250000
vt 0.125000 -0.000000
vt 0.125000 0.250000
vt 0.500000 1.000000
vt 0.625000 0.125000
vt 0.375000 0.250000
vt 0.375000 0.125000
vt 0.375000 0.000000
vt 0.375000 0.000000
vt 0.500000 0.000000
vt 0.625000 0.000000
vt 0.625000 0.250000
vt 0.500000 0.250000
vt 0.625000 0.133361
vt 0.512752 0.133361
vt 0.512752 0.250000
vt 0.487248 0.250000
vt 0.487248 0.133361
vt 0.375000 0.133361
vt 0.375000 0.116639
vt 0.487248 0.116639
vt 0.487248 0.000000
vt 0.512752 0.000000
vt 0.375000 0.250000
vt 0.512752 0.116639
vt 0.625000 0.116639
vt 0.625000 0.250000
vt 0.375000 0.000000
vt 0.487248 0.000000
vt 0.487248 0.116639
vt 0.375000 0.116639
vt 0.375000 0.133361
vt 0.487248 0.133361
vt 0.487248 0.250000
vt 0.375000 0.250000
vt 0.512752 0.116639
vt 0.512752 0.000000
vt 0.625000 0.000000
vt 0.625000 0.116639
vt 0.512752 0.250000
vt 0.512752 0.133361
vt 0.625000 0.133361
vt 0.625000 0.250000
vn 0.000000 1.000000 0.000000
vn 0.000000 1.000000 0.000000
vn 0.000000 1.000000 0.000000
vn 0.000000 1.000000 0.000000
vn 0.000000 -1.000000 0.000001
vn 0.000000 -1.000000 0.000001
vn 0.000000 -1.000000 0.000001
vn 0.000000 -1.000000 0.000001
vn 1.000000 0.000000 0.000000
vn 1.000000 0.000000 0.000000
vn 1.000000 0.000000 0.000000
vn -1.000000 0.000000 0.000000
vn -1.000000 0.000000 0.000000
vn -1.000000 0.000000 0.000000
vn -0.000000 0.000000 1.000000
vn 0.000000 0.000000 1.000000
vn 0.000000 0.000000 1.000000
vn -0.000000 0.000000 1.000000
vn 0.000000 0.000000 1.000000
vn 0.000000 0.000000 1.000000
vn 0.000000 0.000000 1.000000
vn 0.000000 0.000000 1.000000
vn -1.000000 0.000000 0.000000
vn -1.000000 0.000000 0.000000
vn 1.000000 0.000000 0.000000
vn 1.000000 0.000000 0.000000
vn -0.000000 0.000000 1.000000
vn -0.000000 0.000000 1.000000
vn -0.000000 0.000000 1.000000
vn -0.000000 0.000000 1.000000
vn 0.000000 0.000000 1.000000
vn 0.000000 0.000000 1.000000
vn 0.000000 0.000000 1.000000
vn 0.000000 0.000000 1.000000
vn 0.000000 1.000000 0.000000
vn 0.000000 -1.000000 0.000001
vn 0.000000 0.000000 1.000000
vn -0.000000 0.000000 1.000000
vn 0.000000 0.000000 1.000000
vn 0.000000 0.000000 1.000000
vn 0.000000 0.000000 1.000000
vn 0.000000 0.000000 1.000000
vn 0.000000 0.000000 1.000000
vn 0.000000 0.000000 1.000000
vn 0.000000 0.000000 1.000000
vn 0.000000 0.000000 1.000000
vn 0.000000 0.000000 1.000000
vn 0.000000 0.000000 1.000000
vn 0.000000 0.000000 1.000000
vn 0.000000 0.000000 1.000000
vn 0.000000 0.000000 1.000000
vn 0.000000 0.000000 1.000000
vn 0.000000 0.000000 1.000000
vn 0.000000 0.000000 1.000000
vn 0.000000 0.000000 1.000000
vn 0.000000 0.000000 1.000000
vn 0.000000 0.000000 1.000000
vn 0.000000 0.000000 1.000000
vn 0.000000 0.000000 1.000000
vn 0.000000 0.000000 1.000000
vn 0.000000 1.000000 0.000000
vn 0.000000 1.000000 0.000000
vn 0.000000 1.000000 0.000000
vn 0.000000 1.000000 0.000000
vn -1.000000 0.000000 0.000000
vn -1.000000 0.000000 0.000000
vn -1.000000 0.000000 0.000000
vn -1.000000 0.000000 0.000000
vn 0.000000 -1.000000 0.000000
vn 0.000000 -1.000000 0.000000
vn 0.000000 -1.000000 0.000000
vn 0.000000 -1.000000 0.000000
vn 1.000000 0.000000 0.000000
vn 1.000000 0.000000 0.000000
vn 1.000000 0.000000 0.000000
vn 1.000000 0.000000 0.000000
vn 0.000000 1.000000 0.000000
vn 0.000000 1.000000 0.000000
vn 0.000000 1.000000 0.000000
vn 0.000000 1.000000 0.000000
vn -1.000000 0.000000 0.000000
vn -1.000000 0.000000 0.000000
vn -1.000000 0.000000 0.000000
vn -1.000000 0.000000 0.000000
vn 0.000000 -1.000000 0.000000
vn 0.000000 -1.000000 0.000000
vn 0.000000 -1.000000 0.000000
vn 0.000000 -1.000000 0.000000
vn 1.000000 0.000000 0.000000
vn 1.000000 0.000000 0.000000
vn 1.000000 0.000000 0.000000
vn 1.000000 0.000000 0.000000
vn 1.000000 0.000000 0.000000
vn 1.000000 0.000000 0.000000
vn 1.000000 0.000000 0.000000
vn 1.000000 0.000000 0.000000
vn 0.000000 1.000000 0.000000
vn 0.000000 1.000000 0.000000
vn 0.000000 1.000000 0.000000
vn 0.000000 1.000000 0.000000
vn -1.000000 0.000000 0.000000
vn -1.000000 0.000000 0.000000
vn -1.000000 0.000000 0.000000
vn -1.000000 0.000000 0.000000
vn 0.000000 -1.000000 0.000000
vn 0.000000 -1.000000 0.000000
vn 0.000000 -1.000000 0.000000
vn 0.000000 -1.000000 0.000000
vn 1.000000 0.000000 0.000000
vn 1.000000 0.000000 0.000000
vn 1.000000 0.000000 0.000000
vn 1.000000 0.000000 0.000000
vn 0.000000 1.000000 0.000000
vn 0.000000 1.000000 0.000000
vn 0.000000 1.000000 0.000000
vn 0.000000 1.000000 0.000000
vn -1.000000 0.000000 0.000000
vn -1.000000 0.000000 0.000000
vn -1.000000 0.000000 0.000000
vn -1.000000 0.000000 0.000000
vn 0.000000 -1.000000 0.000000
vn 0.000000 -1.000000 0.000000
vn 0.000000 -1.000000 0.000000
vn 0.000000 -1.000000 0.000000
s 1
g pCube9
usemtl initialShadingGroup
f 3/14/1 16/21/2 6/3/3 5/2/4
s 2
f 7/4/5 8/5/6 15/12/7 1/6/8
s 3
f 2/1/9 8/8/10 14/13/11
s 4
f 7/10/12 1/16/13 13/15/14
s 5
f 1/16/15 15/18/16 25/30/17 9/17/18
f 2/1/19 14/13/20 17/34/21 10/19/22
s 4
f 7/10/12 13/15/14 3/14/23 5/11/24
s 3
f 14/13/11 8/8/10 6/9/25 4/20/26
s 5
f 3/14/27 13/15/28 23/27/29 12/32/30
f 4/20/31 16/21/32 28/24/33 11/35/34
s 1
f 6/3/3 16/21/2 4/20/35
s 2
f 15/12/7 8/5/6 2/7/36
s 5
f 18/22/37 14/13/20 4/20/31 11/35/34
f 24/28/38 13/15/28 1/16/15 9/17/18
f 26/31/39 15/18/16 2/1/19 10/19/22
f 27/25/40 16/21/32 3/14/27 12/32/30
f 17/34/21 18/22/37 22/23/41 21/33/42
f 19/26/43 22/23/41 28/24/33 27/25/40
f 20/29/44 19/26/43 23/27/29 24/28/38
f 21/33/42 20/29/44 25/30/17 26/31/39
s off
f 29/36/45 30/37/46 31/38/47 32/39/48
f 34/40/49 33/41/50 35/42/51 36/43/52
f 38/44/53 37/45/54 39/46/55 40/47/56
f 42/48/57 41/49/58 43/50/59 44/51/60
s 5
f 17/34/21 14/13/20 18/22/37
f 19/26/43 20/29/44 21/33/42 22/23/41
f 23/27/29 13/15/28 24/28/38
f 25/30/17 15/18/16 26/31/39
f 16/21/32 27/25/40 28/24/33
s off
f 9/17/61 25/30/62 30/37/63 29/36/64
f 25/30/65 20/29/66 31/38/67 30/37/68
f 20/29/69 24/28/70 32/39/71 31/38/72
f 24/28/73 9/17/74 29/36/75 32/39/76
f 23/27/77 19/26/78 33/41/79 34/40/80
f 19/26/81 27/25/82 35/42/83 33/41/84
f 27/25/85 12/32/86 36/43/87 35/42/88
f 12/32/89 23/27/90 34/40/91 36/43/92
f 21/33/93 26/31/94 37/45/95 38/44/96
f 26/31/97 10/19/98 39/46/99 37/45/100
f 10/19/101 17/34/102 40/47/103 39/46/104
f 17/34/105 21/33/106 38/44/107 40/47/108
f 28/24/109 22/23/110 41/49/111 42/48/112
f 22/23/113 18/22/114 43/50/115 41/49/116
f 18/22/117 11/35/118 44/51/119 43/50/120
f 11/35/121 28/24/122 42/48/123 44/51/124
